<svg width="287" height="334" viewBox="0 0 287 334" fill="none" xmlns="http://www.w3.org/2000/svg">
<path d="M58.267 287.522C56.7573 283.943 54.5767 280.7 51.781 277.905C48.9853 275.165 45.7983 272.984 42.1639 271.419C42.0521 271.419 41.9962 271.363 41.8843 271.307V206.056C41.8843 206.056 41.6607 206.167 41.4929 206.223C38.0263 207.565 34.2801 208.348 30.3661 208.348C26.4522 208.348 22.4823 207.565 18.9598 206.112H18.9039V271.363C18.7921 271.363 18.7361 271.419 18.6243 271.474C15.0459 272.984 11.8029 275.165 9.00719 277.96C6.21152 280.756 4.03089 283.943 2.52123 287.578C0.955648 291.324 0.116943 295.294 0.116943 299.319C0.116943 303.345 0.899734 307.315 2.52123 311.061C4.03089 314.64 6.21152 317.883 9.00719 320.678C11.747 323.474 14.9899 325.599 18.6243 327.164C22.3705 328.73 26.2845 329.569 30.3661 329.569C34.4478 329.569 38.4177 328.786 42.108 327.164C45.6864 325.655 48.9294 323.474 51.7251 320.678C54.5208 317.883 56.6455 314.696 58.2111 311.061C59.7766 307.315 60.6154 303.401 60.6154 299.319C60.6154 295.238 59.8326 291.268 58.2111 287.578M30.4221 310.949C23.992 310.949 18.7921 305.749 18.7921 299.319C18.7921 292.889 23.992 287.689 30.4221 287.689C36.8521 287.689 42.0521 292.889 42.0521 299.319C42.0521 305.749 36.8521 310.949 30.4221 310.949Z" fill="#3E19A3"/>
<path d="M58.267 45.2481C56.7573 41.6696 54.5767 38.4266 51.781 35.631C48.9853 32.8912 45.7983 30.7106 42.1639 29.145C38.4177 27.5794 34.5037 26.7407 30.4221 26.7407C26.3404 26.7407 22.3705 27.5235 18.6802 29.145C15.1018 30.6547 11.8588 32.8353 9.0631 35.631C6.26742 38.4266 4.0868 41.6137 2.57713 45.2481C1.01156 48.9943 0.172852 52.9642 0.172852 56.9899C0.172852 61.0157 0.955642 64.9856 2.57713 68.7318C4.0868 72.3102 6.26742 75.5532 9.0631 78.3489C11.8029 81.1446 15.0459 83.2693 18.6802 84.8349C18.7921 84.8349 18.848 84.8908 18.9598 84.9467V150.254C18.9598 150.254 18.9598 150.254 19.0157 150.254C22.2028 148.968 25.6135 148.185 29.192 148.017C33.5532 147.849 37.6908 148.632 41.493 150.142C41.6048 150.142 41.7166 150.254 41.8843 150.31V85.0026C41.8843 85.0026 42.0521 84.9467 42.1639 84.8908C45.7424 83.3811 48.9853 81.2005 51.781 78.4048C54.5767 75.6091 56.7014 72.4221 58.267 68.7877C59.8326 65.0415 60.6713 61.1275 60.6713 57.0459C60.6713 52.9642 59.8885 48.9943 58.267 45.304M30.478 68.6758C24.0479 68.6758 18.848 63.4759 18.848 57.0459C18.848 50.6158 24.0479 45.4158 30.478 45.4158C36.908 45.4158 42.108 50.6158 42.108 57.0459C42.108 63.4759 36.908 68.6758 30.478 68.6758Z" fill="#3E19A3"/>
<path d="M286.898 29.2571C286.283 13.6572 273.702 0.964866 258.102 0.293904C244.236 -0.321145 232.27 8.51319 228.133 20.8701C212.477 21.541 197.828 27.9711 186.645 39.1538C174.847 50.9515 168.305 66.6632 168.305 83.3814V126.994C168.305 138.568 163.776 148.465 155.166 155.678C140.684 167.811 126.258 166.693 120.276 166.86H58.4912C55.4718 159.312 49.4332 153.329 41.9408 150.198C41.829 150.198 41.7171 150.086 41.5494 150.03C37.7473 148.521 33.6097 147.738 29.2484 147.906C25.6699 148.073 22.2033 148.8 19.0722 150.142C19.0722 150.142 19.0722 150.142 19.0163 150.142C8.39269 154.559 0.788449 164.791 0.341141 176.869C-0.162081 189.952 7.72172 201.303 19.0163 206H19.0722C22.5947 207.453 26.4527 208.292 30.4785 208.292C34.5043 208.292 38.1387 207.509 41.5494 206.167C41.6612 206.167 41.773 206.056 41.9408 206C49.4332 202.924 55.4159 196.886 58.4912 189.337H120.276C126.482 189.561 140.74 188.443 155.166 200.52C163.776 207.733 168.305 217.63 168.305 229.204V271.083C168.305 287.801 174.791 303.513 186.645 315.311C198.443 327.108 214.154 333.65 230.872 333.65C237.191 333.65 242.335 328.506 242.335 322.188C242.335 315.87 238.868 310.67 230.705 310.726C208.843 310.893 191.23 292.833 191.23 270.971V229.204C191.23 210.92 183.626 194.482 169.871 182.963C167.858 181.286 165.733 179.664 163.497 178.267C163.385 178.211 163.385 178.043 163.497 177.987C165.733 176.533 167.858 174.968 169.871 173.29C183.626 161.772 191.23 145.334 191.23 127.05V83.4373C191.23 62.0224 208.339 44.4656 229.642 43.8505C234.563 53.859 244.851 60.7364 256.705 60.7364C273.758 60.7364 287.513 46.5344 286.898 29.3689M30.4785 189.841C24.0485 189.841 18.8485 184.641 18.8485 178.211C18.8485 171.781 24.0485 166.581 30.4785 166.581C36.9086 166.581 42.1085 171.781 42.1085 178.211C42.1085 184.641 36.9086 189.841 30.4785 189.841ZM256.705 42.1731C250.274 42.1731 245.075 36.9732 245.075 30.5431C245.075 24.1131 250.274 18.9131 256.705 18.9131C263.135 18.9131 268.335 24.1131 268.335 30.5431C268.335 36.9732 263.135 42.1731 256.705 42.1731Z" fill="#F20090"/>
</svg>
