<svg width="36" height="36" viewBox="0 0 36 36" fill="none" xmlns="http://www.w3.org/2000/svg">
<rect width="36" height="36" fill="#D8CAFF"/>
<path d="M23.1667 9H13.1667C10.8692 9 9 10.8692 9 13.1667V19.8333C9 21.845 10.4342 23.5283 12.3333 23.9158V26.5C12.3333 26.8075 12.5025 27.09 12.7733 27.235C12.8967 27.3008 13.0317 27.3333 13.1667 27.3333C13.3283 27.3333 13.4892 27.2858 13.6292 27.1933L18.4192 24H23.1667C25.4642 24 27.3333 22.1308 27.3333 19.8333V13.1667C27.3333 10.8692 25.4642 9 23.1667 9ZM17.7042 22.4733L14 24.9425V23.1667C14 22.7067 13.6267 22.3333 13.1667 22.3333C11.7883 22.3333 10.6667 21.2117 10.6667 19.8333V13.1667C10.6667 11.7883 11.7883 10.6667 13.1667 10.6667H23.1667C24.545 10.6667 25.6667 11.7883 25.6667 13.1667V19.8333C25.6667 21.2117 24.545 22.3333 23.1667 22.3333H18.1667C18.1083 22.3325 18.025 22.3383 17.93 22.3667C17.83 22.3958 17.7542 22.4392 17.7042 22.4733Z" fill="#3E19A3"/>
<path d="M23.1663 14H13.1663C12.7063 14 12.333 14.3733 12.333 14.8333C12.333 15.2933 12.7063 15.6667 13.1663 15.6667H23.1663C23.6263 15.6667 23.9997 15.2933 23.9997 14.8333C23.9997 14.3733 23.6263 14 23.1663 14Z" fill="#3E19A3"/>
<path d="M21.5 17.3333H14.8333C14.3733 17.3333 14 17.7067 14 18.1667C14 18.6267 14.3733 19 14.8333 19H21.5C21.96 19 22.3333 18.6267 22.3333 18.1667C22.3333 17.7067 21.96 17.3333 21.5 17.3333Z" fill="#3E19A3"/>
</svg>
