<svg width="20" height="20" viewBox="0 0 20 20" fill="none" xmlns="http://www.w3.org/2000/svg">
<g clip-path="url(#clip0_609_2301)">
<path fill-rule="evenodd" clip-rule="evenodd" d="M9.99992 2.50004C5.85778 2.50004 2.49992 5.85791 2.49992 10C2.49992 14.1422 5.85778 17.5 9.99992 17.5C14.1421 17.5 17.4999 14.1422 17.4999 10C17.4999 5.85791 14.1421 2.50004 9.99992 2.50004ZM0.833252 10C0.833252 4.93743 4.93731 0.833374 9.99992 0.833374C15.0625 0.833374 19.1666 4.93743 19.1666 10C19.1666 15.0627 15.0625 19.1667 9.99992 19.1667C4.93731 19.1667 0.833252 15.0627 0.833252 10ZM9.99992 5.83337C10.4602 5.83337 10.8333 6.20647 10.8333 6.66671V10C10.8333 10.4603 10.4602 10.8334 9.99992 10.8334C9.53968 10.8334 9.16659 10.4603 9.16659 10V6.66671C9.16659 6.20647 9.53968 5.83337 9.99992 5.83337ZM9.16659 13.3334C9.16659 12.8731 9.53968 12.5 9.99992 12.5H10.0083C10.4685 12.5 10.8416 12.8731 10.8416 13.3334C10.8416 13.7936 10.4685 14.1667 10.0083 14.1667H9.99992C9.53968 14.1667 9.16659 13.7936 9.16659 13.3334Z" fill="red"/>
</g>
<defs>
<clipPath id="clip0_609_2301">
<rect width="20" height="20" fill="white"/>
</clipPath>
</defs>
</svg>
