<svg width="32" height="32" viewBox="0 0 32 32" fill="none" xmlns="http://www.w3.org/2000/svg">
<rect width="32" height="32" fill="#D8CAFF"/>
<path fill-rule="evenodd" clip-rule="evenodd" d="M7 10C7 9.44772 7.44772 9 8 9H26C26.5523 9 27 9.44772 27 10C27 10.5523 26.5523 11 26 11H8C7.44772 11 7 10.5523 7 10ZM10 14C10 13.4477 10.4477 13 11 13H23C23.5523 13 24 13.4477 24 14C24 14.5523 23.5523 15 23 15H11C10.4477 15 10 14.5523 10 14ZM7 18C7 17.4477 7.44772 17 8 17H26C26.5523 17 27 17.4477 27 18C27 18.5523 26.5523 19 26 19H8C7.44772 19 7 18.5523 7 18ZM10 22C10 21.4477 10.4477 21 11 21H23C23.5523 21 24 21.4477 24 22C24 22.5523 23.5523 23 23 23H11C10.4477 23 10 22.5523 10 22Z" fill="#222222"/>
</svg>
