<svg width="141" height="140" viewBox="0 0 141 140" fill="none" xmlns="http://www.w3.org/2000/svg">
<rect x="0.5" width="140" height="140" rx="70" fill="#FBFDFE"/>
<g clip-path="url(#clip0_520_6873)">
<path d="M51.2561 119.822V119.244H40.8556V97.8475H51.2561V96.6919H40.2778C39.9618 96.6919 39.7 96.9537 39.7 97.2697V119.822C39.7 120.138 39.9618 120.4 40.2778 120.4H51.8339C51.5179 120.4 51.2561 120.138 51.2561 119.822Z" fill="#F20090"/>
<path d="M74.928 62.0145H63.3809C63.0649 62.0145 62.8031 62.2764 62.8031 62.5923V88.386H63.3809C63.6969 88.386 63.9587 88.6478 63.9587 88.9638V63.1702H74.3592V103.201H63.9587V104.357H74.937C75.253 104.357 75.5148 104.095 75.5148 103.779V62.5923C75.5148 62.2764 75.253 62.0145 74.937 62.0145H74.928Z" fill="#F20090"/>
<path d="M63.9588 88.9638C63.9588 88.6478 63.697 88.386 63.381 88.386H51.8339C51.5179 88.386 51.2561 88.6478 51.2561 88.9638V119.822C51.2561 120.138 51.5179 120.4 51.8339 120.4H63.381C63.697 120.4 63.9588 120.138 63.9588 119.822V88.9638ZM62.8032 119.244H52.4027V89.5416H62.8032V119.244Z" fill="#3E19A3"/>
<path d="M47.5274 49.4202C47.4823 49.4924 47.4371 49.5556 47.41 49.6188C47.067 50.3591 47.3288 50.6932 47.5635 50.8918C48.5656 51.7314 51.4186 51.587 53.5402 50.1786C55.5083 45.2311 64.7803 38.2252 65.1956 37.9092C65.4484 37.7196 65.8095 37.7648 66.0082 38.0266C66.1977 38.2794 66.1436 38.6405 65.8908 38.8391C65.7825 38.9204 55.5174 46.6666 54.3979 51.2168C53.143 56.3448 51.9151 58.9901 51.1748 60.57C50.4255 62.168 50.29 62.5382 50.7234 63.3778C50.9762 63.8563 51.7165 64.1723 52.529 64.1181C53.8833 64.0369 55.0298 63.107 55.5986 61.6173C54.6958 57.2747 56.8626 53.7898 58.2439 51.5689C58.3974 51.3251 58.5418 51.0904 58.6772 50.8737C60.3475 48.1021 66.3151 42.333 66.5679 42.0893C66.7936 41.8636 67.1638 41.8726 67.3804 42.1073C67.5971 42.3421 67.5971 42.7032 67.3624 42.9199C67.2992 42.974 61.2413 48.8333 59.6523 51.4696C59.5169 51.6953 59.3724 51.93 59.2099 52.1828C57.6119 54.7468 55.1924 58.6109 57.3952 63.4771C57.9008 64.5966 58.587 66.1495 59.0925 67.4947C59.4537 64.407 59.4537 60.7145 59.4537 58.4574V57.8525C59.4537 53.6905 67.5339 46.4409 67.886 46.1339C68.1208 45.9263 68.4909 45.9443 68.6986 46.1791C68.9152 46.4138 68.8882 46.7839 68.6534 46.9916C66.4144 48.9868 60.6183 54.8191 60.6093 57.8525V58.4484C60.6093 62.6646 60.528 67.1697 59.8058 70.2302C59.5169 71.449 59.1287 72.4512 58.596 73.0922C57.7383 74.1304 57.4404 75.1777 57.7654 75.9722C58.0001 76.5409 58.5509 76.9021 59.2821 76.9743C60.7537 77.1278 65.2498 77.5882 66.8568 67.3954C68.4819 57.0671 73.0682 54.6746 78.8914 52.6252C79.5144 52.4085 80.4082 52.1828 80.9228 52.7697C81.6811 53.6454 80.8054 55.4059 79.072 58.6922C77.3747 61.9152 75.0454 66.33 76.5351 67.5579C77.808 68.6142 79.5144 66.9439 83.5771 62.7549C84.3174 61.9965 85.1209 61.1659 86.0147 60.2631C88.1814 58.0692 89.626 52.8509 91.0163 47.7951C92.4608 42.5497 93.8241 37.5932 96.045 35.5709C96.4423 35.2098 96.9569 34.9299 97.5618 34.7584C98.1035 34.6049 99.6382 33.9187 99.6653 32.8263C99.7285 30.1179 91.8559 21.3966 90.3302 20.8639C88.3259 20.1688 86.5564 23.2564 86.5383 23.2835C86.5383 23.3016 86.5112 23.3106 86.5022 23.3196C88.1814 24.7912 93.4268 29.5491 94.5012 32.8444C94.5915 33.1152 94.438 33.4041 94.1672 33.4944C94.113 33.5125 94.0588 33.5215 94.0046 33.5215C93.788 33.5215 93.5803 33.3861 93.5171 33.1604C92.4518 29.8922 86.5473 24.719 85.491 23.8071C83.3243 24.6287 76.7878 27.2288 71.2445 30.3977C68.5361 32.0499 66.0533 33.8194 64.4011 35.5528C61.0156 39.1009 49.947 46.5312 47.5003 49.4021L47.5274 49.4202ZM85.2744 31.6256C85.5091 31.8423 85.5181 32.2124 85.3014 32.4381C85.2292 32.5103 78.2775 39.9767 78.0428 44.563C78.0247 44.87 77.7719 45.1137 77.465 45.1137C77.4559 45.1137 77.4469 45.1137 77.4379 45.1137C77.1219 45.0957 76.8781 44.8248 76.8872 44.5088C77.1399 39.5072 84.1639 31.9777 84.4618 31.6617C84.6785 31.427 85.0487 31.4179 85.2744 31.6346V31.6256ZM83.7847 29.8109C83.9562 30.0818 83.884 30.4339 83.6132 30.6054C83.5319 30.6596 75.2169 36.0675 74.1967 40.401C74.1335 40.6628 73.8988 40.8434 73.637 40.8434C73.5919 40.8434 73.5467 40.8434 73.5016 40.8253C73.1946 40.7531 72.996 40.4371 73.0682 40.1302C74.1967 35.3452 82.6291 29.8651 82.9812 29.6303C83.252 29.4588 83.6041 29.531 83.7757 29.8019L83.7847 29.8109ZM69.809 35.9411C73.1856 31.7791 81.4013 27.8969 81.7534 27.7344C82.0423 27.599 82.3853 27.7254 82.5208 28.0143C82.6562 28.3032 82.5298 28.6463 82.2409 28.7817C82.1596 28.8178 73.9169 32.718 70.7028 36.6723C70.5855 36.8168 70.423 36.889 70.2514 36.889C70.125 36.889 69.9986 36.8439 69.8903 36.7626C69.6465 36.564 69.6014 36.1939 69.809 35.9501V35.9411Z" fill="white"/>
<path d="M90.7365 19.7715C88.1544 18.8687 86.1592 21.7397 85.6717 22.5251C83.7306 23.2384 69.1681 28.7456 63.6609 34.5327C62.0268 36.248 58.5148 38.9384 55.1292 41.5386C50.0734 45.4117 46.9587 47.8583 46.3719 49.1313C45.8934 50.1605 46.0559 51.1265 46.8323 51.7675C48.1414 52.869 50.8137 52.7877 53.0798 51.7404C51.9242 56.2094 50.8228 58.6199 50.1456 60.0735C49.3873 61.7076 48.9991 62.5291 49.7123 63.9014C50.1547 64.7411 51.1749 65.2647 52.3666 65.2647C52.4478 65.2647 52.5291 65.2647 52.6103 65.2647C54.0188 65.1834 55.2466 64.4341 56.0772 63.2063C56.1675 63.45 56.2577 63.6938 56.3751 63.9466C58.6773 69.0295 58.6954 69.9955 58.7134 69.9594C58.4697 70.9976 58.1537 71.8463 57.7384 72.3609C56.6008 73.7422 56.2397 75.2138 56.7272 76.4055C57.1245 77.3715 58.0273 78.0035 59.1919 78.1209C59.4718 78.148 59.7426 78.166 60.0135 78.166C64.2297 78.166 66.9201 74.6089 68.0215 67.5759C69.5473 57.8616 73.6641 55.7038 79.2977 53.7176C79.8304 53.528 80.0381 53.5461 80.0651 53.528C80.2367 54.0787 78.9908 56.4351 78.0789 58.1595C75.9844 62.1319 73.61 66.628 75.8309 68.4517C77.9796 70.2122 80.1374 67.9912 84.4348 63.5584C85.1661 62.8 85.9786 61.9694 86.8634 61.0756C89.2468 58.6651 90.7275 53.2933 92.1539 48.1021C93.4901 43.2449 94.8714 38.2252 96.8486 36.4196C97.1104 36.1758 97.4715 35.9952 97.9049 35.8688C98.907 35.589 100.803 34.5868 100.848 32.8624C100.929 29.6123 92.6776 20.4577 90.7365 19.7806V19.7715ZM55.8244 42.4594C59.2551 39.8322 62.7942 37.1147 64.4915 35.3362C66.0985 33.6479 68.5632 31.9686 71.2717 30.4158C76.815 27.2379 83.3604 24.6468 85.5182 23.8252C86.5745 24.7371 92.4789 29.9102 93.5443 33.1784C93.6165 33.3951 93.8151 33.5396 94.0318 33.5396C94.086 33.5396 94.1401 33.5396 94.1943 33.5125C94.4651 33.4222 94.6186 33.1333 94.5283 32.8624C93.454 29.5671 88.2086 24.8002 86.5293 23.3377C86.5384 23.3196 86.5564 23.3106 86.5655 23.3016C86.5835 23.2655 88.3621 20.1868 90.3573 20.882C91.8921 21.4147 99.7557 30.1359 99.6925 32.8444C99.6654 33.9368 98.1216 34.6229 97.5889 34.7764C96.975 34.948 96.4694 35.2188 96.0722 35.589C93.8512 37.6203 92.488 42.5678 91.0434 47.8132C89.6531 52.869 88.2176 58.0873 86.0418 60.2811C85.1571 61.1839 84.3445 62.0145 83.6042 62.7729C79.5325 66.962 77.8352 68.6322 76.5622 67.5759C75.0725 66.3481 77.4018 61.9333 79.0991 58.7102C80.8325 55.4239 81.7083 53.6634 80.9499 52.7877C80.4353 52.1918 79.5415 52.4175 78.9186 52.6433C73.0954 54.6927 68.509 57.0851 66.884 67.4134C65.2769 77.5972 60.7809 77.1368 59.3093 76.9923C58.578 76.9201 58.0273 76.55 57.7925 75.9902C57.4675 75.2048 57.7745 74.1575 58.6231 73.1102C59.1558 72.4692 59.544 71.4671 59.8329 70.2483C60.5552 67.1877 60.6364 62.6826 60.6364 58.4665V57.8706C60.6364 54.8461 66.4416 49.0049 68.6806 47.0097C68.9153 46.802 68.9424 46.4318 68.7257 46.1971C68.509 45.9624 68.1479 45.9353 67.9132 46.152C67.5701 46.4589 59.4898 53.7086 59.4898 57.8706V58.4755C59.4898 60.7325 59.4898 64.4251 59.1287 67.5127C58.6141 66.1675 57.937 64.6147 57.4314 63.4952C55.2285 58.638 57.6481 54.7649 59.2461 52.2009C59.3996 51.9481 59.553 51.7134 59.6885 51.4876C61.2774 48.8514 67.3354 42.9921 67.3986 42.9379C67.6243 42.7122 67.6333 42.3511 67.4166 42.1254C67.1999 41.8997 66.8298 41.8907 66.6041 42.1073C66.3513 42.3511 60.3746 48.1292 58.7134 50.8918C58.578 51.1085 58.4335 51.3432 58.2801 51.587C56.8987 53.7989 54.732 57.2928 55.6348 61.6354C55.057 63.116 53.9104 64.0549 52.5652 64.1362C51.7527 64.1994 51.0124 63.8834 50.7596 63.3959C50.3262 62.5562 50.4616 62.1861 51.211 60.5881C51.9423 59.0081 53.1791 56.3629 54.434 51.2349C55.5535 46.6756 65.8186 38.9294 65.927 38.8572C66.1798 38.6676 66.2339 38.3065 66.0443 38.0446C65.8547 37.7828 65.4936 37.7377 65.2318 37.9273C64.8165 38.2433 55.5355 45.2491 53.5764 50.1966C51.4547 51.605 48.6018 51.7495 47.5997 50.9098C47.374 50.7202 47.1031 50.3772 47.4462 49.6369C47.4733 49.5827 47.5184 49.5105 47.5636 49.4382C48.4032 48.1923 52.3485 45.1589 55.8605 42.4685L55.8244 42.4594Z" fill="#3E19A3"/>
<path d="M70.2515 36.88C70.423 36.88 70.5855 36.8078 70.7029 36.6633C73.9169 32.709 82.1507 28.8178 82.2409 28.7727C82.5298 28.6372 82.6562 28.2942 82.5208 28.0053C82.3854 27.7164 82.0423 27.59 81.7534 27.7254C81.4013 27.8879 73.1856 31.77 69.8091 35.932C69.6105 36.1758 69.6466 36.546 69.8903 36.7446C69.9987 36.8349 70.1251 36.871 70.2515 36.871V36.88Z" fill="#3E19A3"/>
<path d="M73.0682 40.1392C72.9959 40.4461 73.1855 40.7621 73.5015 40.8344C73.5467 40.8434 73.5918 40.8524 73.637 40.8524C73.8988 40.8524 74.1335 40.6718 74.1967 40.41C75.2259 36.0765 83.5319 30.6686 83.6131 30.6144C83.884 30.4429 83.9562 30.0817 83.7847 29.8199C83.6131 29.5491 83.252 29.4769 82.9902 29.6484C82.6291 29.8831 74.2057 35.3633 73.0772 40.1482L73.0682 40.1392Z" fill="#3E19A3"/>
<path d="M77.4379 45.1047C77.4379 45.1047 77.456 45.1047 77.465 45.1047C77.7719 45.1047 78.0247 44.8609 78.0428 44.554C78.2775 39.9676 85.2292 32.5103 85.3015 32.4291C85.5181 32.1944 85.5091 31.8332 85.2744 31.6165C85.0396 31.3999 84.6785 31.4089 84.4618 31.6436C84.1639 31.9596 77.149 39.4891 76.8872 44.4908C76.8691 44.8068 77.1129 45.0776 77.4379 45.0957V45.1047Z" fill="#3E19A3"/>
</g>
<defs>
<clipPath id="clip0_520_6873">
<rect width="61.1481" height="100.8" fill="white" transform="translate(39.7 19.6)"/>
</clipPath>
</defs>
</svg>
