<svg width="21" height="20" viewBox="0 0 21 20" fill="none" xmlns="http://www.w3.org/2000/svg">
<path fill-rule="evenodd" clip-rule="evenodd" d="M10.5007 2.49992C6.35852 2.49992 3.00065 5.85778 3.00065 9.99992C3.00065 14.1421 6.35852 17.4999 10.5007 17.4999C14.6428 17.4999 18.0007 14.1421 18.0007 9.99992C18.0007 5.85778 14.6428 2.49992 10.5007 2.49992ZM1.33398 9.99992C1.33398 4.93731 5.43804 0.833252 10.5007 0.833252C15.5633 0.833252 19.6673 4.93731 19.6673 9.99992C19.6673 15.0625 15.5633 19.1666 10.5007 19.1666C5.43804 19.1666 1.33398 15.0625 1.33398 9.99992ZM10.7158 6.68685C10.3278 6.62031 9.92885 6.69321 9.58952 6.89264C9.25018 7.09207 8.99238 7.40516 8.86176 7.77645C8.70904 8.21061 8.23327 8.43876 7.79912 8.28603C7.36496 8.1333 7.13681 7.65754 7.28954 7.22338C7.55077 6.48079 8.06638 5.85461 8.74505 5.45575C9.42371 5.05689 10.2216 4.91109 10.9975 5.04417C11.7734 5.17726 12.4771 5.58063 12.9841 6.18286C13.4909 6.78496 13.7684 7.54699 13.7673 8.33401C13.7669 9.60931 12.8214 10.4515 12.1462 10.9016C11.7832 11.1436 11.4261 11.3216 11.1631 11.4385C11.0303 11.4975 10.9186 11.5423 10.8381 11.5729C10.7977 11.5883 10.765 11.6002 10.7412 11.6087L10.7123 11.6188L10.7031 11.622L10.6998 11.623L10.6986 11.6235C10.6983 11.6236 10.6975 11.6238 10.434 10.8333L10.6975 11.6238C10.2609 11.7694 9.78896 11.5334 9.64342 11.0968C9.49792 10.6603 9.73369 10.1885 10.17 10.0428L10.1829 10.0383C10.1957 10.0337 10.2167 10.0261 10.2447 10.0155C10.3009 9.99404 10.3845 9.96068 10.4862 9.91549C10.6919 9.82407 10.9598 9.68953 11.2217 9.51488C11.7964 9.13177 12.1007 8.7242 12.1007 8.33325L12.1007 8.33201C12.1012 7.93841 11.9625 7.55731 11.709 7.25619C11.4556 6.95508 11.1037 6.75339 10.7158 6.68685ZM9.66732 14.1666C9.66732 13.7063 10.0404 13.3333 10.5007 13.3333H10.509C10.9692 13.3333 11.3423 13.7063 11.3423 14.1666C11.3423 14.6268 10.9692 14.9999 10.509 14.9999H10.5007C10.0404 14.9999 9.66732 14.6268 9.66732 14.1666Z" fill="black"/>
</svg>
