<svg xmlns="http://www.w3.org/2000/svg" width="24" height="24" viewBox="0 0 24 24" fill="none">
  <path fill-rule="evenodd" clip-rule="evenodd" d="M11.8979 3.05793C12.1831 2.98069 12.4838 2.98069 12.769 3.05793C13.1002 3.14758 13.379 3.36647 13.6015 3.54116C13.6227 3.55784 13.6434 3.57411 13.6637 3.58983L19.3156 7.98577C19.3373 8.00269 19.3589 8.01945 19.3803 8.03607C19.6942 8.27964 19.9707 8.49422 20.1767 8.7728C20.3576 9.01729 20.4923 9.29271 20.5742 9.58555C20.6676 9.91923 20.6673 10.2692 20.6668 10.6665C20.6668 10.6936 20.6668 10.721 20.6668 10.7485V16.8098C20.6668 17.249 20.6668 17.628 20.6413 17.9401C20.6144 18.2696 20.555 18.5973 20.3943 18.9126C20.1546 19.383 19.7722 19.7654 19.3018 20.0051C18.9864 20.1658 18.6588 20.2252 18.3293 20.2521C18.0172 20.2776 17.6382 20.2776 17.1989 20.2776H15.5001C15.4938 20.2776 15.4873 20.2776 15.4808 20.2776C15.3816 20.2777 15.263 20.2777 15.1586 20.2692C15.0376 20.2593 14.8642 20.2339 14.6826 20.1414C14.4474 20.0215 14.2562 19.8303 14.1364 19.5951C14.0438 19.4135 14.0184 19.2402 14.0086 19.1191C14 19.0147 14.0001 18.8962 14.0001 18.7969L14.0001 13.2776C14.0001 13.0305 13.9995 12.8953 13.9915 12.7981C13.9912 12.7943 13.9909 12.7906 13.9906 12.7872C13.9871 12.7868 13.9835 12.7865 13.9796 12.7862C13.8824 12.7783 13.7472 12.7776 13.5001 12.7776H11.1668C10.9197 12.7776 10.7845 12.7783 10.6873 12.7862C10.6834 12.7865 10.6798 12.7868 10.6763 12.7872C10.676 12.7906 10.6757 12.7943 10.6754 12.7981C10.6674 12.8953 10.6668 13.0305 10.6668 13.2776L10.6668 18.7969C10.6668 18.8962 10.6669 19.0147 10.6583 19.1191C10.6485 19.2402 10.6231 19.4135 10.5305 19.5951C10.4107 19.8303 10.2195 20.0215 9.98427 20.1414C9.80265 20.2339 9.62932 20.2593 9.50831 20.2692C9.40388 20.2777 9.28534 20.2777 9.18607 20.2776C9.17956 20.2776 9.17312 20.2776 9.16678 20.2776H7.46798C7.02869 20.2776 6.64973 20.2776 6.33759 20.2521C6.00814 20.2252 5.68046 20.1658 5.36514 20.0051C4.89473 19.7654 4.51228 19.383 4.2726 18.9126C4.11194 18.5973 4.05251 18.2696 4.02559 17.9401C4.00009 17.628 4.0001 17.249 4.00012 16.8097L4.00012 10.7485C4.00012 10.7209 4.00009 10.6936 4.00006 10.6665C3.99963 10.2692 3.99925 9.91923 4.09265 9.58555C4.17462 9.29271 4.30932 9.01729 4.49015 8.7728C4.6962 8.49422 4.97271 8.27963 5.28657 8.03606C5.30799 8.01944 5.32957 8.00269 5.35132 7.98577L11.0032 3.58983C11.0235 3.57411 11.0442 3.55784 11.0654 3.54116C11.2879 3.36646 11.5667 3.14758 11.8979 3.05793ZM12.3274 4.6789C12.2647 4.72074 12.1822 4.78428 12.0265 4.90542L6.37456 9.30136C5.9595 9.62418 5.8822 9.69347 5.83013 9.76388C5.76985 9.84538 5.72495 9.93718 5.69763 10.0348C5.67402 10.1191 5.66678 10.2227 5.66678 10.7485V16.7776C5.66678 17.2581 5.66743 17.5683 5.68672 17.8044C5.70522 18.0308 5.73662 18.1147 5.75761 18.1559C5.83751 18.3127 5.96499 18.4402 6.12179 18.5201C6.16299 18.5411 6.24693 18.5725 6.47331 18.591C6.70943 18.6103 7.01965 18.6109 7.50012 18.6109H9.00012L9.00011 13.251C9.00009 13.0407 9.00006 12.8359 9.01424 12.6624C9.0298 12.4719 9.06652 12.2472 9.18177 12.021C9.34156 11.7074 9.59653 11.4524 9.91013 11.2926C10.1363 11.1774 10.3611 11.1406 10.5516 11.1251C10.7251 11.1109 10.9299 11.1109 11.1402 11.1109H13.5267C13.737 11.1109 13.9418 11.1109 14.1153 11.1251C14.3058 11.1406 14.5306 11.1774 14.7568 11.2926C15.0704 11.4524 15.3253 11.7074 15.4851 12.021C15.6004 12.2472 15.6371 12.4719 15.6527 12.6624C15.6668 12.8359 15.6668 13.0407 15.6668 13.251L15.6668 18.6109H17.1668C17.6472 18.6109 17.9575 18.6103 18.1936 18.591C18.42 18.5725 18.5039 18.5411 18.5451 18.5201C18.7019 18.4402 18.8294 18.3127 18.9093 18.1559C18.9303 18.1147 18.9617 18.0308 18.9802 17.8044C18.9995 17.5683 19.0001 17.2581 19.0001 16.7776V10.7485C19.0001 10.2227 18.9929 10.1191 18.9693 10.0348C18.9419 9.93718 18.897 9.84538 18.8368 9.76388C18.7847 9.69347 18.7074 9.62419 18.2923 9.30136L12.6404 4.90542C12.4847 4.78428 12.4022 4.72074 12.3395 4.6789C12.3374 4.67748 12.3354 4.67614 12.3334 4.67487C12.3315 4.67614 12.3295 4.67748 12.3274 4.6789Z" fill="#222222"/>
</svg>