<svg width="198" height="200" viewBox="0 0 198 200" fill="none" xmlns="http://www.w3.org/2000/svg">
<g id="Layer_1" clip-path="url(#clip0_3740_10899)">
<g id="Group">
<path id="Vector" d="M83.3868 160.973C64.672 152.328 47.2814 148.469 33.09 149.809C18.84 151.152 7.84386 157.762 1.29308 168.914C1.1837 169.102 0.945421 169.164 0.757921 169.055C0.570421 168.945 0.507921 168.707 0.617296 168.519C7.30089 157.141 18.504 150.402 33.0157 149.031C47.3439 147.68 64.8751 151.562 83.715 160.266C102.543 168.961 117.094 171.141 126.965 166.738C127.16 166.648 127.395 166.738 127.481 166.937C127.57 167.133 127.481 167.367 127.281 167.453C114.371 173.211 96.2462 166.918 83.3829 160.977L83.3868 160.973Z" fill="#BDA5FF"/>
<path id="Vector_2" d="M48.8167 161.863C48.6956 161.688 48.7386 161.442 48.9144 161.321C52.9613 158.52 55.3285 161.367 55.3519 161.399C55.4886 161.567 55.4613 161.813 55.2933 161.949C55.1253 162.086 54.8792 162.059 54.7464 161.891C54.6644 161.789 52.7894 159.59 49.3597 161.965C49.18 162.09 48.9378 162.043 48.8167 161.867V161.863Z" fill="#BDA5FF"/>
<path id="Vector_3" d="M19.7894 160.696C19.6683 160.52 19.7113 160.274 19.8871 160.153C23.9339 157.352 26.3011 160.199 26.3246 160.231C26.4613 160.399 26.4339 160.645 26.266 160.781C26.098 160.918 25.8519 160.891 25.7191 160.723C25.641 160.629 23.766 158.418 20.3324 160.797C20.1527 160.922 19.9105 160.875 19.7894 160.699V160.696Z" fill="#BDA5FF"/>
<path id="Vector_4" d="M87.0667 180.406C86.9456 180.23 86.9886 179.984 87.1644 179.863C91.2113 177.059 93.5785 179.91 93.6019 179.941C93.7386 180.109 93.7113 180.355 93.5433 180.492C93.3753 180.625 93.1292 180.602 92.9964 180.434C92.9183 180.34 91.0433 178.129 87.6097 180.508C87.43 180.633 87.1878 180.586 87.0667 180.41V180.406Z" fill="#BDA5FF"/>
<path id="Vector_5" d="M34.2542 173.153C34.1331 172.977 34.1761 172.731 34.3519 172.61C38.3988 169.809 40.766 172.656 40.7894 172.688C40.9261 172.856 40.8988 173.102 40.7308 173.238C40.5628 173.375 40.3167 173.348 40.1839 173.18C40.1058 173.086 38.2308 170.875 34.7972 173.254C34.6175 173.379 34.3753 173.332 34.2542 173.156V173.153Z" fill="#BDA5FF"/>
<path id="Vector_6" d="M74.18 167.922C74.0589 167.746 74.1019 167.5 74.2777 167.379C78.3246 164.574 80.6917 167.426 80.7152 167.457C80.8519 167.625 80.8245 167.871 80.6566 168.008C80.4886 168.141 80.2425 168.117 80.1097 167.949C80.0316 167.855 78.1566 165.645 74.723 168.023C74.5433 168.148 74.3011 168.102 74.18 167.926V167.922Z" fill="#BDA5FF"/>
<path id="Vector_7" d="M16.7893 173.89C16.2229 172.761 15.2112 172.48 13.9338 173.976C13.7932 174.14 13.5471 174.16 13.383 174.019C13.219 173.878 13.1994 173.632 13.3401 173.468C15.0471 171.472 16.7502 172 17.4924 173.554C17.5862 173.75 17.5041 173.984 17.3088 174.074C17.1174 174.168 16.883 174.086 16.7893 173.89Z" fill="#BDA5FF"/>
<path id="Vector_8" d="M126.813 179.141C126.692 178.965 126.735 178.719 126.91 178.598C130.957 175.797 133.325 178.645 133.348 178.676C133.485 178.844 133.457 179.09 133.289 179.227C133.121 179.363 132.875 179.336 132.743 179.168C132.66 179.067 130.785 176.867 127.356 179.242C127.176 179.367 126.934 179.321 126.813 179.145V179.141Z" fill="#BDA5FF"/>
</g>
<g id="Group_2">
<path id="Vector_9" d="M118.09 47.5974C118.09 47.5974 115.734 41.7341 112.465 41.281C109.934 40.9294 113.266 47.5974 113.266 47.5974H118.09Z" fill="#FCBBA4"/>
<path id="Vector_10" d="M10.8129 138.214C16.0746 140.558 16.9848 133.308 18.0902 130.992C18.7973 129.519 20.9691 128.015 24.3676 129.187C26.3637 129.874 26.1371 124.624 25.6019 120.16C25.2309 117.011 24.7035 114.257 24.7035 114.257C24.7035 114.257 18.3441 112.968 17.016 112.691C14.5238 112.163 9.97304 111.011 9.7621 113.335C9.30117 118.46 8.8871 137.355 10.809 138.21L10.8129 138.214Z" fill="#ED745F"/>
<path id="Vector_11" d="M17.0195 112.695C17.4063 120.773 22.1406 125.336 22.1406 125.336C24.0859 124.078 25.125 122.223 25.6016 120.164C25.2305 117.016 24.7031 114.262 24.7031 114.262C24.7031 114.262 18.3438 112.973 17.0156 112.695H17.0195Z" fill="#E64B38"/>
<path id="Vector_12" d="M11.8049 129.188H11.7932C11.5784 129.18 11.4065 129 11.4143 128.785L11.8323 113.914C11.8401 113.699 12.0081 113.528 12.2346 113.535C12.4495 113.543 12.6213 113.723 12.6135 113.938L12.1956 128.809C12.1878 129.02 12.0159 129.188 11.8049 129.188Z" fill="#112544"/>
<path id="Vector_13" d="M19.4024 129.972L18.2539 128.793C18.1055 128.636 18.1055 128.39 18.2617 128.242C18.418 128.089 18.6641 128.093 18.8125 128.25L19.961 129.429C20.1094 129.585 20.1094 129.832 19.9531 129.98C19.7969 130.132 19.5508 130.128 19.4024 129.972Z" fill="#112544"/>
<path id="Vector_14" d="M18.5743 131.296L17.4258 130.117C17.2735 129.96 17.2774 129.714 17.4336 129.566C17.5899 129.414 17.836 129.418 17.9844 129.574L19.1329 130.753C19.2852 130.91 19.2813 131.156 19.125 131.304C18.9727 131.453 18.7227 131.453 18.5743 131.296Z" fill="#112544"/>
<path id="Vector_15" d="M17.7461 132.617L16.5977 131.437C16.4454 131.281 16.4493 131.035 16.6055 130.886C16.7618 130.734 17.0079 130.738 17.1563 130.894L18.3047 132.074C18.4571 132.23 18.4532 132.476 18.2969 132.625C18.1446 132.773 17.8946 132.773 17.7461 132.617Z" fill="#112544"/>
<path id="Vector_16" d="M12.0432 137.547C11.8284 137.539 11.6604 137.355 11.6682 137.14C11.7932 134.32 13.762 133.726 15.7854 134.89C15.9729 134.996 16.0354 135.234 15.9299 135.422C15.8245 135.609 15.5862 135.672 15.3987 135.566C13.7737 134.644 12.5432 135.039 12.4495 137.172C12.4417 137.394 12.2464 137.558 12.0432 137.547Z" fill="#112544"/>
<path id="Vector_17" d="M56.254 199.566C59.5275 194.828 52.5704 192.594 50.5001 191.078C49.1837 190.113 48.1095 187.699 49.8868 184.578C50.9298 182.742 45.7306 181.996 41.2462 181.695C38.0821 181.481 35.2814 181.488 35.2814 181.488C35.2814 181.488 32.8399 187.5 32.3243 188.754C31.3478 191.109 29.3712 195.367 31.6212 196.004C36.5743 197.406 55.0665 201.301 56.2618 199.57L56.254 199.566Z" fill="#ED745F"/>
<path id="Vector_18" d="M32.3203 188.75C40.332 189.859 45.6875 186.051 45.6875 186.051C44.8125 183.906 43.1758 182.543 41.2461 181.695C38.082 181.481 35.2812 181.488 35.2812 181.488C35.2812 181.488 32.8398 187.5 32.3242 188.754L32.3203 188.75Z" fill="#E64B38"/>
<path id="Vector_19" d="M47.0978 197.234L32.5587 194.073C32.3478 194.027 32.215 193.82 32.2619 193.609C32.3087 193.398 32.5158 193.265 32.7267 193.308L47.2658 196.468C47.4767 196.515 47.6095 196.722 47.5626 196.933C47.5158 197.148 47.3048 197.277 47.0978 197.234Z" fill="#112544"/>
<path id="Vector_20" d="M47.8282 190.402C47.7071 190.222 47.7579 189.98 47.9376 189.859L49.3087 188.949C49.4884 188.828 49.7306 188.879 49.8516 189.058C49.9727 189.238 49.922 189.48 49.7423 189.601L48.3712 190.511C48.1915 190.629 47.9493 190.582 47.8282 190.402Z" fill="#112544"/>
<path id="Vector_21" d="M48.9766 191.461C48.8556 191.281 48.9063 191.039 49.086 190.918L50.4571 190.007C50.6368 189.886 50.879 189.937 51.0001 190.117C51.1212 190.296 51.0704 190.539 50.8907 190.66L49.5196 191.57C49.3399 191.687 49.0977 191.64 48.9766 191.461Z" fill="#112544"/>
<path id="Vector_22" d="M50.1251 192.519C50.004 192.339 50.0548 192.097 50.2345 191.976L51.6056 191.066C51.7852 190.945 52.0274 190.996 52.1485 191.175C52.2696 191.355 52.2188 191.597 52.0391 191.718L50.6681 192.629C50.4884 192.746 50.2462 192.699 50.1251 192.519Z" fill="#112544"/>
<path id="Vector_23" d="M55.3554 198.528C52.6093 197.887 52.3906 195.844 53.9062 194.063C54.0468 193.899 54.2929 193.879 54.457 194.02C54.621 194.16 54.6406 194.406 54.5039 194.571C53.3007 195.992 53.4531 197.281 55.5351 197.766C55.746 197.817 55.875 198.024 55.8281 198.235C55.7812 198.442 55.5742 198.574 55.3593 198.528H55.3554Z" fill="#112544"/>
<path id="Vector_24" d="M111.555 56.867C111.555 56.867 91.793 70.8084 79.9375 70.3553C79.8516 70.3553 79.7617 70.3475 79.6758 70.3436C62.0273 69.4412 51.9375 45.7186 51.9375 45.7186L48.6016 31.203C48.6016 31.203 66.457 28.578 85.3359 52.0467C89.7969 49.3475 94.6992 47.2733 99.9414 45.6991C102.445 44.9412 105.027 44.2967 107.676 43.7498C107.453 48.6209 108.723 53.0037 111.559 56.867H111.555Z" fill="#875CFF"/>
<path id="Vector_25" d="M111.555 56.8672C111.555 56.8672 91.793 70.8086 79.9375 70.3555C79.8516 70.3555 79.7617 70.3477 79.6758 70.3438C80.0859 69.6914 80.7188 69.168 81.4063 68.8086C82.4023 68.2891 83.5234 68.0586 84.6172 67.8047C89.0312 66.7773 93.3281 65.2422 97.3906 63.2383C98.7852 62.5508 100.18 61.7852 101.262 60.668C102.344 59.543 103.086 58 102.91 56.4531C102.664 54.3164 100.836 52.7422 99.9492 50.7852C99.1562 49.0273 99.2695 47.2695 99.9453 45.6953C102.449 44.9375 105.031 44.293 107.68 43.7461C107.457 48.6172 108.727 53 111.563 56.8633L111.555 56.8672Z" fill="#875CFF"/>
<path id="Vector_26" d="M85.3945 130.371C73.6289 139.375 25.7852 132.301 24.375 132.09C24.3555 132.086 24.3438 132.086 24.3438 132.086C21.1953 132.086 21.1953 111.246 24.3438 111.246L59.7422 109.18C52.1875 98.2344 47.9961 87.7266 46.6055 76.2656H71.1328C71.1328 76.2656 71.4609 76.8008 72.0312 77.7617C76.6367 85.5508 96.9609 121.52 85.3984 130.371H85.3945Z" fill="#FF2EAA"/>
<path id="Vector_27" d="M71.5156 123.527C68.9531 125.988 65.3672 127.016 61.8984 127.789C52.1328 129.961 42.0586 130.766 32.0664 130.168C29.9023 130.035 27.5742 129.875 25.7148 130.996C25.2148 131.297 24.7812 131.668 24.375 132.09C24.3555 132.086 24.3437 132.086 24.3437 132.086C21.1953 132.086 21.1953 111.246 24.3437 111.246L59.7422 109.18C52.1875 98.2344 47.9961 87.7266 46.6055 76.2656H71.1328C71.1328 76.2656 71.4609 76.8008 72.0312 77.7617C69.2461 77.7266 66.168 79.9258 65.293 83.0781C64.543 85.7773 65.4023 88.6523 66.5078 91.2227C68.8281 96.6094 72.293 101.488 74.1172 107.062C75.9414 112.633 75.7422 119.465 71.5156 123.523V123.527Z" fill="#FF5CBD"/>
<path id="Vector_28" d="M28.6526 76.2656C28.6526 76.2656 23.719 104.324 39.3127 126.117C44.2307 132.988 30.5471 182.301 30.5471 182.301C30.2112 186.242 54.1409 188.281 55.4417 183.812C55.4417 183.812 69.1956 139.992 69.4768 126.016C69.7542 112.176 53.9885 76.2656 53.9885 76.2656H28.6526Z" fill="#FF2EAA"/>
<path id="Vector_29" d="M68.3828 135.324C68.3594 135.324 68.3359 135.324 68.3125 135.316C68.1016 135.277 67.9609 135.074 67.9961 134.863C68.6758 131.117 69.043 128.137 69.0859 126.008C69.3594 112.414 53.7852 76.7813 53.6289 76.4219C53.543 76.2227 53.6289 75.9922 53.8281 75.9063C54.0273 75.8203 54.2578 75.9063 54.3437 76.1055C54.9883 77.5742 70.1406 112.254 69.8672 126.02C69.8242 128.187 69.4531 131.207 68.7656 134.996C68.7305 135.184 68.5664 135.316 68.3828 135.316V135.324Z" fill="#112544"/>
<path id="Vector_30" d="M28.3242 84.5859C20.7382 86.9219 8.84369 41.7031 27.8007 35.6406C40.4765 31.5781 47.9726 30.3125 52.8515 31.8281C61.7734 34.6016 60.3984 54.6406 71.9804 74.1836C75.3945 79.9453 45.457 79.3164 28.3242 84.5859Z" fill="#875CFF"/>
<path id="Vector_31" d="M71.7773 76.0705C68.1055 79.8791 43.3203 79.9729 28.3203 84.5861C24.4258 85.7854 19.3906 74.4416 17.9883 62.301C19.6641 61.2424 21.7109 60.5041 22.7773 61.6291C23.4844 62.3791 23.6953 64.3791 24.3789 65.3596C27 69.1213 31.4883 70.6057 35.9219 71.6721C44.5508 73.7346 53.4766 74.5822 62.3437 74.1799C65.7266 74.0236 69.2148 73.7619 71.7812 76.0744L71.7773 76.0705Z" fill="#875CFF"/>
<path id="Vector_32" d="M27.9493 84.6991C27.8868 84.492 28.0001 84.2733 28.2071 84.2108C44.6407 79.1561 74.5704 79.328 71.6407 74.3827C66.2462 65.2811 63.6329 56.0116 61.5313 48.5663C60.586 45.2108 59.7696 42.3123 58.8282 39.8241C58.754 39.6209 58.8555 39.3983 59.0548 39.3202C59.2579 39.2459 59.4805 39.3436 59.5587 39.5467C60.5079 42.0663 61.3712 45.117 62.2813 48.3514C64.3712 55.7538 66.9688 64.9686 72.3126 73.9803C76.1876 80.5194 46.0704 79.5272 28.4376 84.953C28.2344 85.0155 28.0118 84.9022 27.9493 84.6952V84.6991Z" fill="#112544"/>
<path id="Vector_33" d="M44.7656 26.7891L46.5469 31.6953C48.5234 37.1445 31.8398 38.8398 31.543 32.8711L31.0625 21.1758L30.5039 18.5859C32.1875 17.7227 28.7656 14.4531 28.3984 12.5703C29.3086 11.5 34.0352 11.3906 33.6055 9.9375C33.4961 9.57422 33.3477 9.24219 33.1602 8.93359C33.5703 8.90234 33.9883 8.83203 34.4023 8.70703C35.6055 8.34766 36.5703 7.65625 37.1367 6.84375C37.7305 7.49609 38.6602 7.79297 39.5625 7.52344C40.0195 7.38672 40.4141 7.12109 40.6992 6.77734C40.7305 6.81641 46.1133 13.6797 47.6797 16.2344C52.5391 24.1992 44.7695 26.7891 44.7695 26.7891H44.7656Z" fill="#FCBBA4"/>
<path id="Vector_34" d="M37.1645 27.1441C39.2699 29.0035 44.0629 30.3199 45.852 29.773L44.766 26.7808C42.6879 27.2574 40.1879 27.1011 37.4496 26.5777C37.1215 26.5152 36.9145 26.9253 37.1645 27.148V27.1441Z" fill="#E2805D"/>
<path id="Vector_35" d="M31.4378 3.52711C31.8558 2.22632 33.5472 0.757574 34.9573 0.339606C41.5081 -1.60571 41.2425 5.44898 41.2308 5.54273C42.0042 5.3982 42.5355 6.17164 42.8362 6.71851C43.4573 7.83961 43.4222 9.16382 42.4925 9.11695L40.6917 6.78101C41.848 14.3591 28.7308 7.3982 31.0589 21.1716L31.1644 23.7771C30.6448 23.7849 30.1409 23.6912 29.6644 23.5193C28.4261 23.074 27.4105 22.0662 27.0042 20.7029C26.8089 20.0466 26.7777 19.3748 26.8948 18.7341C25.7347 18.2576 20.5277 14.3084 26.2737 10.0701C23.5628 7.80054 26.1214 4.56617 28.3206 3.90992C29.1566 3.65992 30.6566 3.29273 31.4339 3.52711H31.4378Z" fill="#112544"/>
<path id="Vector_36" d="M31.4611 34.113C31.3674 33.9177 31.4494 33.6833 31.6447 33.5935C31.84 33.4998 32.0744 33.5818 32.1643 33.7771C34.2541 38.1443 47.801 36.2654 46.1799 31.8318L45.5393 30.0662C45.465 29.863 45.5705 29.6404 45.7736 29.5662C45.9768 29.4958 46.1994 29.5974 46.2736 29.8005L46.9143 31.5662C48.9338 37.0974 33.926 39.2732 31.4572 34.1169L31.4611 34.113Z" fill="#112544"/>
<path id="Vector_37" d="M38.5275 15.199C38.6525 15.5544 38.465 15.9451 38.1095 16.074C37.7541 16.199 37.3635 16.0115 37.2345 15.656C37.1095 15.3005 37.297 14.9099 37.6525 14.781C38.008 14.6521 38.3986 14.8435 38.5275 15.199Z" fill="#112544"/>
<path id="Vector_38" d="M38.1095 12.773C38.5939 12.6324 38.7736 12.9566 38.383 13.2808C37.6095 13.9253 36.6447 14.5113 35.6603 14.7613C35.2228 14.8706 35.0002 14.5542 35.297 14.2144C35.7853 13.6558 37.3166 13.0074 38.1134 12.773H38.1095Z" fill="#112544"/>
<path id="Vector_39" d="M43.4218 12.832C43.5312 13.1953 43.3242 13.5742 42.9609 13.6835C42.5976 13.7929 42.2187 13.5859 42.1093 13.2226C41.9999 12.8593 42.207 12.4804 42.5703 12.371C42.9335 12.2617 43.3124 12.4687 43.4218 12.832Z" fill="#112544"/>
<path id="Vector_40" d="M40.3437 11.7419C39.9492 12.0544 40.1132 12.3903 40.6015 12.2575C41.5742 11.9958 42.6093 11.5466 43.3828 10.8864C43.7265 10.5935 43.5937 10.2302 43.1445 10.2771C42.4062 10.3552 40.9922 11.2341 40.3437 11.7458V11.7419Z" fill="#112544"/>
<path id="Vector_41" d="M33.5941 14.8749C34.0863 16.5351 33.141 18.2812 31.4809 18.7733C29.8246 19.2655 28.0746 18.3202 27.5824 16.6601C27.0902 15.0038 28.0355 13.2538 29.6957 12.7616C31.3559 12.2694 33.102 13.2147 33.5941 14.8749Z" fill="#112544"/>
<path id="Vector_42" d="M33.1055 19.543C33.5039 20.8789 32.7422 22.2852 31.4023 22.6836C30.0664 23.082 28.6602 22.3203 28.2617 20.9805C27.8633 19.6445 28.6289 18.2383 29.9648 17.8398C31.3008 17.4414 32.707 18.207 33.1055 19.543Z" fill="#FCBBA4"/>
<path id="Vector_43" d="M41.5236 17.57C41.5041 17.3551 41.6603 17.1637 41.8752 17.1442C42.2111 17.1129 42.5939 16.984 42.6525 16.8864C42.6837 16.3239 41.383 15.0895 40.4923 14.4372C40.3166 14.3083 40.2814 14.0661 40.4064 13.8903C40.5353 13.7145 40.7775 13.6794 40.9533 13.8044C41.3791 14.1169 43.5002 15.734 43.4259 16.9528C43.3752 17.7497 42.1838 17.8981 41.9455 17.9215C41.7306 17.9411 41.5392 17.7848 41.5197 17.57H41.5236Z" fill="#E2805D"/>
<path id="Vector_44" d="M43.1175 22.4688C42.0355 22.4688 41.1839 22.1836 41.1644 22.1758C40.9613 22.1055 40.8519 21.8828 40.9222 21.6797C40.9925 21.4766 41.2152 21.3672 41.4183 21.4375C41.5667 21.4883 45.0472 22.6484 46.3519 19.6992C46.4378 19.5 46.6683 19.4141 46.8675 19.5C47.0667 19.5859 47.1527 19.8164 47.0667 20.0156C46.18 22.0195 44.4691 22.4688 43.1175 22.4688Z" fill="#E2805D"/>
<path id="Vector_45" d="M30.9417 20.7693L30.1644 20.4841C29.9613 20.4099 29.8558 20.1873 29.93 19.9841C30.0042 19.781 30.2269 19.6794 30.43 19.7498L31.2074 20.0349C31.4105 20.1091 31.516 20.3318 31.4417 20.5349C31.3675 20.7341 31.1449 20.8396 30.9417 20.7693Z" fill="#E2805D"/>
<path id="Vector_46" d="M193.594 33.1249C183.656 9.32022 156.297 -1.92198 132.489 8.01552C108.68 17.9569 97.4416 45.3124 107.383 69.1171C117.321 92.9218 144.676 104.168 168.485 94.2304C192.289 84.2929 203.535 56.9296 193.594 33.1249ZM115.121 65.8866C106.965 46.3554 116.192 23.9101 135.723 15.7538C155.254 7.59756 177.699 16.8241 185.856 36.3554C194.012 55.8866 184.785 78.3319 165.254 86.4882C145.723 94.6444 123.278 85.4179 115.121 65.8866Z" fill="white"/>
<path id="Vector_47" d="M193.594 33.1289C192.535 30.5937 191.273 28.1953 189.848 25.9531C202.523 50.2656 191.621 80.1367 166.426 90.6562C145.156 99.5352 121.07 91.5117 109.078 72.7344C120.164 94.0391 145.918 103.648 168.484 94.2266C192.293 84.2891 203.535 56.9297 193.594 33.125V33.1289Z" fill="#E1E5FF"/>
<path id="Vector_48" d="M108.914 72.4258L20.3439 109.457C18.4923 110.23 16.3634 109.355 15.59 107.504C14.8205 105.664 15.6837 103.527 17.547 102.75L106.113 65.7148C106.902 68.1016 107.844 70.3125 108.918 72.4258H108.914Z" fill="white"/>
<path id="Vector_49" d="M107.024 69.2693C96.9924 45.2459 108.313 17.6873 132.34 7.65604C156.309 -2.35177 183.949 9.0076 193.957 32.9764C203.965 56.9451 192.606 84.5857 168.637 94.5935C144.668 104.601 117.031 93.2381 107.024 69.2732V69.2693ZM132.641 8.3787C109.016 18.242 97.8791 45.3435 107.746 68.9725C117.586 92.5428 144.766 103.715 168.336 93.8748C191.906 84.035 203.078 56.8514 193.235 33.281C183.434 9.80057 156.41 -1.54708 132.641 8.3787ZM114.762 66.0428C106.52 46.2967 115.824 23.6443 135.574 15.3982C155.321 7.15604 177.973 16.4607 186.219 36.2107C194.446 55.9099 185.11 78.6287 165.406 86.8553C145.5 95.1678 122.942 85.6326 114.762 66.0428ZM135.875 16.1209C116.574 24.1795 107.426 46.4412 115.485 65.742C123.563 85.0896 145.758 94.2107 165.106 86.1326C184.406 78.074 193.555 55.8123 185.496 36.5115C177.469 17.2849 155.344 7.99198 135.875 16.1209Z" fill="#112544"/>
<path id="Vector_50" d="M17.3945 102.386L105.961 65.3508C106.168 65.261 106.41 65.3704 106.484 65.5891C107.215 67.7962 108.125 69.9993 109.266 72.2454C109.316 72.343 109.32 72.4563 109.285 72.5579C109.168 72.8743 112.914 71.1243 20.5 109.816C15.6171 111.855 12.4882 104.437 17.3984 102.386H17.3945ZM105.875 66.2337L17.6953 103.109C13.7148 104.769 16.289 110.73 20.1953 109.097L108.379 72.2258C107.426 70.3118 106.598 68.3587 105.875 66.2337Z" fill="#112544"/>
<g id="Group_3">
<path id="Vector_51" d="M175.105 37.1055V41.7305H125.871V37.1055C125.871 36.4336 126.414 35.8906 127.086 35.8906H131.488V33.9297C131.488 33.2578 132.031 32.7148 132.703 32.7148H138.867C139.168 32.7148 139.457 32.8242 139.68 33.0273L142.859 35.8906H173.883C174.555 35.8906 175.098 36.4336 175.098 37.1055H175.105Z" fill="#FFC25E"/>
<path id="Vector_52" d="M175.105 37.1094V41.7344H125.871V39.7461H169.496C171.625 39.7461 173.352 38.0195 173.352 35.8906H173.891C174.562 35.8906 175.105 36.4336 175.105 37.1055V37.1094Z" fill="#EFA130"/>
<path id="Vector_53" d="M175.105 42.125H125.871C125.656 42.125 125.48 41.9492 125.48 41.7344V37.1094C125.48 36.2227 126.203 35.5039 127.086 35.5039H131.098V33.9336C131.098 33.0469 131.82 32.3281 132.703 32.3281H138.867C139.266 32.3281 139.648 32.4766 139.941 32.7422L143.012 35.5078H173.887C174.773 35.5078 175.492 36.2305 175.492 37.1133V41.7383C175.492 41.9531 175.316 42.1289 175.102 42.1289L175.105 42.125ZM126.262 41.3437H174.715V37.1094C174.715 36.6562 174.344 36.2852 173.891 36.2852C140.789 36.2461 142.82 36.375 142.605 36.1836L139.426 33.3203C139.273 33.1836 139.078 33.1094 138.875 33.1094H132.711C132.254 33.1094 131.887 33.4805 131.887 33.9336V35.8945C131.887 36.1094 131.711 36.2852 131.496 36.2852H127.094C126.637 36.2852 126.27 36.6562 126.27 37.1094V41.3437H126.262Z" fill="#112544"/>
<path id="Vector_54" d="M179.125 43.0938L170.657 68.8242C170.516 69.25 170.121 69.5352 169.672 69.5352H131.305C130.856 69.5352 130.461 69.2461 130.321 68.8242L129.395 66.0156L121.848 43.0938C121.625 42.4258 122.125 41.7344 122.828 41.7344H178.141C178.844 41.7344 179.344 42.4219 179.125 43.0938Z" fill="white"/>
<path id="Vector_55" d="M179.125 43.0938L170.656 68.8242C170.516 69.25 170.121 69.5352 169.672 69.5352H131.305C130.855 69.5352 130.461 69.2461 130.32 68.8242L129.395 66.0156C129.836 65.875 130.285 65.7656 130.719 65.6836C139.621 63.9687 149.051 65.6016 157.703 62.8945C166.387 60.1797 173.672 52.8125 176.25 43.7148C176.473 42.9297 176.562 42.2734 177.07 41.7383H178.145C178.848 41.7383 179.348 42.4258 179.129 43.0977L179.125 43.0938Z" fill="#E1E5FF"/>
<path id="Vector_56" d="M169.672 69.9258H131.305C130.688 69.9258 130.145 69.5313 129.949 68.9453L121.477 43.2148C121.172 42.293 121.86 41.3438 122.832 41.3438H178.145C179.117 41.3438 179.805 42.293 179.5 43.2148L171.028 68.9453C170.836 69.5313 170.289 69.9258 169.672 69.9258ZM122.832 42.125C122.395 42.125 122.082 42.5547 122.219 42.9727L130.692 68.7031C130.778 68.9688 131.024 69.1445 131.305 69.1445H169.672C169.949 69.1445 170.196 68.9648 170.285 68.7031L178.758 42.9727C178.895 42.5547 178.586 42.125 178.145 42.125H122.832Z" fill="#112544"/>
</g>
<path id="Vector_57" d="M37 91.5391C37 91.5391 44.5664 93.1172 44.5703 95.6328C44.5703 97.3555 40.9336 96.6797 40.9336 96.6797C40.9336 96.6797 46.6602 99.3672 45.8281 101.398C45.4453 102.336 43.6367 102.508 42.3008 101.133C42.7812 101.926 43.4961 102.672 43.3711 103.16C43.1055 104.176 41.4336 104.098 39.8945 102.359C40.2031 102.945 40.3281 103.457 40.207 103.914C39.9414 104.93 38.1328 104.609 36.5508 102.762C36.7344 103.168 37.5195 104.227 37.1641 104.848C36.6289 105.777 34.4766 104.809 32.5859 102.168L30.2422 98.7461C32.9297 95.375 33.4453 92.2539 37.0039 91.5352L37 91.5391Z" fill="#FCBBA4"/>
<path id="Vector_58" d="M31.0627 101.133C31.0627 101.133 10.6369 89.9687 4.72284 77.2969C3.66424 75.0312 3.0744 72.7188 3.14081 70.418C3.85956 46.3906 26.715 36.0742 26.715 36.0742L30.2189 44.1211C30.2189 44.1211 39.3752 54.6289 19.5119 70.5312C19.5119 70.5312 27.8596 77.2109 35.84 88.0351C36.7658 89.2891 37.6799 90.5977 38.5822 91.957C36.0119 93.2383 30.6017 97.3398 31.0627 101.133Z" fill="#875CFF"/>
<path id="Vector_59" d="M31.0625 101.133C31.0625 101.133 10.6367 89.9687 4.72266 77.2969C5.53516 77.4844 6.32812 77.793 7.05859 78.1953C8.9375 79.2305 10.4609 80.793 11.9609 82.3281C15.8789 86.3555 19.8008 90.3828 23.7187 94.4102C24.4648 95.1758 25.2227 95.9492 26.168 96.4531C27.1133 96.9531 28.2812 97.1445 29.2461 96.6914C30.2969 96.1953 30.8906 95.0625 31.2266 93.957C31.5625 92.8477 31.7266 91.6719 32.2617 90.6445C32.9688 89.2852 34.3359 88.3008 35.8398 88.0312C36.7656 89.2852 37.6797 90.5937 38.582 91.9531C36.0117 93.2344 30.6016 97.3359 31.0625 101.129V101.133Z" fill="#875CFF"/>
<path id="Vector_60" d="M30.8753 101.477C30.7776 101.422 21.094 96.0976 13.1956 88.7382C13.0394 88.5898 13.0276 88.3437 13.1761 88.1874C13.3245 88.0312 13.5706 88.0195 13.7269 88.1679C20.4261 94.4101 28.4222 99.1757 30.6487 100.453C30.8323 96.832 35.4339 93.2187 38.012 91.8124C29.5198 79.1132 19.3636 70.9179 19.262 70.8359C19.0667 70.6796 19.0667 70.3828 19.262 70.2265C27.1136 63.9413 31.3558 57.8007 31.8792 51.9726C32.3089 47.1796 29.9456 44.4062 29.9183 44.3788C29.7776 44.2148 29.7933 43.9687 29.9573 43.8281C30.1214 43.6874 30.3675 43.7031 30.5081 43.8671C30.6136 43.9882 33.1136 46.9218 32.6565 52.0429C32.1214 57.9999 27.9065 64.2187 20.1214 70.539C22.0667 72.1679 31.2112 80.1288 38.9026 91.746C39.0315 91.9413 38.9612 92.207 38.7503 92.3124C35.9964 93.6796 31.0276 97.6601 31.4495 101.094C31.4886 101.406 31.1565 101.637 30.8753 101.484V101.477Z" fill="#112544"/>
<path id="Vector_61" d="M115.922 45.82C115.922 45.82 110.246 44.7224 109.657 45.6325C109.067 46.5427 111.266 47.1286 111.266 47.1286C111.266 47.1286 108.899 46.9567 109.09 47.8669C109.278 48.7771 111.114 48.8317 111.114 48.8317C111.114 48.8317 108.993 48.4919 108.918 49.4372C108.844 50.3825 111.094 50.2888 111.094 50.2888C111.094 50.2888 108.598 50.0817 109.086 51.1403C109.578 52.1989 111.336 52.1794 111.336 52.1794C111.336 52.1794 111.106 54.0349 112.313 54.8786C114.996 56.7536 116.559 54.1833 117.153 53.031C117.989 51.406 119.871 47.0192 115.914 45.82H115.922Z" fill="#FCBBA4"/>
<path id="Vector_62" d="M112.098 55.1955C111.078 54.4846 110.934 53.2033 110.934 52.5432C110.312 52.4768 109.168 52.2268 108.734 51.301C108.551 50.9104 108.617 50.5119 108.953 50.2502C108.336 49.8166 108.387 48.9533 109.105 48.594C108.91 48.426 108.762 48.2112 108.707 47.9377C108.578 47.3166 109.07 46.969 109.691 46.8244C109.098 46.3674 109.051 45.844 109.328 45.4143C109.961 44.4299 113.777 45.0041 115.996 45.4338C116.207 45.4729 116.348 45.6799 116.305 45.8908C116.266 46.1018 116.059 46.2424 115.848 46.1994C112.996 45.6487 110.309 45.4846 109.984 45.844C109.937 45.9182 109.949 45.9494 109.957 45.9729C110.066 46.258 110.848 46.6057 111.367 46.7463C111.562 46.7971 111.684 46.9885 111.652 47.1877C111.617 47.3869 111.437 47.5315 111.238 47.5119C110.359 47.4494 109.551 47.5979 109.469 47.7619C109.539 48.1057 110.125 48.2971 110.625 48.383C110.883 48.3987 111.09 48.426 111.176 48.4416C111.379 48.4729 111.523 48.6604 111.504 48.8635C111.484 49.0705 111.309 49.2112 111.102 49.219C111.035 49.219 110.82 49.2073 110.543 49.1643C109.027 49.0901 108.809 49.7346 110.422 49.8791C110.719 49.8713 110.98 49.8869 111.129 49.8987C111.336 49.9143 111.492 50.0901 111.488 50.2971C111.484 50.5041 111.32 50.6721 111.113 50.6799C111.004 50.6838 110.73 50.6916 110.398 50.6643C109.883 50.6877 109.48 50.7815 109.414 50.8869C109.414 50.8869 109.414 50.9143 109.445 50.9729C109.82 51.7815 111.332 51.7776 111.34 51.7893C111.449 51.7854 111.559 51.8362 111.637 51.9182C111.711 52.0002 111.746 52.1135 111.734 52.2268C111.734 52.2424 111.551 53.8635 112.547 54.5588C112.723 54.6838 112.766 54.926 112.644 55.1018C112.519 55.2776 112.277 55.3205 112.102 55.1994L112.098 55.1955Z" fill="#112544"/>
</g>
<g id="Group_4">
<g id="Group_5">
<path id="Vector_63" d="M163.387 189.578C163.387 189.578 144.488 180.441 148.649 174.679C151.875 170.207 159.59 178.281 159.59 178.281C159.59 178.281 147.195 158.789 152.692 155.789C158.188 152.789 166.785 174.082 166.785 174.082C166.785 174.082 157.988 149.191 164.688 147.191C171.387 145.191 174.883 169.984 174.883 169.984C174.883 169.984 177.727 153.621 184.379 155.691C189.82 157.382 182.981 176.285 182.981 176.285L177.949 189.578" fill="white"/>
<path id="Vector_64" d="M177.809 189.945C177.606 189.867 177.504 189.644 177.582 189.441L182.613 176.144C184.141 171.902 188.57 157.402 184.262 156.062C179.238 154.5 176.145 165.004 175.266 170.051C175.231 170.242 175.063 170.371 174.875 170.375C174.684 170.375 174.52 170.23 174.496 170.039C173.723 164.547 170.16 145.969 164.797 147.566C159.367 149.187 165.27 168.621 167.152 173.953C167.223 174.152 167.121 174.375 166.922 174.449C166.723 174.523 166.5 174.426 166.422 174.23C164.563 169.633 157.262 153.738 152.875 156.133C148.465 158.535 157.246 173.871 159.914 178.07C160.024 178.238 159.984 178.465 159.824 178.586C159.668 178.711 159.441 178.695 159.301 178.547C156.59 175.719 151.262 171.707 148.957 174.902C145.715 179.394 158.563 186.808 163.551 189.219C163.746 189.312 163.828 189.547 163.734 189.742C163.641 189.937 163.406 190.015 163.211 189.922C157.57 187.195 144.574 179.64 148.324 174.445C150.598 171.297 154.82 173.652 157.828 176.137C155.039 171.383 147.68 158.07 152.496 155.441C156.789 153.101 162.293 163.594 164.457 167.988C162.926 162.605 159.219 148.41 164.57 146.812C170.531 145.035 173.891 161.73 174.93 167.82C176.195 162.43 179.211 153.668 184.488 155.308C189.582 156.894 185.137 171.437 183.34 176.406L178.305 189.707C178.227 189.91 178 190.012 177.801 189.933L177.809 189.945Z" fill="#BDA5FF"/>
</g>
<path id="Vector_65" d="M171.328 190.195C171.328 190.195 163.082 186.168 165.058 182.746C167.035 179.324 170.683 184.379 170.683 184.379C170.683 184.379 170.226 175.219 173.801 174.574C177.375 173.93 177.601 182.383 177.601 182.383C177.601 182.383 179.918 174.762 183.187 175.598C186.457 176.434 181.629 185.137 181.629 185.137C181.629 185.137 186.98 182.551 188.09 183.883C189.117 185.121 186.683 187.187 186.683 187.187C186.683 187.187 192.992 186.199 191.32 190.191H171.328V190.195Z" fill="#BDA5FF"/>
<path id="Vector_66" d="M159.094 178.23C149.851 164.972 137.82 157.804 129.355 154.128C129.156 154.042 129.066 153.812 129.152 153.613C129.238 153.413 129.469 153.324 129.668 153.41C138.226 157.124 150.39 164.37 159.738 177.781C159.863 177.956 159.816 178.202 159.64 178.324C159.465 178.449 159.219 178.402 159.097 178.226L159.094 178.23Z" fill="#BDA5FF"/>
<path id="Vector_67" d="M137.695 157.184C136.863 159.442 133.25 160.192 129.625 158.856C126.004 157.52 123.742 154.602 124.578 152.344C125.41 150.09 129.023 149.34 132.644 150.676C136.266 152.012 138.527 154.93 137.695 157.184Z" fill="#BDA5FF"/>
<path id="Vector_68" d="M179.226 140.992C181.347 142.129 184.551 140.293 186.375 136.89C188.199 133.488 187.957 129.804 185.836 128.668C183.719 127.531 180.515 129.367 178.691 132.769C176.867 136.172 177.109 139.855 179.23 140.988L179.226 140.992Z" fill="#BDA5FF"/>
<path id="Vector_69" d="M174.492 170.015C172.793 146.472 184.934 129.71 185.055 129.542C185.184 129.37 185.426 129.331 185.602 129.46C185.773 129.589 185.812 129.831 185.684 130.007C185.562 130.171 173.594 146.718 175.269 169.96C175.285 170.175 175.125 170.362 174.906 170.378C174.695 170.394 174.504 170.237 174.488 170.019L174.492 170.015Z" fill="#BDA5FF"/>
</g>
<path id="Vector_70" d="M142.059 146.504C141.957 146.504 141.856 146.465 141.777 146.387C141.625 146.231 141.629 145.984 141.785 145.836C141.914 145.711 154.957 133.266 173.891 136.789C174.102 136.828 174.242 137.031 174.203 137.246C174.164 137.457 173.961 137.594 173.746 137.559C155.207 134.106 142.457 146.274 142.332 146.399C142.258 146.473 142.156 146.508 142.059 146.508V146.504Z" fill="#BDA5FF"/>
<g id="Group_6">
<path id="Vector_71" d="M106.367 119.215C106.199 119.079 106.18 118.833 106.316 118.665L115.731 107.294C115.867 107.126 116.113 107.106 116.281 107.243C116.449 107.379 116.469 107.626 116.332 107.794L106.918 119.165C106.781 119.333 106.535 119.352 106.367 119.215Z" fill="#BDA5FF"/>
<path id="Vector_72" d="M119.223 103.692C119.055 103.555 119.035 103.309 119.172 103.141L121.488 100.344C121.625 100.176 121.871 100.157 122.039 100.294C122.207 100.43 122.227 100.676 122.09 100.844L119.773 103.641C119.637 103.809 119.391 103.829 119.223 103.692Z" fill="#BDA5FF"/>
<path id="Vector_73" d="M127.781 119.051C127.566 119.051 127.391 118.871 127.395 118.656L127.406 117.336C127.406 117.121 127.582 116.949 127.797 116.949C128.012 116.949 128.188 117.129 128.184 117.344L128.172 118.664C128.172 118.879 127.996 119.051 127.781 119.051Z" fill="#BDA5FF"/>
<path id="Vector_74" d="M127.828 113.969C127.613 113.969 127.438 113.789 127.441 113.574L127.508 106.715C127.508 106.5 127.684 106.328 127.899 106.328C128.113 106.328 128.289 106.508 128.285 106.723L128.219 113.582C128.219 113.797 128.043 113.969 127.828 113.969Z" fill="#BDA5FF"/>
<path id="Vector_75" d="M104.192 97.8366C104.172 97.6217 104.332 97.4303 104.547 97.4108L106.442 97.2428C106.66 97.2233 106.848 97.3835 106.863 97.5983C106.883 97.8131 106.723 98.0045 106.508 98.0241L104.613 98.192C104.406 98.2116 104.211 98.0553 104.192 97.8366Z" fill="#BDA5FF"/>
<path id="Vector_76" d="M111.688 97.1683C111.668 96.9534 111.828 96.762 112.043 96.7464L116.379 96.3597C116.594 96.3362 116.785 96.5003 116.801 96.7151C116.82 96.93 116.66 97.1214 116.445 97.137L112.11 97.5237C111.899 97.5433 111.707 97.387 111.688 97.1683Z" fill="#BDA5FF"/>
</g>
<path id="Vector_77" d="M80.1289 16.8088H75.3438C75.1289 16.8088 74.9531 16.633 74.9531 16.4182C74.9531 16.2033 75.1289 16.0276 75.3438 16.0276H79.668C78.7461 9.70334 80.0391 2.6174 86.4687 1.91428C94.6758 1.02365 100.145 11.1213 101.68 14.3635C104.711 5.2424 110.191 2.80881 117.32 11.3908C117.457 11.5549 117.434 11.8049 117.27 11.9416C117.105 12.0783 116.859 12.0588 116.719 11.8908C109.699 3.43381 104.496 6.53147 102.129 15.5744C102.086 15.7385 101.945 15.8557 101.777 15.8674C101.613 15.8791 101.453 15.7815 101.391 15.6291C101.332 15.4885 95.5234 1.72287 86.5508 2.69553C80.4336 3.3635 79.4766 10.7541 80.5078 16.3518C80.5508 16.5901 80.3672 16.8127 80.125 16.8127L80.1289 16.8088Z" fill="#BDA5FF"/>
</g>
<defs>
<clipPath id="clip0_3740_10899">
<rect width="197.027" height="200" fill="white" transform="translate(0.5625)"/>
</clipPath>
</defs>
</svg>
