<svg width="18" height="18" viewBox="0 0 18 18" fill="none" xmlns="http://www.w3.org/2000/svg">
<path fill-rule="evenodd" clip-rule="evenodd" d="M15.1116 4.06654L8.72336 10.4548L10.6676 15.4544L15.1116 4.06654ZM7.54485 9.27631L13.9331 2.88803L2.54532 7.33205L7.54485 9.27631ZM16.206 0.22851C16.3586 0.184167 16.6657 0.10449 16.9955 0.214668C17.3681 0.33915 17.6605 0.63157 17.785 1.00419C17.8952 1.334 17.8155 1.64105 17.7712 1.7937C17.7228 1.96006 17.6454 2.15833 17.5678 2.35725L12.0533 16.4882C11.9665 16.7106 11.8825 16.9259 11.8003 17.0921C11.7293 17.2358 11.5712 17.541 11.2432 17.7115C10.8815 17.8994 10.4509 17.8991 10.0894 17.7108C9.76156 17.54 9.60385 17.2345 9.533 17.0908C9.451 16.9245 9.36725 16.709 9.28078 16.4866L7.10583 10.8938L1.54251 8.73033C1.5327 8.72652 1.5229 8.72271 1.51312 8.71891C1.29065 8.63242 1.0752 8.54867 0.908871 8.46667C0.765157 8.39582 0.45969 8.23811 0.288899 7.9103C0.100555 7.5488 0.100302 7.11818 0.28822 6.75646C0.458626 6.42845 0.763907 6.27038 0.907538 6.19936C1.07377 6.11717 1.28913 6.03316 1.51149 5.94642C1.52127 5.9426 1.53106 5.93878 1.54086 5.93496L15.6424 0.431913C15.8413 0.354246 16.0396 0.276834 16.206 0.22851Z" fill="#222222"/>
</svg>
