<svg width="19" height="19" viewBox="0 0 19 19" fill="none" xmlns="http://www.w3.org/2000/svg">
<path d="M14.1667 0H4.16667C1.86917 0 0 1.86917 0 4.16667V10.8333C0 12.845 1.43417 14.5283 3.33333 14.9158V17.5C3.33333 17.8075 3.5025 18.09 3.77333 18.235C3.89667 18.3008 4.03167 18.3333 4.16667 18.3333C4.32833 18.3333 4.48917 18.2858 4.62917 18.1933L9.41917 15H14.1667C16.4642 15 18.3333 13.1308 18.3333 10.8333V4.16667C18.3333 1.86917 16.4642 0 14.1667 0ZM8.70417 13.4733L5 15.9425V14.1667C5 13.7067 4.62667 13.3333 4.16667 13.3333C2.78833 13.3333 1.66667 12.2117 1.66667 10.8333V4.16667C1.66667 2.78833 2.78833 1.66667 4.16667 1.66667H14.1667C15.545 1.66667 16.6667 2.78833 16.6667 4.16667V10.8333C16.6667 12.2117 15.545 13.3333 14.1667 13.3333H9.16667C9.10833 13.3325 9.025 13.3383 8.93 13.3667C8.83 13.3958 8.75417 13.4392 8.70417 13.4733Z" fill="#222222"/>
<path d="M14.1663 5H4.16634C3.70634 5 3.33301 5.37333 3.33301 5.83333C3.33301 6.29333 3.70634 6.66667 4.16634 6.66667H14.1663C14.6263 6.66667 14.9997 6.29333 14.9997 5.83333C14.9997 5.37333 14.6263 5 14.1663 5Z" fill="#222222"/>
<path d="M12.5 8.33333H5.83333C5.37333 8.33333 5 8.70666 5 9.16666C5 9.62666 5.37333 9.99999 5.83333 9.99999H12.5C12.96 9.99999 13.3333 9.62666 13.3333 9.16666C13.3333 8.70666 12.96 8.33333 12.5 8.33333Z" fill="#222222"/>
</svg>
