<svg xmlns="http://www.w3.org/2000/svg" width="24" height="24" viewBox="0 0 24 24" fill="none">
  <path fill-rule="evenodd" clip-rule="evenodd" d="M11.4427 3.12429C11.7952 2.95857 12.2048 2.95857 12.5573 3.12429C12.862 3.26756 13.03 3.5163 13.1148 3.65276C13.2024 3.79383 13.2923 3.97354 13.3799 4.14871C13.3844 4.15765 13.3889 4.16659 13.3933 4.1755L15.2408 7.86596L19.4034 8.46587C19.5994 8.49407 19.8004 8.52301 19.9635 8.56167C20.1213 8.59908 20.413 8.67998 20.6451 8.92158C20.9137 9.20107 21.04 9.58513 20.9888 9.96682C20.9447 10.2968 20.7566 10.531 20.6511 10.6526C20.5421 10.7783 20.3965 10.918 20.2546 11.0542L17.2438 13.9457L17.9542 18.0298C17.9877 18.2224 18.0221 18.42 18.0354 18.5849C18.0482 18.7444 18.0606 19.0431 17.8994 19.3357C17.713 19.6741 17.3816 19.9114 16.9976 19.9816C16.6656 20.0423 16.3813 19.9384 16.2314 19.877C16.0764 19.8136 15.8965 19.7203 15.7211 19.6293L12 17.6998L8.27885 19.6293C8.10348 19.7203 7.92356 19.8136 7.76857 19.877C7.61867 19.9384 7.33442 20.0423 7.00242 19.9816C6.61838 19.9114 6.287 19.6741 6.10058 19.3357C5.93942 19.0431 5.9518 18.7444 5.96461 18.5849C5.97785 18.42 6.01226 18.2224 6.0458 18.0298L6.75621 13.9457L3.76709 11.0751C3.75987 11.0681 3.75264 11.0612 3.7454 11.0542C3.60352 10.918 3.45793 10.7783 3.34889 10.6526C3.2434 10.531 3.05535 10.2968 3.01116 9.96682C2.96003 9.58513 3.08633 9.20107 3.35488 8.92158C3.58701 8.67998 3.87871 8.59908 4.03648 8.56167C4.19956 8.52301 4.40062 8.49407 4.59657 8.46587C4.60657 8.46443 4.61656 8.46299 4.62653 8.46156L8.75916 7.86596L10.6067 4.1755C10.6111 4.16659 10.6156 4.15765 10.6201 4.14871C10.7077 3.97354 10.7976 3.79383 10.8852 3.65276C10.97 3.5163 11.138 3.26756 11.4427 3.12429ZM8.66989 8.0422C8.66977 8.04241 8.66977 8.04241 8.66989 8.0422V8.0422ZM8.95671 7.83656C8.95694 7.83651 8.95694 7.83651 8.95671 7.83656V7.83656ZM17.2109 13.7511C17.2109 13.7509 17.2109 13.7509 17.2109 13.7511V13.7511ZM12 5.23824L10.2672 8.69962C10.2639 8.70624 10.2601 8.71394 10.2558 8.72261C10.2147 8.80658 10.1296 8.98044 9.99449 9.12378C9.88048 9.24477 9.74375 9.3428 9.59187 9.41244C9.41194 9.49494 9.21794 9.52122 9.12425 9.53392C9.11458 9.53523 9.10598 9.53639 9.09857 9.53746L5.22217 10.0961L8.02589 12.7887C8.03126 12.7939 8.03754 12.7998 8.0446 12.8065C8.11301 12.8711 8.25466 13.0048 8.35132 13.176C8.43291 13.3204 8.48526 13.4792 8.50545 13.6434C8.52937 13.8379 8.49456 14.0282 8.47775 14.12C8.47601 14.1295 8.47447 14.138 8.4732 14.1453L7.8117 17.9482L11.2768 16.1514C11.2834 16.148 11.2911 16.1439 11.2997 16.1394C11.3831 16.0952 11.5558 16.0038 11.7508 15.9661C11.9154 15.9342 12.0846 15.9342 12.2492 15.9661C12.4442 16.0038 12.6169 16.0952 12.7003 16.1394C12.7089 16.1439 12.7166 16.148 12.7232 16.1514L16.1883 17.9482L15.5268 14.1453C15.5255 14.138 15.524 14.1295 15.5223 14.12C15.5054 14.0281 15.4706 13.8379 15.4946 13.6434C15.5147 13.4792 15.5671 13.3204 15.6487 13.176C15.7453 13.0048 15.887 12.8711 15.9554 12.8065C15.9625 12.7998 15.9687 12.7939 15.9741 12.7887L18.7778 10.0961L14.9014 9.53746C14.894 9.53639 14.8854 9.53523 14.8757 9.53392C14.7821 9.52122 14.5881 9.49494 14.4081 9.41244C14.2563 9.3428 14.1195 9.24477 14.0055 9.12378C13.8705 8.98044 13.7853 8.80658 13.7442 8.72261C13.7399 8.71394 13.7361 8.70624 13.7328 8.69962L12 5.23824Z" fill="#222222"/>
</svg>