<svg width="36" height="36" viewBox="0 0 36 36" fill="none" xmlns="http://www.w3.org/2000/svg">
<rect width="36" height="36" fill="#D8CAFF"/>
<g clip-path="url(#clip0_1723_3165)">
<path fill-rule="evenodd" clip-rule="evenodd" d="M13.632 8.83333H19.8674C20.5383 8.83332 21.0919 8.83331 21.5429 8.87016C22.0113 8.90843 22.4419 8.99056 22.8463 9.19664C23.4735 9.51622 23.9835 10.0262 24.3031 10.6534C24.5091 11.0578 24.5913 11.4884 24.6295 11.9568C24.6664 12.4078 24.6664 12.9614 24.6664 13.6322V16.348C24.7224 16.351 24.7766 16.3545 24.8289 16.3588C25.1583 16.3857 25.486 16.4452 25.8013 16.6058C26.2717 16.8455 26.6542 17.2279 26.8939 17.6984C27.0545 18.0137 27.114 18.3414 27.1409 18.6708C27.1664 18.9829 27.1664 19.3619 27.1664 19.8012V22.1219C27.1664 22.4874 27.1664 22.8028 27.1486 23.0639C27.1298 23.3387 27.0886 23.6137 26.9761 23.8853C26.7223 24.4978 26.2356 24.9845 25.6231 25.2383C25.3515 25.3508 25.0765 25.392 24.8017 25.4108C24.7581 25.4137 24.713 25.4162 24.6664 25.4183V26.3333C24.6664 26.6436 24.494 26.9281 24.2191 27.0719C23.9441 27.2156 23.6121 27.1946 23.3573 27.0175L21.5437 25.7566C21.2643 25.5624 21.2078 25.527 21.1544 25.5028C21.0928 25.4749 21.0281 25.4546 20.9616 25.4424C20.904 25.4317 20.8374 25.4286 20.4971 25.4286H18.9676C18.5283 25.4286 18.1493 25.4286 17.8372 25.4031C17.5077 25.3762 17.18 25.3167 16.8647 25.1561C16.3943 24.9164 16.0119 24.5339 15.7722 24.0635C15.6115 23.7482 15.5521 23.4205 15.5252 23.0911C15.5114 22.9223 15.5051 22.734 15.5022 22.5272L14.3414 23.7025C14.1817 23.8641 14.0252 24.0227 13.888 24.1391C13.7661 24.2424 13.5082 24.4511 13.1495 24.4809C12.7496 24.5141 12.3581 24.3534 12.097 24.0488C11.8627 23.7755 11.8259 23.4458 11.8118 23.2866C11.7959 23.1074 11.796 22.8846 11.796 22.6574L11.796 21.3426C11.78 21.3292 11.7428 21.3069 11.6833 21.2981C10.2261 21.0847 9.08167 19.9403 8.86823 18.4831C8.83283 18.2414 8.83291 17.9687 8.83302 17.6007C8.83303 17.5798 8.83303 17.5586 8.83303 17.537L8.83303 13.6322C8.83302 12.9614 8.83301 12.4078 8.86986 11.9568C8.90813 11.4884 8.99027 11.0578 9.19634 10.6534C9.51592 10.0262 10.0259 9.51622 10.6531 9.19664C11.0575 8.99056 11.4881 8.90843 11.9565 8.87016C12.4075 8.83331 12.9611 8.83332 13.632 8.83333ZM11.9248 19.6491C12.6649 19.7575 13.4627 20.3452 13.4627 21.3263V22.2203L15.4997 20.1578L15.4997 19.8012C15.4997 19.3619 15.4997 18.9829 15.5252 18.6708C15.5521 18.3414 15.6115 18.0137 15.7722 17.6984C16.0119 17.2279 16.3943 16.8455 16.8647 16.6058C17.18 16.4452 17.5077 16.3857 17.8372 16.3588C18.1493 16.3333 18.5283 16.3333 18.9676 16.3333L22.9997 16.3333V13.6667C22.9997 12.9528 22.9991 12.4676 22.9684 12.0925C22.9386 11.7272 22.8845 11.5403 22.818 11.41C22.6583 11.0964 22.4033 10.8414 22.0897 10.6817C21.9594 10.6152 21.7725 10.5611 21.4072 10.5313C21.0321 10.5006 20.5468 10.5 19.833 10.5H13.6664C12.9525 10.5 12.4673 10.5006 12.0922 10.5313C11.7269 10.5611 11.54 10.6152 11.4097 10.6817C11.0961 10.8414 10.8411 11.0964 10.6814 11.41C10.6149 11.5403 10.5608 11.7272 10.531 12.0925C10.5003 12.4676 10.4997 12.9528 10.4997 13.6667V17.537C10.4997 17.9966 10.5019 18.1366 10.5173 18.2415C10.624 18.9701 11.1962 19.5423 11.9248 19.6491ZM17.1664 20.4995C17.1664 20.4998 17.1664 20.5002 17.1664 20.5006V21.9286C17.1664 22.409 17.167 22.7193 17.1863 22.9554C17.2048 23.1818 17.2362 23.2657 17.2572 23.3069C17.3371 23.4637 17.4646 23.5912 17.6214 23.6711C17.6626 23.6921 17.7465 23.7235 17.9729 23.742C18.209 23.7613 18.5192 23.7619 18.9997 23.7619H20.4971C20.5148 23.7619 20.5323 23.7619 20.5497 23.7619C20.8086 23.7617 21.037 23.7615 21.2637 23.8033C21.4631 23.8401 21.6573 23.9009 21.842 23.9846C22.052 24.0797 22.2395 24.2102 22.452 24.3582C22.4662 24.3681 22.4806 24.3781 22.4951 24.3882L22.9997 24.739V24.5952C22.9997 24.135 23.3728 23.7619 23.833 23.7619C24.2327 23.7619 24.4908 23.7614 24.6882 23.748C24.8782 23.735 24.9506 23.7128 24.9853 23.6985C25.1895 23.6139 25.3517 23.4517 25.4363 23.2475C25.4506 23.2128 25.4728 23.1404 25.4858 22.9504C25.4992 22.753 25.4997 22.4949 25.4997 22.0952V19.8333C25.4997 19.3529 25.4991 19.0426 25.4798 18.8065C25.4613 18.5801 25.4299 18.4962 25.4089 18.455C25.329 18.2982 25.2015 18.1707 25.0447 18.0908C25.0035 18.0698 24.9196 18.0384 24.6932 18.0199C24.4571 18.0006 24.1468 18 23.6664 18H18.9997C18.5192 18 18.209 18.0006 17.9729 18.0199C17.7465 18.0384 17.6626 18.0698 17.6214 18.0908C17.4646 18.1707 17.3371 18.2982 17.2572 18.455C17.2362 18.4962 17.2048 18.5801 17.1863 18.8065C17.167 19.0426 17.1664 19.3529 17.1664 19.8333V20.4995Z" fill="#3E19A3"/>
</g>
<defs>
<clipPath id="clip0_1723_3165">
<rect width="20" height="20" fill="white" transform="translate(8 8)"/>
</clipPath>
</defs>
</svg>
