<svg width="36" height="36" viewBox="0 0 36 36" fill="none" xmlns="http://www.w3.org/2000/svg">
<path fill-rule="evenodd" clip-rule="evenodd" d="M17.9997 10.5C17.6619 10.5 17.4163 10.7642 17.4163 11.0556V17.0741C17.4163 17.5343 17.0432 17.9074 16.583 17.9074C16.1228 17.9074 15.7497 17.5343 15.7497 17.0741V11.9815C15.7497 11.6901 15.5041 11.4259 15.1663 11.4259C14.8285 11.4259 14.583 11.6901 14.583 11.9815V19.8518C14.583 20.3121 14.2099 20.6852 13.7497 20.6852C13.2894 20.6852 12.9163 20.3121 12.9163 19.8518V17.537C12.9163 17.2457 12.6708 16.9815 12.333 16.9815C11.9952 16.9815 11.7497 17.2457 11.7497 17.537V19.3889C11.7497 22.7485 14.5323 25.5 17.9997 25.5C21.4671 25.5 24.2497 22.7485 24.2497 19.3889V14.7593C24.2497 14.4679 24.0041 14.2037 23.6663 14.2037C23.3285 14.2037 23.083 14.4679 23.083 14.7593V17.0741C23.083 17.5343 22.7099 17.9074 22.2497 17.9074C21.7894 17.9074 21.4163 17.5343 21.4163 17.0741V11.9815C21.4163 11.6901 21.1708 11.4259 20.833 11.4259C20.4952 11.4259 20.2497 11.6901 20.2497 11.9815V17.0741C20.2497 17.5343 19.8766 17.9074 19.4163 17.9074C18.9561 17.9074 18.583 17.5343 18.583 17.0741V11.0556C18.583 10.7642 18.3375 10.5 17.9997 10.5ZM19.9462 9.93911C19.5539 9.27395 18.8227 8.83333 17.9997 8.83333C17.1767 8.83333 16.4455 9.27395 16.0532 9.93911C15.78 9.82319 15.4798 9.75925 15.1663 9.75925C13.9393 9.75925 12.9163 10.7387 12.9163 11.9815V15.3906C12.7298 15.3411 12.5341 15.3148 12.333 15.3148C11.106 15.3148 10.083 16.2943 10.083 17.537V19.3889C10.083 23.6999 13.6431 27.1667 17.9997 27.1667C22.3563 27.1667 25.9163 23.6999 25.9163 19.3889V14.7593C25.9163 13.5165 24.8933 12.537 23.6663 12.537C23.4652 12.537 23.2696 12.5633 23.083 12.6128V11.9815C23.083 10.7387 22.06 9.75925 20.833 9.75925C20.5195 9.75925 20.2194 9.82319 19.9462 9.93911Z" fill="#222222"/>
</svg>
