<svg width="36" height="36" viewBox="0 0 36 36" fill="none" xmlns="http://www.w3.org/2000/svg">
<rect width="36" height="36"/>
<path fill-rule="evenodd" clip-rule="evenodd" d="M11.1223 11.1338L16.3206 24.4543L18.3556 19.2214C18.3578 19.2157 18.3603 19.2091 18.3632 19.2017C18.3907 19.1292 18.4477 18.9794 18.5428 18.8461C18.6233 18.7333 18.7219 18.6347 18.8346 18.5543C18.9679 18.4592 19.1177 18.4022 19.1902 18.3746C19.1976 18.3718 19.2042 18.3693 19.2099 18.3671L24.4429 16.332L11.1223 11.1338ZM9.21703 10.7937C9.17269 10.641 9.09301 10.334 9.20319 10.0042C9.32767 9.63156 9.62009 9.33914 9.99272 9.21466C10.3225 9.10448 10.6296 9.18416 10.7822 9.2285C10.9486 9.27682 11.1469 9.35423 11.3458 9.4319L25.4767 14.9464C25.6991 15.0332 25.9144 15.1172 26.0807 15.1994C26.2243 15.2704 26.5296 15.4284 26.7 15.7565C26.8879 16.1182 26.8876 16.5488 26.6993 16.9103C26.5285 17.2381 26.223 17.3958 26.0793 17.4667C25.913 17.5487 25.6976 17.6324 25.4751 17.7189L19.8824 19.8938L17.7189 25.4572C17.715 25.467 17.7112 25.4768 17.7074 25.4865C17.6209 25.709 17.5372 25.9245 17.4552 26.0908C17.3843 26.2345 17.2266 26.54 16.8988 26.7108C16.5373 26.8991 16.1067 26.8994 15.745 26.7114C15.417 26.541 15.2589 26.2358 15.1879 26.0921C15.1057 25.9259 15.0217 25.7105 14.9349 25.4882C14.9311 25.4784 14.9273 25.4686 14.9235 25.4588L9.42044 11.3573C9.34277 11.1583 9.26536 10.9601 9.21703 10.7937Z" fill="#222222"/>
</svg>
