<svg width="25" height="24" viewBox="0 0 25 24" fill="none" xmlns="http://www.w3.org/2000/svg">
<rect x="0.5" width="24" height="24" rx="12" fill="#FFE5F4"/>
<path fill-rule="evenodd" clip-rule="evenodd" d="M12.4997 5.33333C12.9599 5.33333 13.333 5.70643 13.333 6.16667V11.1667H18.333C18.7932 11.1667 19.1663 11.5398 19.1663 12C19.1663 12.4602 18.7932 12.8333 18.333 12.8333H13.333V17.8333C13.333 18.2936 12.9599 18.6667 12.4997 18.6667C12.0394 18.6667 11.6663 18.2936 11.6663 17.8333V12.8333H6.66634C6.2061 12.8333 5.83301 12.4602 5.83301 12C5.83301 11.5398 6.2061 11.1667 6.66634 11.1667H11.6663V6.16667C11.6663 5.70643 12.0394 5.33333 12.4997 5.33333Z" fill="#F20090"/>
</svg>
