<svg width="40" height="40" viewBox="0 0 41 40" fill="none" xmlns="http://www.w3.org/2000/svg">
<path d="M26.7002 9.2H14.7002C11.9432 9.2 9.7002 11.443 9.7002 14.2V22.2C9.7002 24.614 11.4212 26.634 13.7002 27.099V30.2C13.7002 30.569 13.9032 30.908 14.2282 31.082C14.3762 31.161 14.5382 31.2 14.7002 31.2C14.8942 31.2 15.0872 31.143 15.2552 31.032L21.0032 27.2H26.7002C29.4572 27.2 31.7002 24.957 31.7002 22.2V14.2C31.7002 11.443 29.4572 9.2 26.7002 9.2ZM20.1452 25.368L15.7002 28.331V26.2C15.7002 25.648 15.2522 25.2 14.7002 25.2C13.0462 25.2 11.7002 23.854 11.7002 22.2V14.2C11.7002 12.546 13.0462 11.2 14.7002 11.2H26.7002C28.3542 11.2 29.7002 12.546 29.7002 14.2V22.2C29.7002 23.854 28.3542 25.2 26.7002 25.2H20.7002C20.6302 25.199 20.5302 25.206 20.4162 25.24C20.2962 25.275 20.2052 25.327 20.1452 25.368Z" fill="#222222"/>
<path d="M26.7002 15.2H14.7002C14.1482 15.2 13.7002 15.648 13.7002 16.2C13.7002 16.752 14.1482 17.2 14.7002 17.2H26.7002C27.2522 17.2 27.7002 16.752 27.7002 16.2C27.7002 15.648 27.2522 15.2 26.7002 15.2Z" fill="#222222"/>
<path d="M24.7002 19.2H16.7002C16.1482 19.2 15.7002 19.648 15.7002 20.2C15.7002 20.752 16.1482 21.2 16.7002 21.2H24.7002C25.2522 21.2 25.7002 20.752 25.7002 20.2C25.7002 19.648 25.2522 19.2 24.7002 19.2Z" fill="#222222"/>
</svg>
