<svg width="24" height="24" viewBox="0 0 24 24" fill="none" xmlns="http://www.w3.org/2000/svg">
<rect width="24" height="24" rx="12" fill="#FFE5F4"/>
<path fill-rule="evenodd" clip-rule="evenodd" d="M11.9997 5.3335C12.4599 5.3335 12.833 5.70659 12.833 6.16683V11.1668H17.833C18.2932 11.1668 18.6663 11.5399 18.6663 12.0002C18.6663 12.4604 18.2932 12.8335 17.833 12.8335H12.833V17.8335C12.833 18.2937 12.4599 18.6668 11.9997 18.6668C11.5394 18.6668 11.1663 18.2937 11.1663 17.8335V12.8335H6.16634C5.7061 12.8335 5.33301 12.4604 5.33301 12.0002C5.33301 11.5399 5.7061 11.1668 6.16634 11.1668H11.1663V6.16683C11.1663 5.70659 11.5394 5.3335 11.9997 5.3335Z" fill="#F20090"/>
</svg>
