<svg width="25" height="24" viewBox="0 0 25 24" fill="none" xmlns="http://www.w3.org/2000/svg">
<path d="M18.7002 1.2H6.7002C3.9432 1.2 1.7002 3.443 1.7002 6.2V14.2C1.7002 16.614 3.4212 18.634 5.7002 19.099V22.2C5.7002 22.569 5.9032 22.908 6.2282 23.082C6.37619 23.161 6.5382 23.2 6.7002 23.2C6.8942 23.2 7.08719 23.143 7.2552 23.032L13.0032 19.2H18.7002C21.4572 19.2 23.7002 16.957 23.7002 14.2V6.2C23.7002 3.443 21.4572 1.2 18.7002 1.2ZM12.1452 17.368L7.7002 20.331V18.2C7.7002 17.648 7.2522 17.2 6.7002 17.2C5.0462 17.2 3.7002 15.854 3.7002 14.2V6.2C3.7002 4.546 5.0462 3.2 6.7002 3.2H18.7002C20.3542 3.2 21.7002 4.546 21.7002 6.2V14.2C21.7002 15.854 20.3542 17.2 18.7002 17.2H12.7002C12.6302 17.199 12.5302 17.206 12.4162 17.24C12.2962 17.275 12.2052 17.327 12.1452 17.368Z" fill="#222222"/>
<path d="M18.7002 7.2H6.7002C6.1482 7.2 5.7002 7.648 5.7002 8.2C5.7002 8.752 6.1482 9.2 6.7002 9.2H18.7002C19.2522 9.2 19.7002 8.752 19.7002 8.2C19.7002 7.648 19.2522 7.2 18.7002 7.2Z" fill="#222222"/>
<path d="M16.7002 11.2H8.7002C8.1482 11.2 7.7002 11.648 7.7002 12.2C7.7002 12.752 8.1482 13.2 8.7002 13.2H16.7002C17.2522 13.2 17.7002 12.752 17.7002 12.2C17.7002 11.648 17.2522 11.2 16.7002 11.2Z" fill="#222222"/>
</svg>
