<svg width="40" height="40" viewBox="0 0 40 40" fill="none" xmlns="http://www.w3.org/2000/svg">
<rect width="40" height="40" fill="#D8CAFF"/>
<path d="M26.2002 9.20001H14.2002C11.4432 9.20001 9.2002 11.443 9.2002 14.2V22.2C9.2002 24.614 10.9212 26.634 13.2002 27.099V30.2C13.2002 30.569 13.4032 30.908 13.7282 31.082C13.8762 31.161 14.0382 31.2 14.2002 31.2C14.3942 31.2 14.5872 31.143 14.7552 31.032L20.5032 27.2H26.2002C28.9572 27.2 31.2002 24.957 31.2002 22.2V14.2C31.2002 11.443 28.9572 9.20001 26.2002 9.20001ZM19.6452 25.368L15.2002 28.331V26.2C15.2002 25.648 14.7522 25.2 14.2002 25.2C12.5462 25.2 11.2002 23.854 11.2002 22.2V14.2C11.2002 12.546 12.5462 11.2 14.2002 11.2H26.2002C27.8542 11.2 29.2002 12.546 29.2002 14.2V22.2C29.2002 23.854 27.8542 25.2 26.2002 25.2H20.2002C20.1302 25.199 20.0302 25.206 19.9162 25.24C19.7962 25.275 19.7052 25.327 19.6452 25.368Z" fill="#3E19A3"/>
<path d="M26.2002 15.2H14.2002C13.6482 15.2 13.2002 15.648 13.2002 16.2C13.2002 16.752 13.6482 17.2 14.2002 17.2H26.2002C26.7522 17.2 27.2002 16.752 27.2002 16.2C27.2002 15.648 26.7522 15.2 26.2002 15.2Z" fill="#3E19A3"/>
<path d="M24.2002 19.2H16.2002C15.6482 19.2 15.2002 19.648 15.2002 20.2C15.2002 20.752 15.6482 21.2 16.2002 21.2H24.2002C24.7522 21.2 25.2002 20.752 25.2002 20.2C25.2002 19.648 24.7522 19.2 24.2002 19.2Z" fill="#3E19A3"/>
</svg>
