<svg width="20" height="20" viewBox="0 0 20 20" fill="none" xmlns="http://www.w3.org/2000/svg">
<path fill-rule="evenodd" clip-rule="evenodd" d="M5 6.66669C5 3.90526 7.23858 1.66669 10 1.66669C12.0516 1.66669 13.8128 2.90222 14.5836 4.66638C14.7679 5.08812 14.5753 5.57938 14.1536 5.76365C13.7319 5.94791 13.2406 5.7554 13.0563 5.33366C12.5412 4.15465 11.3656 3.33335 10 3.33335C8.15905 3.33335 6.66667 4.82574 6.66667 6.66669V7.50137C6.86476 7.50001 7.07533 7.50002 7.29892 7.50002H12.7011C13.3719 7.50001 13.9255 7.5 14.3765 7.53685C14.8449 7.57512 15.2755 7.65726 15.68 7.86333C16.3072 8.18291 16.8171 8.69284 17.1367 9.32005C17.3428 9.7245 17.4249 10.1551 17.4632 10.6235C17.5 11.0745 17.5 11.6281 17.5 12.2989V13.5345C17.5 14.2053 17.5 14.7589 17.4632 15.2099C17.4249 15.6783 17.3428 16.1089 17.1367 16.5133C16.8171 17.1405 16.3072 17.6505 15.68 17.97C15.2755 18.1761 14.8449 18.2583 14.3765 18.2965C13.9255 18.3334 13.3719 18.3334 12.7011 18.3334H7.2989C6.6281 18.3334 6.07447 18.3334 5.62348 18.2965C5.15506 18.2583 4.72448 18.1761 4.32003 17.97C3.69283 17.6505 3.18289 17.1405 2.86331 16.5133C2.65724 16.1089 2.5751 15.6783 2.53683 15.2099C2.49998 14.7589 2.49999 14.2052 2.5 13.5344V12.2989C2.49999 11.6281 2.49998 11.0745 2.53683 10.6235C2.5751 10.1551 2.65724 9.7245 2.86331 9.32005C3.18289 8.69284 3.69283 8.18291 4.32003 7.86333C4.53845 7.75204 4.76449 7.6769 5 7.62529V6.66669ZM5.7592 9.19798C5.39385 9.22783 5.20702 9.28193 5.07668 9.34834C4.76308 9.50813 4.50811 9.7631 4.34832 10.0767C4.28192 10.207 4.22781 10.3939 4.19796 10.7592C4.16732 11.1343 4.16667 11.6195 4.16667 12.3334V13.5C4.16667 14.2138 4.16732 14.6991 4.19796 15.0742C4.22781 15.4395 4.28192 15.6263 4.34832 15.7567C4.50811 16.0703 4.76308 16.3252 5.07668 16.485C5.20702 16.5514 5.39385 16.6055 5.7592 16.6354C6.13427 16.666 6.61952 16.6667 7.33333 16.6667H12.6667C13.3805 16.6667 13.8657 16.666 14.2408 16.6354C14.6061 16.6055 14.793 16.5514 14.9233 16.485C15.2369 16.3252 15.4919 16.0703 15.6517 15.7567C15.7181 15.6263 15.7722 15.4395 15.802 15.0742C15.8327 14.6991 15.8333 14.2138 15.8333 13.5V12.3334C15.8333 11.6195 15.8327 11.1343 15.802 10.7592C15.7722 10.3939 15.7181 10.207 15.6517 10.0767C15.4919 9.7631 15.2369 9.50813 14.9233 9.34834C14.793 9.28193 14.6061 9.22783 14.2408 9.19798C13.8657 9.16734 13.3805 9.16669 12.6667 9.16669H7.33333C6.61952 9.16669 6.13427 9.16734 5.7592 9.19798ZM10 11.25C10.4602 11.25 10.8333 11.6231 10.8333 12.0834V13.75C10.8333 14.2103 10.4602 14.5834 10 14.5834C9.53976 14.5834 9.16667 14.2103 9.16667 13.75V12.0834C9.16667 11.6231 9.53976 11.25 10 11.25Z" fill="#222222"/>
</svg>
