<svg width="40" height="40" viewBox="0 0 41 40" fill="none" xmlns="http://www.w3.org/2000/svg">
<path fill-rule="evenodd" clip-rule="evenodd" d="M15.2587 9H22.7413C23.5463 8.99999 24.2107 8.99998 24.7519 9.04419C25.314 9.09012 25.8307 9.18868 26.316 9.43597C27.0686 9.81947 27.6806 10.4314 28.0641 11.184C28.3113 11.6694 28.4099 12.1861 28.4558 12.7482C28.5001 13.2894 28.5 13.9537 28.5 14.7587V18.0176C28.5673 18.0212 28.6323 18.0254 28.6951 18.0306C29.0904 18.0629 29.4836 18.1342 29.862 18.327C30.4265 18.6146 30.8854 19.0735 31.173 19.638C31.3658 20.0164 31.4372 20.4096 31.4695 20.805C31.5001 21.1795 31.5 21.6343 31.5 22.1614V24.9463C31.5 25.3849 31.5001 25.7634 31.4787 26.0767C31.4562 26.4065 31.4067 26.7364 31.2717 27.0623C30.9672 27.7974 30.3832 28.3814 29.6481 28.6859C29.3222 28.8209 28.9922 28.8704 28.6624 28.8929C28.6101 28.8965 28.556 28.8995 28.5 28.902V30C28.5 30.3723 28.2932 30.7138 27.9633 30.8862C27.6333 31.0587 27.2349 31.0336 26.9292 30.8211L24.7528 29.3079C24.4176 29.0749 24.3497 29.0324 24.2857 29.0034C24.2118 28.9699 24.1341 28.9455 24.0544 28.9308C23.9852 28.9181 23.9052 28.9143 23.4969 28.9143H21.6615C21.1343 28.9143 20.6796 28.9143 20.305 28.8837C19.9097 28.8514 19.5164 28.7801 19.1381 28.5873C18.5736 28.2997 18.1146 27.8407 17.827 27.2763C17.6342 26.8979 17.5629 26.5047 17.5306 26.1093C17.5141 25.9068 17.5065 25.6808 17.503 25.4326L16.11 26.8429C15.9185 27.0369 15.7306 27.2272 15.566 27.3669C15.4197 27.4909 15.1102 27.7413 14.6798 27.7771C14.2 27.8169 13.7302 27.624 13.4168 27.2585C13.1357 26.9306 13.0914 26.5349 13.0745 26.3439C13.0555 26.1289 13.0555 25.8615 13.0556 25.5889L13.0556 24.0111C13.0364 23.9951 12.9918 23.9682 12.9203 23.9578C11.1717 23.7016 9.7984 22.3283 9.54226 20.5797C9.49978 20.2897 9.49988 19.9625 9.50001 19.5208C9.50002 19.4958 9.50003 19.4703 9.50003 19.4444L9.50003 14.7587C9.50002 13.9537 9.50001 13.2894 9.54422 12.7482C9.59015 12.1861 9.68871 11.6694 9.936 11.184C10.3195 10.4314 10.9314 9.81947 11.6841 9.43597C12.1694 9.18868 12.6861 9.09012 13.2482 9.04419C13.7894 8.99998 14.4538 8.99999 15.2587 9ZM13.2102 21.9789C14.0983 22.109 15.0556 22.8142 15.0556 23.9916V25.0644L17.5 22.5894L17.5 22.1615C17.5 21.6343 17.5 21.1795 17.5306 20.805C17.5629 20.4096 17.6342 20.0164 17.827 19.638C18.1146 19.0735 18.5736 18.6146 19.1381 18.327C19.5164 18.1342 19.9097 18.0629 20.305 18.0306C20.6796 18 21.1343 18 21.6615 18L26.5 18V14.8C26.5 13.9434 26.4993 13.3611 26.4625 12.911C26.4267 12.4726 26.3617 12.2484 26.282 12.092C26.0903 11.7157 25.7843 11.4097 25.408 11.218C25.2516 11.1383 25.0274 11.0734 24.589 11.0376C24.1389 11.0008 23.5566 11 22.7 11H15.3C14.4435 11 13.8612 11.0008 13.4111 11.0376C12.9727 11.0734 12.7484 11.1383 12.592 11.218C12.2157 11.4097 11.9098 11.7157 11.718 12.092C11.6383 12.2484 11.5734 12.4726 11.5376 12.911C11.5008 13.3611 11.5 13.9434 11.5 14.8V19.4444C11.5 19.9959 11.5027 20.1639 11.5211 20.2899C11.6492 21.1642 12.3359 21.8508 13.2102 21.9789ZM19.5 22.9994C19.5 22.9998 19.5 23.0003 19.5 23.0007V24.7143C19.5 25.2908 19.5008 25.6631 19.524 25.9464C19.5462 26.2181 19.5838 26.3188 19.609 26.3683C19.7049 26.5564 19.8579 26.7094 20.046 26.8053C20.0955 26.8305 20.1962 26.8682 20.4679 26.8904C20.7512 26.9135 21.1235 26.9143 21.7 26.9143H23.4969C23.5181 26.9143 23.5391 26.9143 23.56 26.9143C23.8707 26.914 24.1448 26.9138 24.4169 26.964C24.6561 27.0081 24.8892 27.0811 25.1108 27.1815C25.3628 27.2956 25.5878 27.4523 25.8428 27.6298C25.8598 27.6417 25.8771 27.6537 25.8945 27.6658L26.5 28.0868V27.9143C26.5 27.362 26.9477 26.9143 27.5 26.9143C27.9797 26.9143 28.2893 26.9137 28.5263 26.8976C28.7543 26.882 28.8411 26.8554 28.8827 26.8382C29.1277 26.7367 29.3224 26.542 29.4239 26.297C29.4411 26.2554 29.4678 26.1685 29.4833 25.9405C29.4995 25.7035 29.5 25.3939 29.5 24.9143V22.2C29.5 21.6234 29.4993 21.2512 29.4761 20.9678C29.4539 20.6962 29.4162 20.5955 29.391 20.546C29.2952 20.3578 29.1422 20.2049 28.954 20.109C28.9046 20.0838 28.8039 20.0461 28.5322 20.0239C28.2489 20.0008 27.8766 20 27.3 20H21.7C21.1235 20 20.7512 20.0008 20.4679 20.0239C20.1962 20.0461 20.0955 20.0838 20.046 20.109C19.8579 20.2049 19.7049 20.3578 19.609 20.546C19.5838 20.5955 19.5462 20.6962 19.524 20.9678C19.5008 21.2512 19.5 21.6234 19.5 22.2V22.9994Z" fill="#222222"/>
</svg>
