<svg width="40" height="40" viewBox="0 0 40 40" fill="none" xmlns="http://www.w3.org/2000/svg">
<rect width="40" height="40" fill="#D8CAFF"/>
<path fill-rule="evenodd" clip-rule="evenodd" d="M14.7587 9H22.2413C23.0463 8.99999 23.7107 8.99998 24.2519 9.04419C24.814 9.09012 25.3307 9.18868 25.816 9.43597C26.5686 9.81947 27.1806 10.4314 27.5641 11.184C27.8113 11.6694 27.9099 12.1861 27.9558 12.7482C28.0001 13.2894 28 13.9537 28 14.7587V18.0176C28.0673 18.0212 28.1323 18.0254 28.1951 18.0306C28.5904 18.0629 28.9836 18.1342 29.362 18.327C29.9265 18.6146 30.3854 19.0735 30.673 19.638C30.8658 20.0164 30.9372 20.4096 30.9695 20.805C31.0001 21.1795 31 21.6343 31 22.1614V24.9463C31 25.3849 31.0001 25.7634 30.9787 26.0767C30.9562 26.4065 30.9067 26.7364 30.7717 27.0623C30.4672 27.7974 29.8832 28.3814 29.1481 28.6859C28.8222 28.8209 28.4922 28.8704 28.1624 28.8929C28.1101 28.8965 28.056 28.8995 28 28.902V30C28 30.3723 27.7932 30.7138 27.4633 30.8862C27.1333 31.0587 26.7349 31.0336 26.4292 30.8211L24.2528 29.3079C23.9176 29.0749 23.8497 29.0324 23.7857 29.0034C23.7118 28.9699 23.6341 28.9455 23.5544 28.9308C23.4852 28.9181 23.4052 28.9143 22.9969 28.9143H21.1615C20.6343 28.9143 20.1796 28.9143 19.805 28.8837C19.4097 28.8514 19.0164 28.7801 18.6381 28.5873C18.0736 28.2997 17.6146 27.8407 17.327 27.2763C17.1342 26.8979 17.0629 26.5047 17.0306 26.1093C17.0141 25.9068 17.0065 25.6808 17.003 25.4326L15.61 26.8429C15.4185 27.0369 15.2306 27.2272 15.066 27.3669C14.9197 27.4909 14.6102 27.7413 14.1798 27.7771C13.7 27.8169 13.2302 27.624 12.9168 27.2585C12.6357 26.9306 12.5914 26.5349 12.5745 26.3439C12.5555 26.1289 12.5555 25.8615 12.5556 25.5889L12.5556 24.0111C12.5364 23.9951 12.4918 23.9682 12.4203 23.9578C10.6717 23.7016 9.2984 22.3283 9.04226 20.5797C8.99978 20.2897 8.99988 19.9625 9.00001 19.5208C9.00002 19.4958 9.00003 19.4703 9.00003 19.4444L9.00003 14.7587C9.00002 13.9537 9.00001 13.2894 9.04422 12.7482C9.09015 12.1861 9.18871 11.6694 9.436 11.184C9.8195 10.4314 10.4314 9.81947 11.1841 9.43597C11.6694 9.18868 12.1861 9.09012 12.7482 9.04419C13.2894 8.99998 13.9538 8.99999 14.7587 9ZM12.7102 21.9789C13.5983 22.109 14.5556 22.8142 14.5556 23.9916V25.0644L17 22.5894L17 22.1615C17 21.6343 17 21.1795 17.0306 20.805C17.0629 20.4096 17.1342 20.0164 17.327 19.638C17.6146 19.0735 18.0736 18.6146 18.6381 18.327C19.0164 18.1342 19.4097 18.0629 19.805 18.0306C20.1796 18 20.6343 18 21.1615 18L26 18V14.8C26 13.9434 25.9993 13.3611 25.9625 12.911C25.9267 12.4726 25.8617 12.2484 25.782 12.092C25.5903 11.7157 25.2843 11.4097 24.908 11.218C24.7516 11.1383 24.5274 11.0734 24.089 11.0376C23.6389 11.0008 23.0566 11 22.2 11H14.8C13.9435 11 13.3612 11.0008 12.9111 11.0376C12.4727 11.0734 12.2484 11.1383 12.092 11.218C11.7157 11.4097 11.4098 11.7157 11.218 12.092C11.1383 12.2484 11.0734 12.4726 11.0376 12.911C11.0008 13.3611 11 13.9434 11 14.8V19.4444C11 19.9959 11.0027 20.1639 11.0211 20.2899C11.1492 21.1642 11.8359 21.8508 12.7102 21.9789ZM19 22.9994C19 22.9998 19 23.0003 19 23.0007V24.7143C19 25.2908 19.0008 25.6631 19.024 25.9464C19.0462 26.2181 19.0838 26.3188 19.109 26.3683C19.2049 26.5564 19.3579 26.7094 19.546 26.8053C19.5955 26.8305 19.6962 26.8682 19.9679 26.8904C20.2512 26.9135 20.6235 26.9143 21.2 26.9143H22.9969C23.0181 26.9143 23.0391 26.9143 23.06 26.9143C23.3707 26.914 23.6448 26.9138 23.9169 26.964C24.1561 27.0081 24.3892 27.0811 24.6108 27.1815C24.8628 27.2956 25.0878 27.4523 25.3428 27.6298C25.3598 27.6417 25.3771 27.6537 25.3945 27.6658L26 28.0868V27.9143C26 27.362 26.4477 26.9143 27 26.9143C27.4797 26.9143 27.7893 26.9137 28.0263 26.8976C28.2543 26.882 28.3411 26.8554 28.3827 26.8382C28.6277 26.7367 28.8224 26.542 28.9239 26.297C28.9411 26.2554 28.9678 26.1685 28.9833 25.9405C28.9995 25.7035 29 25.3939 29 24.9143V22.2C29 21.6234 28.9993 21.2512 28.9761 20.9678C28.9539 20.6962 28.9162 20.5955 28.891 20.546C28.7952 20.3578 28.6422 20.2049 28.454 20.109C28.4046 20.0838 28.3039 20.0461 28.0322 20.0239C27.7489 20.0008 27.3766 20 26.8 20H21.2C20.6235 20 20.2512 20.0008 19.9679 20.0239C19.6962 20.0461 19.5955 20.0838 19.546 20.109C19.3579 20.2049 19.2049 20.3578 19.109 20.546C19.0838 20.5955 19.0462 20.6962 19.024 20.9678C19.0008 21.2512 19 21.6234 19 22.2V22.9994Z" fill="#3E19A3"/>
</svg>
