<svg width="31" height="30" viewBox="0 0 31 30" fill="none" xmlns="http://www.w3.org/2000/svg">
<path fill-rule="evenodd" clip-rule="evenodd" d="M5.93291 12.6001C5.93291 5.96445 11.3452 0.600098 18.0031 0.600098C24.661 0.600098 30.0733 5.96445 30.0733 12.6001C30.0733 14.0959 29.7973 15.5306 29.2923 16.8547C29.2435 16.9825 29.2151 17.0572 29.1955 17.1123C29.193 17.1194 29.1908 17.1255 29.1891 17.1307C29.1892 17.1325 29.1894 17.1345 29.1896 17.1366C29.1938 17.1806 29.2011 17.2406 29.2152 17.3549L29.7565 21.7523C29.7816 21.9551 29.81 22.1853 29.8168 22.3856C29.8242 22.6073 29.8149 22.9514 29.6497 23.3125C29.4433 23.7635 29.0767 24.1217 28.6211 24.3177C28.2563 24.4745 27.912 24.4759 27.6905 24.4633C27.4904 24.4519 27.261 24.4182 27.0588 24.3885C27.0464 24.3867 27.0341 24.3849 27.0219 24.3831L22.7749 23.7606C22.6569 23.7433 22.5949 23.7343 22.5494 23.7289C22.5473 23.7287 22.5453 23.7284 22.5434 23.7282C22.5381 23.73 22.5318 23.7321 22.5245 23.7347C22.4676 23.7545 22.3903 23.7833 22.258 23.8329C20.9328 24.3292 19.4982 24.6001 18.0031 24.6001C17.7637 24.6001 17.5257 24.5932 17.2895 24.5794C16.0188 27.711 12.9998 29.9334 9.44173 29.9334C8.47153 29.9334 7.53691 29.7668 6.66557 29.4593C6.52156 29.4085 6.43223 29.377 6.36671 29.3553C6.35483 29.3514 6.34508 29.3483 6.33729 29.3458C6.33507 29.346 6.33266 29.3463 6.33007 29.3466C6.28433 29.3516 6.22199 29.3601 6.10645 29.3758L2.11338 29.9212C1.68131 29.9802 1.24769 29.8242 0.952246 29.5034C0.656806 29.1827 0.536891 28.7377 0.631143 28.3119L1.44627 24.6297C1.47459 24.5017 1.48975 24.4327 1.49949 24.3819C1.50004 24.379 1.50054 24.3763 1.501 24.3739C1.49858 24.3654 1.49551 24.355 1.49168 24.3423C1.46972 24.2696 1.43743 24.1705 1.38494 24.0098C1.10269 23.1458 0.950506 22.223 0.950506 21.2668C0.950506 17.7653 2.99479 14.7219 5.95677 13.3601C5.94094 13.1086 5.93291 12.8552 5.93291 12.6001ZM8.59967 12.642C8.87651 12.6143 9.1574 12.6001 9.44173 12.6001C14.1616 12.6001 17.933 16.5109 17.933 21.2668C17.933 21.4908 17.9246 21.713 17.9081 21.933C17.9398 21.9333 17.9714 21.9334 18.0031 21.9334C19.1742 21.9334 20.2922 21.7216 21.3226 21.3356C21.3412 21.3287 21.3603 21.3215 21.3798 21.3142C21.5681 21.2432 21.7904 21.1595 21.9935 21.1168C22.179 21.0778 22.3375 21.0609 22.5271 21.0598C22.7339 21.0586 22.9443 21.0899 23.1142 21.1151C23.1304 21.1175 23.1462 21.1198 23.1616 21.1221L27.0625 21.6939L26.5685 17.6808C26.5667 17.6658 26.5647 17.6504 26.5628 17.6347C26.5422 17.4701 26.5168 17.2663 26.5215 17.0666C26.5258 16.8833 26.5444 16.7307 26.5841 16.5518C26.6275 16.3561 26.7098 16.1415 26.7796 15.9595C26.7868 15.9407 26.7938 15.9223 26.8007 15.9042C27.1919 14.8788 27.4066 13.7658 27.4066 12.6001C27.4066 7.45367 23.2048 3.26676 18.0031 3.26676C12.8014 3.26676 8.59958 7.45367 8.59958 12.6001C8.59958 12.6141 8.59961 12.628 8.59967 12.642ZM15.0807 22.7778C15.2018 22.296 15.2663 21.7898 15.2663 21.2668C15.2663 17.9224 12.6283 15.2668 9.44173 15.2668C6.25517 15.2668 3.61717 17.9224 3.61717 21.2668C3.61717 21.9388 3.72396 22.5823 3.91978 23.1817C3.92755 23.2055 3.93551 23.2297 3.94359 23.2543C4.01858 23.4825 4.10358 23.7411 4.13772 23.9586C4.16975 24.1627 4.17744 24.3198 4.16551 24.526C4.15285 24.7449 4.10256 24.9701 4.06156 25.1537C4.05757 25.1715 4.05367 25.189 4.04991 25.206L3.64833 27.0201L5.74561 26.7337C5.76098 26.7316 5.77674 26.7294 5.79286 26.7272C5.95871 26.7043 6.16208 26.6761 6.35715 26.6775C6.54186 26.6787 6.6793 26.6927 6.86046 26.7289C7.05261 26.7672 7.28309 26.8489 7.48763 26.9215C7.50977 26.9293 7.53162 26.9371 7.55307 26.9446C8.14393 27.1532 8.77868 27.2668 9.44173 27.2668C12.1078 27.2668 14.3899 25.4077 15.0643 22.8418C15.0693 22.8202 15.0747 22.7989 15.0807 22.7778Z" fill="#3E19A3"/>
</svg>
