<svg width="25" height="24" viewBox="0 0 25 24" fill="none" xmlns="http://www.w3.org/2000/svg">
<path fill-rule="evenodd" clip-rule="evenodd" d="M7.25873 1H14.7413C15.5463 0.999988 16.2107 0.999977 16.7519 1.04419C17.314 1.09012 17.8307 1.18868 18.316 1.43597C19.0686 1.81947 19.6806 2.43139 20.0641 3.18404C20.3113 3.66937 20.4099 4.18608 20.4558 4.74817C20.5001 5.28936 20.5 5.95372 20.5 6.75868V10.0176C20.5673 10.0212 20.6323 10.0254 20.6951 10.0306C21.0904 10.0629 21.4836 10.1342 21.862 10.327C22.4265 10.6146 22.8854 11.0735 23.173 11.638C23.3658 12.0164 23.4372 12.4096 23.4695 12.805C23.5001 13.1795 23.5 13.6343 23.5 14.1614V16.9463C23.5 17.3849 23.5001 17.7634 23.4787 18.0767C23.4562 18.4065 23.4067 18.7364 23.2717 19.0623C22.9672 19.7974 22.3832 20.3814 21.6481 20.6859C21.3222 20.8209 20.9922 20.8704 20.6624 20.8929C20.6101 20.8965 20.556 20.8995 20.5 20.902V22C20.5 22.3723 20.2932 22.7138 19.9633 22.8862C19.6333 23.0587 19.2349 23.0336 18.9292 22.8211L16.7528 21.3079C16.4176 21.0749 16.3497 21.0324 16.2857 21.0034C16.2118 20.9699 16.1341 20.9455 16.0544 20.9308C15.9852 20.9181 15.9052 20.9143 15.4969 20.9143H13.6615C13.1343 20.9143 12.6796 20.9143 12.305 20.8837C11.9097 20.8514 11.5164 20.7801 11.1381 20.5873C10.5736 20.2997 10.1146 19.8407 9.82701 19.2763C9.63422 18.8979 9.5629 18.5047 9.5306 18.1093C9.51405 17.9068 9.50646 17.6808 9.50297 17.4326L8.11004 18.8429C7.91849 19.0369 7.73062 19.2272 7.56596 19.3669C7.41972 19.4909 7.11021 19.7413 6.67978 19.7771C6.19995 19.8169 5.73016 19.624 5.4168 19.2585C5.13567 18.9306 5.09142 18.5349 5.07452 18.3439C5.0555 18.1289 5.05554 17.8615 5.05558 17.5889L5.05559 16.0111C5.03636 15.9951 4.99179 15.9682 4.9203 15.9578C3.17169 15.7016 1.7984 14.3283 1.54226 12.5797C1.49978 12.2897 1.49988 11.9625 1.50001 11.5208C1.50002 11.4958 1.50003 11.4703 1.50003 11.4444L1.50003 6.7587C1.50002 5.95373 1.50001 5.28937 1.54422 4.74817C1.59015 4.18608 1.68871 3.66937 1.936 3.18404C2.3195 2.43139 2.93142 1.81947 3.68407 1.43597C4.1694 1.18868 4.68611 1.09012 5.2482 1.04419C5.7894 0.999977 6.45376 0.999988 7.25873 1ZM5.21017 13.9789C6.09832 14.109 7.05559 14.8142 7.05559 15.9916V17.0644L9.50003 14.5894L9.50003 14.1615C9.50001 13.6343 9.5 13.1795 9.5306 12.805C9.5629 12.4096 9.63422 12.0164 9.82701 11.638C10.1146 11.0735 10.5736 10.6146 11.1381 10.327C11.5164 10.1342 11.9097 10.0629 12.305 10.0306C12.6796 9.99997 13.1343 9.99998 13.6615 10L18.5 10V6.8C18.5 5.94342 18.4993 5.36113 18.4625 4.91104C18.4267 4.47262 18.3617 4.24842 18.282 4.09202C18.0903 3.7157 17.7843 3.40973 17.408 3.21799C17.2516 3.1383 17.0274 3.07337 16.589 3.03755C16.1389 3.00078 15.5566 3 14.7 3H7.30003C6.44345 3 5.86116 3.00078 5.41107 3.03755C4.97265 3.07337 4.74845 3.1383 4.59205 3.21799C4.21572 3.40973 3.90976 3.7157 3.71802 4.09202C3.63833 4.24842 3.5734 4.47262 3.53758 4.91104C3.50081 5.36113 3.50003 5.94342 3.50003 6.8V11.4444C3.50003 11.9959 3.50269 12.1639 3.52115 12.2899C3.64921 13.1642 4.33586 13.8508 5.21017 13.9789ZM11.5 14.9994C11.5 14.9998 11.5 15.0003 11.5 15.0007V16.7143C11.5 17.2908 11.5008 17.6631 11.524 17.9464C11.5462 18.2181 11.5838 18.3188 11.609 18.3683C11.7049 18.5564 11.8579 18.7094 12.046 18.8053C12.0955 18.8305 12.1962 18.8682 12.4679 18.8904C12.7512 18.9135 13.1235 18.9143 13.7 18.9143H15.4969C15.5181 18.9143 15.5391 18.9143 15.56 18.9143C15.8707 18.914 16.1448 18.9138 16.4169 18.964C16.6561 19.0081 16.8892 19.0811 17.1108 19.1815C17.3628 19.2956 17.5878 19.4523 17.8428 19.6298C17.8598 19.6417 17.8771 19.6537 17.8945 19.6658L18.5 20.0868V19.9143C18.5 19.362 18.9477 18.9143 19.5 18.9143C19.9797 18.9143 20.2893 18.9137 20.5263 18.8976C20.7543 18.882 20.8411 18.8554 20.8827 18.8382C21.1277 18.7367 21.3224 18.542 21.4239 18.297C21.4411 18.2554 21.4678 18.1685 21.4833 17.9405C21.4995 17.7035 21.5 17.3939 21.5 16.9143V14.2C21.5 13.6234 21.4993 13.2512 21.4761 12.9678C21.4539 12.6962 21.4162 12.5955 21.391 12.546C21.2952 12.3578 21.1422 12.2049 20.954 12.109C20.9046 12.0838 20.8039 12.0461 20.5322 12.0239C20.2489 12.0008 19.8766 12 19.3 12H13.7C13.1235 12 12.7512 12.0008 12.4679 12.0239C12.1962 12.0461 12.0955 12.0838 12.046 12.109C11.8579 12.2049 11.7049 12.3578 11.609 12.546C11.5838 12.5955 11.5462 12.6962 11.524 12.9678C11.5008 13.2512 11.5 13.6234 11.5 14.2V14.9994Z" fill="#222222"/>
</svg>
