<svg width="56" height="56" viewBox="0 0 56 56" fill="none" xmlns="http://www.w3.org/2000/svg">
<rect x="4" y="4" width="48" height="48" rx="24" fill="#FFC2B5"/>
<path fill-rule="evenodd" clip-rule="evenodd" d="M27.1615 17H28.8385C29.3657 17 29.8205 17 30.195 17.0306C30.5904 17.0629 30.9836 17.1342 31.362 17.327C31.9265 17.6146 32.3854 18.0735 32.673 18.638C32.8658 19.0164 32.9371 19.4096 32.9694 19.805C32.9969 20.1408 32.9997 20.541 33 21H37C37.5523 21 38 21.4477 38 22C38 22.5523 37.5523 23 37 23H36V33.2413C36 34.0463 36 34.7106 35.9558 35.2518C35.9099 35.8139 35.8113 36.3306 35.564 36.816C35.1805 37.5686 34.5686 38.1805 33.816 38.564C33.3306 38.8113 32.8139 38.9099 32.2518 38.9558C31.7106 39 31.0463 39 30.2413 39H25.7587C24.9537 39 24.2894 39 23.7482 38.9558C23.1861 38.9099 22.6694 38.8113 22.184 38.564C21.4314 38.1805 20.8195 37.5686 20.436 36.816C20.1887 36.3306 20.0901 35.8139 20.0442 35.2518C20 34.7106 20 34.0463 20 33.2413L20 23H19C18.4477 23 18 22.5523 18 22C18 21.4477 18.4477 21 19 21H23C23.0003 20.541 23.0031 20.1408 23.0306 19.805C23.0629 19.4096 23.1342 19.0164 23.327 18.638C23.6146 18.0735 24.0735 17.6146 24.638 17.327C25.0164 17.1342 25.4096 17.0629 25.805 17.0306C26.1795 17 26.6343 17 27.1615 17ZM22 23V33.2C22 34.0566 22.0008 34.6389 22.0376 35.089C22.0734 35.5274 22.1383 35.7516 22.218 35.908C22.4097 36.2843 22.7157 36.5903 23.092 36.782C23.2484 36.8617 23.4726 36.9266 23.911 36.9625C24.3611 36.9992 24.9434 37 25.8 37H30.2C31.0566 37 31.6389 36.9992 32.089 36.9625C32.5274 36.9266 32.7516 36.8617 32.908 36.782C33.2843 36.5903 33.5903 36.2843 33.782 35.908C33.8617 35.7516 33.9266 35.5274 33.9624 35.089C33.9992 34.6389 34 34.0566 34 33.2V23H22ZM30.9999 21H25.0001C25.0005 20.5349 25.0036 20.217 25.0239 19.9678C25.0461 19.6962 25.0838 19.5955 25.109 19.546C25.2049 19.3578 25.3578 19.2049 25.546 19.109C25.5955 19.0838 25.6962 19.0461 25.9678 19.0239C26.2512 19.0008 26.6234 19 27.2 19H28.8C29.3766 19 29.7488 19.0008 30.0322 19.0239C30.3038 19.0461 30.4045 19.0838 30.454 19.109C30.6422 19.2049 30.7951 19.3578 30.891 19.546C30.9162 19.5955 30.9539 19.6962 30.9761 19.9678C30.9964 20.217 30.9995 20.5349 30.9999 21ZM26 26.5C26.5523 26.5 27 26.9477 27 27.5V32.5C27 33.0523 26.5523 33.5 26 33.5C25.4477 33.5 25 33.0523 25 32.5V27.5C25 26.9477 25.4477 26.5 26 26.5ZM30 26.5C30.5523 26.5 31 26.9477 31 27.5V32.5C31 33.0523 30.5523 33.5 30 33.5C29.4477 33.5 29 33.0523 29 32.5V27.5C29 26.9477 29.4477 26.5 30 26.5Z" fill="#D82F09"/>
<rect x="4" y="4" width="48" height="48" rx="24" stroke="#FFECE8" stroke-width="8"/>
</svg>
