<svg width="32" height="32" viewBox="0 0 32 32" fill="none" xmlns="http://www.w3.org/2000/svg">
<path fill-rule="evenodd" clip-rule="evenodd" d="M7 10C7 9.44772 7.44772 9 8 9H25C25.5523 9 26 9.44772 26 10C26 10.5523 25.5523 11 25 11H8C7.44772 11 7 10.5523 7 10ZM7 14C7 13.4477 7.44772 13 8 13H21C21.5523 13 22 13.4477 22 14C22 14.5523 21.5523 15 21 15H8C7.44772 15 7 14.5523 7 14ZM7 18C7 17.4477 7.44772 17 8 17H25C25.5523 17 26 17.4477 26 18C26 18.5523 25.5523 19 25 19H8C7.44772 19 7 18.5523 7 18ZM7 22C7 21.4477 7.44772 21 8 21H21C21.5523 21 22 21.4477 22 22C22 22.5523 21.5523 23 21 23H8C7.44772 23 7 22.5523 7 22Z" fill="#222222"/>
</svg>
