<svg width="32" height="32" viewBox="0 0 32 32" fill="none" xmlns="http://www.w3.org/2000/svg">
<rect width="32" height="32" fill="#D8CAFF"/>
<path fill-rule="evenodd" clip-rule="evenodd" d="M8 10C8 9.44772 8.44772 9 9 9H26C26.5523 9 27 9.44772 27 10C27 10.5523 26.5523 11 26 11H9C8.44772 11 8 10.5523 8 10ZM12 14C12 13.4477 12.4477 13 13 13H26C26.5523 13 27 13.4477 27 14C27 14.5523 26.5523 15 26 15H13C12.4477 15 12 14.5523 12 14ZM8 18C8 17.4477 8.44772 17 9 17H26C26.5523 17 27 17.4477 27 18C27 18.5523 26.5523 19 26 19H9C8.44772 19 8 18.5523 8 18ZM12 22C12 21.4477 12.4477 21 13 21H26C26.5523 21 27 21.4477 27 22C27 22.5523 26.5523 23 26 23H13C12.4477 23 12 22.5523 12 22Z" fill="#222222"/>
</svg>
