<svg width="32" height="32" viewBox="0 0 32 32" fill="none" xmlns="http://www.w3.org/2000/svg">
<rect width="32" height="32" fill="#D8CAFF"/>
<path d="M20.9 14.73C22.073 13.8686 22.8953 12.4543 22.8953 11.1429C22.8953 8.23714 20.7791 6 18.0581 6H10.5V24H19.0135C21.5409 24 23.5 21.8143 23.5 19.1271C23.5 17.1729 22.46 15.5014 20.9 14.73ZM14.1279 9.21429H17.7558C18.7595 9.21429 19.5698 10.0757 19.5698 11.1429C19.5698 12.21 18.7595 13.0714 17.7558 13.0714H14.1279V9.21429ZM18.3605 20.7857H14.1279V16.9286H18.3605C19.3642 16.9286 20.1744 17.79 20.1744 18.8571C20.1744 19.9243 19.3642 20.7857 18.3605 20.7857Z" fill="#111111"/>
</svg>
