<svg width="20" height="20" viewBox="0 0 20 20" fill="none" xmlns="http://www.w3.org/2000/svg">
<g clip-path="url(#clip0_609_2156)">
<path d="M19.1667 2.5H0.833333C0.61232 2.5 0.400358 2.5878 0.244078 2.74408C0.0877974 2.90036 0 3.11232 0 3.33333L0 16.6667C0 16.8877 0.0877974 17.0996 0.244078 17.2559C0.400358 17.4122 0.61232 17.5 0.833333 17.5H19.1667C19.3877 17.5 19.5996 17.4122 19.7559 17.2559C19.9122 17.0996 20 16.8877 20 16.6667V3.33333C20 3.11232 19.9122 2.90036 19.7559 2.74408C19.5996 2.5878 19.3877 2.5 19.1667 2.5Z" fill="#002781"/>
<path d="M20 3.33333C20 3.11232 19.9122 2.90036 19.7559 2.74408C19.5996 2.5878 19.3877 2.5 19.1667 2.5H17.0163L11.6667 6.615V2.5H8.33333V6.615L2.98375 2.5H0.833333C0.61232 2.5 0.400358 2.5878 0.244078 2.74408C0.0877974 2.90036 0 3.11232 0 3.33333L0 4.41083L5.09958 8.33333H0V11.6667H5.09958L0 15.5896V16.6667C0 16.8877 0.0877974 17.0996 0.244078 17.2559C0.400358 17.4122 0.61232 17.5 0.833333 17.5H2.98375L8.33333 13.385V17.5H11.6667V13.385L17.0163 17.5H19.1667C19.3877 17.5 19.5996 17.4122 19.7559 17.2559C19.9122 17.0996 20 16.8877 20 16.6667V15.5896L14.9004 11.6667H20V8.33333H14.9004L20 4.41083V3.33333Z" fill="#E6E6E6"/>
<path d="M20 9.16667H10.8333V2.5H9.16667V9.16667H0V10.8333H9.16667V17.5H10.8333V10.8333H20V9.16667Z" fill="#D10D24"/>
<path d="M8.33335 11.5513L0.65918 17.4813C0.71644 17.4935 0.774802 17.4998 0.833346 17.5H1.82751L8.33335 12.4729V11.5513Z" fill="#D10D24"/>
<path d="M11.6667 8.44875L19.3409 2.51875C19.2837 2.50657 19.2253 2.50029 19.1667 2.5H18.1726L11.6667 7.5275V8.44875Z" fill="#D10D24"/>
<path d="M7.5025 8.33336L0.25625 2.73419C0.175266 2.81156 0.110805 2.90455 0.0667621 3.00753C0.0227192 3.11051 7.85145e-06 3.22135 0 3.33336L0 3.45836L6.31 8.33336H7.5025Z" fill="#D10D24"/>
<path d="M12.4976 11.6667L19.7438 17.2659C19.8248 17.1885 19.8893 17.0955 19.9333 16.9925C19.9773 16.8895 20.0001 16.7787 20.0001 16.6667V16.5417L13.6901 11.6667H12.4976Z" fill="#D10D24"/>
</g>
<defs>
<clipPath id="clip0_609_2156">
<rect width="20" height="20" fill="white"/>
</clipPath>
</defs>
</svg>
