<svg width="24" height="24" viewBox="0 0 24 24" fill="none" xmlns="http://www.w3.org/2000/svg">
<path d="M18.6972 3.78082C18.1789 3.78082 17.6923 3.93882 17.2878 4.21058C16.9402 3.22465 16.0048 2.51681 14.8988 2.51681C14.3806 2.51681 13.8939 2.67481 13.4895 2.94657C13.1419 1.96065 12.2065 1.25281 11.1005 1.25281C9.9945 1.25281 9.06545 1.96065 8.72417 2.94025C8.31969 2.66849 7.83937 2.51049 7.31481 2.51049C5.91808 2.51049 4.7868 3.64178 4.7868 5.0385V7.93939L3.55439 9.1718C2.72015 10.006 2.25879 11.1184 2.25879 12.3002V14.2152C2.25879 15.397 2.72015 16.5093 3.55439 17.3436L6.0824 19.8716C7.92785 21.7234 10.3927 22.7409 13.0028 22.7409C17.5343 22.7409 21.2252 19.0563 21.2252 14.5185V6.30883C21.2252 4.9121 20.0939 3.78082 18.6972 3.78082ZM19.9612 14.5312C19.9612 18.3674 16.8391 21.4895 13.0028 21.4895C10.7276 21.4895 8.58513 20.6047 6.97353 18.9931L4.44552 16.4651C3.85143 15.8647 3.52279 15.0747 3.52279 14.2278V12.3128C3.52279 11.466 3.85143 10.676 4.44552 10.0756L4.7868 9.73428V10.7392C4.7868 11.0868 5.0712 11.3712 5.4188 11.3712C5.7664 11.3712 6.0508 11.0868 6.0508 10.7392V8.21115V5.05114C6.0508 4.35594 6.6196 3.78714 7.31481 3.78714C8.01001 3.78714 8.57881 4.35594 8.57881 5.05114V6.94715C8.57881 7.29475 8.86321 7.57915 9.21081 7.57915C9.55841 7.57915 9.84282 7.29475 9.84282 6.94715V3.78714C9.84282 3.09193 10.4116 2.52313 11.1068 2.52313C11.802 2.52313 12.3708 3.09193 12.3708 3.78714V6.94715C12.3708 7.29475 12.6552 7.57915 13.0028 7.57915C13.3504 7.57915 13.6348 7.29475 13.6348 6.94715V5.05114C13.6348 4.35594 14.2036 3.78714 14.8988 3.78714C15.594 3.78714 16.1628 4.35594 16.1628 5.05114V6.94715C16.1628 7.29475 16.4472 7.57915 16.7948 7.57915C17.1424 7.57915 17.4268 7.29475 17.4268 6.94715V6.31515C17.4268 5.61994 17.9956 5.05114 18.6908 5.05114C19.386 5.05114 19.9549 5.61994 19.9549 6.31515V14.5312H19.9612Z" fill="black"/>
<path d="M13.0032 23C10.3172 23 7.79546 21.9572 5.89945 20.0612L3.37144 17.5332C2.48664 16.6484 2 15.4729 2 14.2215V12.3065C2 11.0552 2.48664 9.88595 3.37144 9.00115L4.52801 7.84458V5.04481C4.52801 3.50905 5.77305 2.264 7.30882 2.264C7.75754 2.264 8.19994 2.37144 8.59178 2.58001C9.05315 1.62568 10.0264 1 11.1008 1C12.1752 1 13.1485 1.62568 13.6099 2.58001C14.008 2.37144 14.4441 2.264 14.8928 2.264C15.9673 2.264 16.9405 2.88969 17.4019 3.84401C17.8001 3.63545 18.2361 3.52801 18.6849 3.52801C20.2206 3.52801 21.4657 4.77305 21.4657 6.30882V14.5312C21.4783 19.2017 17.68 23 13.0032 23ZM7.31514 2.76961C6.05746 2.76961 5.03993 3.79345 5.03993 5.04481V8.04683L3.73169 9.35507C2.94168 10.1451 2.51192 11.1942 2.51192 12.3065V14.2215C2.51192 15.3338 2.948 16.3829 3.73169 17.1729L6.2597 19.7009C8.0609 21.5022 10.4562 22.4944 13.0032 22.4944C17.3956 22.4944 20.9727 18.9173 20.9727 14.5248V6.30882C20.9727 5.05113 19.9489 4.03361 18.6975 4.03361C18.2425 4.03361 17.8064 4.16633 17.4335 4.41913L17.1617 4.60241L17.0543 4.29273C16.732 3.38265 15.8724 2.76961 14.9055 2.76961C14.4504 2.76961 14.0144 2.90233 13.6415 3.15513L13.3697 3.33841L13.2623 3.02873C12.94 2.11864 12.0804 1.5056 11.1135 1.5056C10.1465 1.5056 9.28699 2.11864 8.96466 3.02873L8.85722 3.33841L8.58546 3.15513C8.20626 2.90233 7.77018 2.76961 7.31514 2.76961ZM13.0032 21.736C10.6584 21.736 8.45274 20.8259 6.7969 19.1637L4.26889 16.6357C3.62425 15.9911 3.27032 15.1316 3.27032 14.2215V12.3065C3.27032 11.3964 3.62425 10.5369 4.26889 9.89227L5.03993 9.12123V10.7328C5.03993 10.9414 5.21057 11.112 5.41913 11.112C5.62769 11.112 5.79833 10.9414 5.79833 10.7328V5.04481C5.79833 4.21057 6.4809 3.52801 7.31514 3.52801C8.14938 3.52801 8.83194 4.21057 8.83194 5.04481V6.94082C8.83194 7.14938 9.00259 7.32002 9.21115 7.32002C9.41971 7.32002 9.59035 7.14938 9.59035 6.94082V3.78081C9.59035 2.94657 10.2729 2.264 11.1072 2.264C11.9414 2.264 12.624 2.94657 12.624 3.78081V6.94082C12.624 7.14938 12.7946 7.32002 13.0032 7.32002C13.2117 7.32002 13.3824 7.14938 13.3824 6.94082V5.04481C13.3824 4.21057 14.0649 3.52801 14.8992 3.52801C15.7334 3.52801 16.416 4.21057 16.416 5.04481V6.94082C16.416 7.14938 16.5866 7.32002 16.7952 7.32002C17.0037 7.32002 17.1744 7.14938 17.1744 6.94082V6.30882C17.1744 5.47458 17.8569 4.79201 18.6912 4.79201C19.5254 4.79201 20.208 5.47458 20.208 6.30882V14.5312C20.2143 18.5001 16.9785 21.736 13.0032 21.736ZM4.53433 10.3473C4.04137 10.8845 3.77593 11.5734 3.77593 12.3065V14.2215C3.77593 14.9988 4.07929 15.7257 4.62913 16.2818L7.15714 18.8098C8.71818 20.3709 10.7975 21.2304 13.0032 21.2304C16.7004 21.2304 19.7087 18.2221 19.7087 14.5248V6.30882C19.7087 5.75266 19.2537 5.29762 18.6975 5.29762C18.1413 5.29762 17.6863 5.75266 17.6863 6.30882V6.94082C17.6863 7.42746 17.2881 7.82562 16.8015 7.82562C16.3149 7.82562 15.9167 7.42746 15.9167 6.94082V5.04481C15.9167 4.48865 15.4616 4.03361 14.9055 4.03361C14.3493 4.03361 13.8943 4.48865 13.8943 5.04481V6.94082C13.8943 7.42746 13.4961 7.82562 13.0095 7.82562C12.5228 7.82562 12.1247 7.42746 12.1247 6.94082V3.78081C12.1247 3.22465 11.6696 2.76961 11.1135 2.76961C10.5573 2.76961 10.1023 3.22465 10.1023 3.78081V6.94082C10.1023 7.42746 9.70411 7.82562 9.21747 7.82562C8.73082 7.82562 8.33266 7.42746 8.33266 6.94082V5.04481C8.33266 4.48865 7.87762 4.03361 7.32146 4.03361C6.7653 4.03361 6.31026 4.48865 6.31026 5.04481V10.7328C6.31026 11.2195 5.91209 11.6176 5.42545 11.6176C4.93881 11.6176 4.54065 11.2195 4.54065 10.7328V10.3473H4.53433Z" fill="black"/>
</svg>
