<svg width="25" height="24" viewBox="0 0 25 24" fill="none" xmlns="http://www.w3.org/2000/svg">
<path fill-rule="evenodd" clip-rule="evenodd" d="M12.5 3C12.0946 3 11.8 3.31705 11.8 3.66667V10.8889C11.8 11.4412 11.3523 11.8889 10.8 11.8889C10.2477 11.8889 9.8 11.4412 9.8 10.8889V4.77778C9.8 4.42816 9.50536 4.11111 9.1 4.11111C8.69464 4.11111 8.4 4.42816 8.4 4.77778V14.2222C8.4 14.7745 7.95228 15.2222 7.4 15.2222C6.84772 15.2222 6.4 14.7745 6.4 14.2222V11.4444C6.4 11.0948 6.10536 10.7778 5.7 10.7778C5.29464 10.7778 5 11.0948 5 11.4444V13.6667C5 17.6982 8.3391 21 12.5 21C16.6609 21 20 17.6982 20 13.6667V8.11111C20 7.7615 19.7054 7.44444 19.3 7.44444C18.8946 7.44444 18.6 7.7615 18.6 8.11111V10.8889C18.6 11.4412 18.1523 11.8889 17.6 11.8889C17.0477 11.8889 16.6 11.4412 16.6 10.8889V4.77778C16.6 4.42816 16.3054 4.11111 15.9 4.11111C15.4946 4.11111 15.2 4.42816 15.2 4.77778V10.8889C15.2 11.4412 14.7523 11.8889 14.2 11.8889C13.6477 11.8889 13.2 11.4412 13.2 10.8889V3.66667C13.2 3.31705 12.9054 3 12.5 3ZM14.8358 2.32694C14.365 1.52874 13.4876 1 12.5 1C11.5124 1 10.635 1.52874 10.1642 2.32694C9.83639 2.18783 9.47618 2.11111 9.1 2.11111C7.62759 2.11111 6.4 3.28644 6.4 4.77778V8.86873C6.17613 8.80936 5.94135 8.77778 5.7 8.77778C4.22759 8.77778 3 9.95311 3 11.4444V13.6667C3 18.8399 7.27206 23 12.5 23C17.7279 23 22 18.8399 22 13.6667V8.11111C22 6.61978 20.7724 5.44444 19.3 5.44444C19.0586 5.44444 18.8239 5.47603 18.6 5.5354V4.77778C18.6 3.28644 17.3724 2.11111 15.9 2.11111C15.5238 2.11111 15.1636 2.18783 14.8358 2.32694Z" fill="#222222"/>
</svg>
