<svg width="40" height="40" viewBox="0 0 40 40" fill="none" xmlns="http://www.w3.org/2000/svg">
<rect width="40" height="40" fill="#D8CAFF"/>
<path fill-rule="evenodd" clip-rule="evenodd" d="M20 11C19.5946 11 19.3 11.3171 19.3 11.6667V18.8889C19.3 19.4412 18.8523 19.8889 18.3 19.8889C17.7477 19.8889 17.3 19.4412 17.3 18.8889V12.7778C17.3 12.4282 17.0054 12.1111 16.6 12.1111C16.1946 12.1111 15.9 12.4282 15.9 12.7778V22.2222C15.9 22.7745 15.4523 23.2222 14.9 23.2222C14.3477 23.2222 13.9 22.7745 13.9 22.2222V19.4444C13.9 19.0948 13.6054 18.7778 13.2 18.7778C12.7946 18.7778 12.5 19.0948 12.5 19.4444V21.6667C12.5 25.6982 15.8391 29 20 29C24.1609 29 27.5 25.6982 27.5 21.6667V16.1111C27.5 15.7615 27.2054 15.4444 26.8 15.4444C26.3946 15.4444 26.1 15.7615 26.1 16.1111V18.8889C26.1 19.4412 25.6523 19.8889 25.1 19.8889C24.5477 19.8889 24.1 19.4412 24.1 18.8889V12.7778C24.1 12.4282 23.8054 12.1111 23.4 12.1111C22.9946 12.1111 22.7 12.4282 22.7 12.7778V18.8889C22.7 19.4412 22.2523 19.8889 21.7 19.8889C21.1477 19.8889 20.7 19.4412 20.7 18.8889V11.6667C20.7 11.3171 20.4054 11 20 11ZM22.3358 10.3269C21.865 9.52874 20.9876 9 20 9C19.0124 9 18.135 9.52874 17.6642 10.3269C17.3364 10.1878 16.9762 10.1111 16.6 10.1111C15.1276 10.1111 13.9 11.2864 13.9 12.7778V16.8687C13.6761 16.8094 13.4414 16.7778 13.2 16.7778C11.7276 16.7778 10.5 17.9531 10.5 19.4444V21.6667C10.5 26.8399 14.7721 31 20 31C25.2279 31 29.5 26.8399 29.5 21.6667V16.1111C29.5 14.6198 28.2724 13.4444 26.8 13.4444C26.5586 13.4444 26.3239 13.476 26.1 13.5354V12.7778C26.1 11.2864 24.8724 10.1111 23.4 10.1111C23.0238 10.1111 22.6636 10.1878 22.3358 10.3269Z" fill="#3E19A3"/>
</svg>
