<svg width="40" height="40" viewBox="0 0 41 40" fill="none" xmlns="http://www.w3.org/2000/svg">
<path fill-rule="evenodd" clip-rule="evenodd" d="M20.5 11C20.0946 11 19.8 11.3171 19.8 11.6667V18.8889C19.8 19.4412 19.3523 19.8889 18.8 19.8889C18.2477 19.8889 17.8 19.4412 17.8 18.8889V12.7778C17.8 12.4282 17.5054 12.1111 17.1 12.1111C16.6946 12.1111 16.4 12.4282 16.4 12.7778V22.2222C16.4 22.7745 15.9523 23.2222 15.4 23.2222C14.8477 23.2222 14.4 22.7745 14.4 22.2222V19.4444C14.4 19.0948 14.1054 18.7778 13.7 18.7778C13.2946 18.7778 13 19.0948 13 19.4444V21.6667C13 25.6982 16.3391 29 20.5 29C24.6609 29 28 25.6982 28 21.6667V16.1111C28 15.7615 27.7054 15.4444 27.3 15.4444C26.8946 15.4444 26.6 15.7615 26.6 16.1111V18.8889C26.6 19.4412 26.1523 19.8889 25.6 19.8889C25.0477 19.8889 24.6 19.4412 24.6 18.8889V12.7778C24.6 12.4282 24.3054 12.1111 23.9 12.1111C23.4946 12.1111 23.2 12.4282 23.2 12.7778V18.8889C23.2 19.4412 22.7523 19.8889 22.2 19.8889C21.6477 19.8889 21.2 19.4412 21.2 18.8889V11.6667C21.2 11.3171 20.9054 11 20.5 11ZM22.8358 10.3269C22.365 9.52874 21.4876 9 20.5 9C19.5124 9 18.635 9.52874 18.1642 10.3269C17.8364 10.1878 17.4762 10.1111 17.1 10.1111C15.6276 10.1111 14.4 11.2864 14.4 12.7778V16.8687C14.1761 16.8094 13.9414 16.7778 13.7 16.7778C12.2276 16.7778 11 17.9531 11 19.4444V21.6667C11 26.8399 15.2721 31 20.5 31C25.7279 31 30 26.8399 30 21.6667V16.1111C30 14.6198 28.7724 13.4444 27.3 13.4444C27.0586 13.4444 26.8239 13.476 26.6 13.5354V12.7778C26.6 11.2864 25.3724 10.1111 23.9 10.1111C23.5238 10.1111 23.1636 10.1878 22.8358 10.3269Z" fill="#222222"/>
</svg>
