<svg width="141" height="140" viewBox="0 0 141 140" fill="none" xmlns="http://www.w3.org/2000/svg">
<rect x="0.5" width="140" height="140" rx="70" fill="#FBFDFE"/>
<g clip-path="url(#clip0_520_6912)">
<path d="M71.0654 120.4C57.6912 120.4 46.7965 109.516 46.7965 96.1419C46.7965 82.7677 57.6805 71.873 71.0654 71.873C71.441 71.873 71.7523 72.1843 71.7523 72.56V94.6606L88.5935 80.3634C88.8833 80.1165 89.3126 80.1487 89.5595 80.4385C93.2733 84.8071 95.3235 90.3886 95.3235 96.1419C95.3235 109.516 84.4395 120.4 71.0546 120.4H71.0654ZM70.3784 73.2577C58.0776 73.6226 48.1704 83.7445 48.1704 96.1419C48.1704 108.539 58.4426 119.026 71.0654 119.026C83.6882 119.026 93.9603 108.754 93.9603 96.1419C93.9603 90.9468 92.1892 85.8912 88.9584 81.8553L71.5162 96.6678C71.3122 96.8396 71.0224 96.8825 70.7863 96.7644C70.5394 96.6571 70.3891 96.4102 70.3891 96.1419V73.2577H70.3784Z" fill="#3E19A3"/>
<path d="M75.9599 85.6014C75.8633 85.6014 75.7667 85.5799 75.6701 85.537C75.4232 85.4297 75.2729 85.1828 75.2729 84.9144V63.9301C75.2729 63.5544 75.5842 63.2431 75.9599 63.2431C82.3357 63.2431 88.3573 66.0339 92.479 70.8855C92.5971 71.0251 92.6508 71.2075 92.64 71.39C92.6293 71.5725 92.5434 71.7442 92.4039 71.8623L76.4 85.4511C76.2712 85.5585 76.1102 85.6121 75.9599 85.6121V85.6014ZM76.6469 64.6278V83.4332L90.9871 71.2612C87.2947 67.1931 82.1318 64.8103 76.6469 64.6278Z" fill="#F20090"/>
<path d="M105.209 35.0031C104.865 32.5344 102.3 23.5288 99.4771 20.6844C97.3303 18.5591 94.3356 20.0189 92.8866 21.2211C90.4822 21.307 72.5033 22.0905 64.174 26.1264C59.8913 28.198 54.3205 29.5075 49.4259 30.6453C44.2737 31.8582 40.2057 32.8135 38.8532 34.3484C37.9945 35.3251 37.8765 36.5059 38.5312 37.5685C39.6368 39.3717 42.6744 40.4988 45.5618 40.4022C41.5474 44.2126 36.7602 49.2789 36.8997 51.4901C36.9641 52.338 37.6511 53.0465 38.7996 53.4436C39.3685 53.6368 40.0232 53.7334 40.7102 53.7334C42.0411 53.7334 43.5009 53.347 44.7782 52.4883C44.7782 53.1109 44.8319 53.7334 44.9714 54.3882C45.8087 58.0913 45.5511 60.882 45.3578 62.9322C45.1861 64.7247 45.0788 65.9054 45.8301 66.6675C46.2487 67.1076 46.8498 67.3008 47.73 67.3008C47.8803 67.3008 48.0413 67.2901 48.2237 67.2793C53.8053 66.8929 53.8053 58.6172 53.8053 55.0966C53.8053 49.8693 58.3671 47.4971 60.385 46.7028C58.8608 51.7584 59.8161 56.7925 61.2437 58.3811C67.0399 64.8213 68.8109 67.5047 69.777 69.7481C70.1634 70.639 70.904 71.2078 71.7949 71.283C71.87 71.283 71.9452 71.2937 72.0203 71.2937C73.1259 71.2937 74.2422 70.596 75.0043 69.4261C75.6805 68.3956 76.9793 65.5297 74.5535 61.0645C73.9846 60.0126 73.2976 59.2076 72.6321 58.4348C71.752 57.4043 70.9255 56.449 70.4317 54.9893C69.573 52.4454 69.8092 48.753 70.904 47.6581C73.2547 45.3075 82.0241 45.2538 85.1261 47.5723C87.1441 49.0857 87.2192 49.9874 86.4893 52.8532C85.9097 55.0644 84.7719 56.9965 83.7522 58.6816C82.6359 60.56 81.7665 62.0305 82.0778 63.2971C82.228 63.866 82.593 64.3168 83.1833 64.6603C86.9723 66.8714 88.4428 65.3151 92.4036 61.1611C93.3159 60.2058 94.3678 59.1003 95.6344 57.8337C97.6416 55.8265 98.0495 52.2736 98.5218 48.1734C98.7686 46.1662 99.0263 43.8906 99.4985 41.5936C99.8098 40.0802 101.474 39.2966 102.171 39.0283C104.339 38.2018 105.402 36.7742 105.177 35.0139L105.209 35.0031ZM101.72 37.7402C99.7991 38.4809 98.5003 39.7689 98.189 41.3145C97.706 43.676 97.4269 45.9837 97.2015 48.0231C96.7292 52.0268 96.3643 55.2039 94.7006 56.8676C93.4125 58.1342 92.3499 59.2613 91.4483 60.2166C87.4768 64.3812 86.7684 65.1433 83.9132 63.4689C83.5698 63.2649 83.4946 63.0717 83.4517 62.9536C83.2692 62.2345 84.1064 60.8498 84.9759 59.3793C85.9848 57.6834 87.2299 55.5903 87.8418 53.186C88.6683 50.041 88.5824 48.4202 85.9741 46.4667C82.5393 43.9014 73.04 43.6115 69.9594 46.6814C68.3494 48.2914 68.2099 52.6278 69.1652 55.4186C69.7448 57.136 70.7001 58.2523 71.6232 59.3257C72.2672 60.077 72.879 60.7854 73.3728 61.7085C75.4444 65.519 74.4247 67.8482 73.8772 68.664C73.362 69.4583 72.5892 69.952 71.9237 69.8983C71.5266 69.8661 71.2368 69.6193 71.0435 69.1792C70.0131 66.807 68.1991 64.027 62.2849 57.4365C60.9968 56.0197 59.741 49.4292 63.2187 43.6437C63.4226 43.3217 63.3153 42.8924 62.9933 42.6992C62.6713 42.506 62.2419 42.6133 62.0487 42.9246C61.6408 43.6115 61.2974 44.32 60.9968 45.0177C60.9432 45.0284 58.8179 45.6402 56.6926 47.1966C54.5781 48.7422 52.4528 51.2647 52.4528 55.0751C52.4528 60.281 51.9483 65.6263 48.1486 65.8947C47.2792 65.9591 46.9464 65.8195 46.8284 65.7015C46.5278 65.3902 46.6244 64.2954 46.7425 63.0395C46.925 61.0323 47.204 57.984 46.3346 54.0876C45.111 48.6027 50.671 44.803 53.0432 43.1822C53.4188 42.9246 53.7194 42.7207 53.9233 42.5596C56.7463 40.3163 63.1972 36.7098 63.2509 36.6776C63.5944 36.4844 63.7017 36.0765 63.5192 35.733C63.3368 35.411 62.9182 35.2822 62.5854 35.4754C62.3171 35.6257 55.9735 39.1678 53.0646 41.4755C52.8822 41.6258 52.6031 41.7976 52.2703 42.0444C50.2524 43.4291 46.1199 46.252 45.0573 50.4382C43.2111 52.4668 40.5921 52.5634 39.2611 52.1126C38.6171 51.9087 38.3166 51.5759 38.3058 51.372C38.1878 49.5795 44.6494 42.8387 50.7784 37.4075C54.1058 34.4665 64.8609 31.6113 64.9683 31.5898C65.3332 31.4932 65.5479 31.1068 65.4513 30.7419C65.3547 30.3769 64.9898 30.1622 64.6141 30.2589C64.1525 30.3769 53.4188 33.2213 49.866 36.377C49.222 36.9352 48.2881 37.7832 47.2148 38.7814C47.1826 38.7814 47.1396 38.7707 47.1074 38.7814C44.1449 39.5435 40.6243 38.3198 39.6905 36.8064C39.347 36.2482 39.4114 35.7438 39.8729 35.2071C40.9356 33.9942 45.2076 32.9959 49.7372 31.944C54.7069 30.7848 60.3528 29.4646 64.7751 27.3178C72.1921 23.722 88.2067 22.7775 92.2318 22.5843C92.8866 23.2605 97.1157 27.876 97.9958 35.1427C98.028 35.4862 98.3393 35.7438 98.672 35.7438C98.6935 35.7438 98.7257 35.733 98.7579 35.733C99.1336 35.6794 99.4019 35.3466 99.3483 34.9709C98.5647 28.3483 95.2265 23.8938 93.7668 22.2301C94.4322 21.6934 96.8688 19.976 98.511 21.629C100.862 23.9796 103.47 32.3305 103.846 35.1427C104.007 36.2482 103.277 37.1069 101.731 37.6973L101.72 37.7402Z" fill="#3E19A3"/>
<path d="M103.835 35.1853C103.46 32.3623 100.851 24.0115 98.5006 21.6716C96.8584 20.0293 94.4218 21.7467 93.7563 22.2727C95.2054 23.9471 98.5436 28.3909 99.3378 35.0136C99.3915 35.3892 99.1232 35.7327 98.7475 35.7757C98.7153 35.7757 98.6831 35.7864 98.6616 35.7864C98.3181 35.7864 98.0176 35.518 97.9854 35.1853C97.116 27.9079 92.8762 23.3031 92.2214 22.6269C88.1963 22.8201 72.1816 23.7647 64.7647 27.3604C60.3317 29.5072 54.6965 30.8167 49.7268 31.9867C45.1972 33.0386 40.9252 34.0475 39.8625 35.2497C39.401 35.7864 39.3473 36.2909 39.6801 36.849C40.6139 38.3625 44.1345 39.5861 47.097 38.824C47.1292 38.8133 47.1722 38.824 47.2044 38.824C48.2777 37.8151 49.2116 36.9671 49.8556 36.4197C53.4084 33.264 64.1528 30.4195 64.6037 30.3015C64.9793 30.2049 65.3443 30.4195 65.4409 30.7845C65.5375 31.1494 65.3228 31.5359 64.9579 31.6325C64.8505 31.6539 54.0954 34.5091 50.7679 37.4501C44.6283 42.8706 38.1666 49.6114 38.2847 51.3932C38.2954 51.5971 38.596 51.9298 39.24 52.1338C40.5709 52.5953 43.19 52.4987 45.0362 50.4593C46.0988 46.2732 50.2313 43.4395 52.2492 42.0656C52.5927 41.8187 52.8717 41.647 53.0435 41.4967C55.963 39.189 62.2959 35.6361 62.5643 35.4966C62.8863 35.3034 63.3156 35.4214 63.4981 35.7542C63.6806 36.0977 63.5732 36.5055 63.2297 36.6988C63.1653 36.731 56.7144 40.3375 53.9022 42.5808C53.6982 42.7418 53.3977 42.9458 53.022 43.2034C50.6499 44.8241 45.1006 48.6239 46.3135 54.1088C47.1829 58.0051 46.9038 61.0535 46.7213 63.0607C46.6033 64.3165 46.5067 65.4114 46.8072 65.7226C46.9253 65.8407 47.258 65.9802 48.1275 65.9158C51.9272 65.6475 52.4317 60.3021 52.4317 55.0963C52.4317 51.2858 54.5462 48.7634 56.6715 47.2178C58.7967 45.6614 60.9327 45.0496 60.9757 45.0388C61.2762 44.3411 61.6197 43.6327 62.0276 42.9458C62.2208 42.6345 62.6501 42.5271 62.9721 42.7203C63.2941 42.9136 63.4122 43.3429 63.1975 43.6649C59.7198 49.4504 60.9864 56.0408 62.2637 57.4577C68.178 64.0374 69.992 66.8282 71.0224 69.2003C71.2156 69.6404 71.5054 69.8766 71.9026 69.9195C72.568 69.9732 73.3301 69.4794 73.8561 68.6851C74.4035 67.8586 75.4125 65.5402 73.3516 61.7297C72.8579 60.8066 72.2353 60.0982 71.602 59.3468C70.6789 58.2734 69.7236 57.1571 69.144 55.4398C68.1887 52.649 68.3282 48.3126 69.9383 46.7025C73.0081 43.6327 82.5074 43.9225 85.9529 46.4879C88.5505 48.4414 88.6364 50.0622 87.8206 53.2072C87.2088 55.6115 85.9529 57.7046 84.9547 59.4005C84.0853 60.8603 83.2481 62.2556 83.4305 62.9748C83.4627 63.0929 83.5486 63.2861 83.8921 63.49C86.7472 65.1645 87.4664 64.4024 91.4271 60.2377C92.3395 59.2824 93.4021 58.1554 94.6794 56.8888C96.3539 55.2144 96.7081 52.0479 97.1804 48.0443C97.4058 46.0156 97.6849 43.6971 98.1679 41.3357C98.4792 39.8008 99.7779 38.502 101.699 37.7614C103.245 37.171 103.975 36.3123 103.814 35.2068L103.835 35.1853ZM75.4554 27.339C77.8168 24.9561 88.5612 24.3872 89.7741 24.3228C90.1605 24.2584 90.4718 24.6019 90.504 24.9776C90.5148 25.3533 90.225 25.6753 89.8493 25.6967C85.2875 25.9114 77.9456 26.7808 76.4429 28.3157C76.3141 28.4446 76.1316 28.5197 75.9599 28.5197C75.7774 28.5197 75.6057 28.4446 75.4769 28.3265C75.2085 28.0581 75.1978 27.6288 75.4661 27.3497L75.4554 27.339ZM90.5792 28.5519C90.4933 28.5626 81.6917 29.314 76.2819 35.5502C76.1531 35.7113 75.9599 35.7971 75.7774 35.7971C75.6057 35.7971 75.4554 35.7327 75.3159 35.6254C75.0368 35.3678 75.0046 34.9384 75.2515 34.6594C81.0262 27.9937 90.0854 27.2209 90.4611 27.1887C90.8368 27.1565 91.1802 27.4463 91.2017 27.822C91.2339 28.1977 90.9441 28.5412 90.5684 28.5626L90.5792 28.5519Z" fill="white"/>
<path d="M90.5041 24.9776C90.5148 25.3533 90.225 25.6753 89.8493 25.6967C85.2875 25.9114 77.9457 26.7808 76.4429 28.3157C76.3141 28.4446 76.1317 28.5197 75.9599 28.5197C75.7774 28.5197 75.6057 28.4446 75.4769 28.3265C75.2086 28.0581 75.1978 27.6288 75.4662 27.3497C77.8276 24.9668 88.572 24.398 89.7849 24.3336C90.1713 24.2691 90.4826 24.6126 90.5148 24.9883L90.5041 24.9776Z" fill="#3E19A3"/>
<path d="M91.2125 27.8113C91.2447 28.1869 90.9548 28.5304 90.5792 28.5519C90.4933 28.5626 81.6917 29.314 76.2819 35.5502C76.1531 35.7113 75.9599 35.7971 75.7774 35.7971C75.6057 35.7971 75.4554 35.7327 75.3159 35.6254C75.0368 35.3678 75.0046 34.9384 75.2515 34.6593C81.0262 27.9937 90.0854 27.2209 90.4611 27.1887C90.8368 27.1565 91.1803 27.4463 91.2017 27.822L91.2125 27.8113Z" fill="#3E19A3"/>
</g>
<defs>
<clipPath id="clip0_520_6912">
<rect width="68.3306" height="100.8" fill="white" transform="translate(36.9 19.6)"/>
</clipPath>
</defs>
</svg>
