<svg width="141" height="140" viewBox="0 0 141 140" fill="none" xmlns="http://www.w3.org/2000/svg">
<rect x="0.5" width="140" height="140" rx="70" fill="#FBFDFE"/>
<g clip-path="url(#clip0_520_6888)">
<path d="M74.0757 69.805H20.3175C20.1957 69.805 20.1 69.7093 20.1 69.5875C20.1 69.4657 20.1957 69.37 20.3175 69.37H74.0757C74.1975 69.37 74.2932 69.4657 74.2932 69.5875C74.2932 69.7093 74.1975 69.805 74.0757 69.805Z" fill="#3E19A3"/>
<path d="M74.0757 61.8617H20.3175C20.1957 61.8617 20.1 61.766 20.1 61.6442C20.1 61.5224 20.1957 61.4267 20.3175 61.4267H74.0757C74.1975 61.4267 74.2932 61.5224 74.2932 61.6442C74.2932 61.766 74.1975 61.8617 74.0757 61.8617Z" fill="#3E19A3"/>
<path d="M74.0757 53.9098H20.3175C20.1957 53.9098 20.1 53.8141 20.1 53.6923C20.1 53.5705 20.1957 53.4748 20.3175 53.4748H74.0757C74.1975 53.4748 74.2932 53.5705 74.2932 53.6923C74.2932 53.8141 74.1975 53.9098 74.0757 53.9098Z" fill="#3E19A3"/>
<path d="M74.0757 45.9578H20.3175C20.1957 45.9578 20.1 45.8621 20.1 45.7403C20.1 45.6185 20.1957 45.5228 20.3175 45.5228H74.0757C74.1975 45.5228 74.2932 45.6185 74.2932 45.7403C74.2932 45.8621 74.1975 45.9578 74.0757 45.9578Z" fill="#3E19A3"/>
<path d="M28.426 70.1443C28.2868 70.1443 28.1389 70.0921 28.0345 69.979C27.817 69.7615 27.817 69.4048 28.0345 69.1873L35.9864 61.2353C36.2039 61.0178 36.5519 61.0178 36.7694 61.2353L44.1733 68.4129L52.2731 53.4226C52.2992 53.3704 52.334 53.3269 52.3775 53.2921L60.486 45.3401C60.7035 45.1313 61.0516 45.1313 61.2691 45.3401L69.3776 53.2921C69.5951 53.5096 69.6038 53.8576 69.3776 54.0751C69.1601 54.2926 68.8121 54.3013 68.5946 54.0751L60.8776 46.5059L53.2127 54.0142L44.7997 69.5701C44.7127 69.7267 44.5648 69.8311 44.3908 69.8572C44.2168 69.8833 44.0427 69.8311 43.9209 69.7093L36.3779 62.4098L28.8175 69.9703C28.7131 70.0747 28.5652 70.1356 28.426 70.1356V70.1443Z" fill="#3E19A3"/>
<path d="M36.3954 62.7926C37.0296 62.7926 37.5438 62.2785 37.5438 61.6442C37.5438 61.01 37.0296 60.4958 36.3954 60.4958C35.7611 60.4958 35.2469 61.01 35.2469 61.6442C35.2469 62.2785 35.7611 62.7926 36.3954 62.7926Z" fill="white"/>
<path d="M36.3954 63.3495C35.4558 63.3495 34.6902 62.5838 34.6902 61.6442C34.6902 60.7046 35.4558 59.939 36.3954 59.939C37.335 59.939 38.1006 60.7046 38.1006 61.6442C38.1006 62.5838 37.335 63.3495 36.3954 63.3495ZM36.3954 61.0526C36.0648 61.0526 35.8038 61.3223 35.8038 61.6442C35.8038 61.9661 36.0735 62.2358 36.3954 62.2358C36.7173 62.2358 36.987 61.9661 36.987 61.6442C36.987 61.3223 36.7173 61.0526 36.3954 61.0526Z" fill="#F20090"/>
<path d="M44.3909 70.4749C45.0251 70.4749 45.5393 69.9607 45.5393 69.3265C45.5393 68.6922 45.0251 68.178 44.3909 68.178C43.7566 68.178 43.2424 68.6922 43.2424 69.3265C43.2424 69.9607 43.7566 70.4749 44.3909 70.4749Z" fill="white"/>
<path d="M44.3908 71.0317C43.4512 71.0317 42.6855 70.2661 42.6855 69.3265C42.6855 68.3868 43.4512 67.6212 44.3908 67.6212C45.3304 67.6212 46.096 68.3868 46.096 69.3265C46.096 70.2661 45.3304 71.0317 44.3908 71.0317ZM44.3908 68.7349C44.0602 68.7349 43.7992 69.0046 43.7992 69.3265C43.7992 69.6484 44.0689 69.9181 44.3908 69.9181C44.7127 69.9181 44.9824 69.6484 44.9824 69.3265C44.9824 69.0046 44.7127 68.7349 44.3908 68.7349Z" fill="#F20090"/>
<path d="M52.6212 54.8407C53.2555 54.8407 53.7696 54.3265 53.7696 53.6923C53.7696 53.058 53.2555 52.5439 52.6212 52.5439C51.9869 52.5439 51.4728 53.058 51.4728 53.6923C51.4728 54.3265 51.9869 54.8407 52.6212 54.8407Z" fill="white"/>
<path d="M52.6211 55.3975C51.6815 55.3975 50.9159 54.6319 50.9159 53.6923C50.9159 52.7527 51.6815 51.987 52.6211 51.987C53.5607 51.987 54.3264 52.7527 54.3264 53.6923C54.3264 54.6319 53.5607 55.3975 52.6211 55.3975ZM52.6211 53.1007C52.2905 53.1007 52.0295 53.3704 52.0295 53.6923C52.0295 54.0142 52.2992 54.2839 52.6211 54.2839C52.943 54.2839 53.2127 54.0142 53.2127 53.6923C53.2127 53.3704 52.943 53.1007 52.6211 53.1007Z" fill="#F20090"/>
<path d="M60.5992 46.8627C61.2335 46.8627 61.7476 46.3485 61.7476 45.7142C61.7476 45.08 61.2335 44.5658 60.5992 44.5658C59.965 44.5658 59.4508 45.08 59.4508 45.7142C59.4508 46.3485 59.965 46.8627 60.5992 46.8627Z" fill="white"/>
<path d="M60.5992 47.4195C59.6595 47.4195 58.8939 46.6539 58.8939 45.7142C58.8939 44.7746 59.6595 44.009 60.5992 44.009C61.5388 44.009 62.3044 44.7746 62.3044 45.7142C62.3044 46.6539 61.5388 47.4195 60.5992 47.4195ZM60.5992 45.1226C60.2685 45.1226 60.0075 45.3923 60.0075 45.7142C60.0075 46.0361 60.2772 46.3058 60.5992 46.3058C60.9211 46.3058 61.1908 46.0361 61.1908 45.7142C61.1908 45.3923 60.9211 45.1226 60.5992 45.1226Z" fill="#F20090"/>
<path d="M68.8034 55.0756C69.4377 55.0756 69.9519 54.5614 69.9519 53.9272C69.9519 53.2929 69.4377 52.7788 68.8034 52.7788C68.1692 52.7788 67.655 53.2929 67.655 53.9272C67.655 54.5614 68.1692 55.0756 68.8034 55.0756Z" fill="white"/>
<path d="M68.8035 55.6324C67.8639 55.6324 67.0983 54.8668 67.0983 53.9272C67.0983 52.9876 67.8639 52.222 68.8035 52.222C69.7431 52.222 70.5087 52.9876 70.5087 53.9272C70.5087 54.8668 69.7431 55.6324 68.8035 55.6324ZM68.8035 53.3356C68.4729 53.3356 68.2119 53.6053 68.2119 53.9272C68.2119 54.2491 68.4816 54.5188 68.8035 54.5188C69.1254 54.5188 69.3951 54.2491 69.3951 53.9272C69.3951 53.6053 69.1254 53.3356 68.8035 53.3356Z" fill="#F20090"/>
<path d="M97.8272 44.8877C97.7663 44.8355 97.7054 44.7833 97.6532 44.7485C97.0007 44.3309 96.6353 44.5397 96.4265 44.7311C95.4955 45.575 95.2693 48.3156 96.3395 50.5254C100.811 53.0398 106.31 62.81 106.553 63.2538C106.701 63.5235 106.606 63.8628 106.336 64.0107C106.249 64.0629 106.153 64.0803 106.066 64.0803C105.875 64.0803 105.683 63.9759 105.579 63.7932C105.518 63.6801 99.4454 52.8745 95.2345 51.2301C90.5017 49.3683 88.1352 47.8545 86.7171 46.9497C85.2816 46.0274 84.951 45.8447 84.0896 46.1579C83.5937 46.3319 83.2109 47.0019 83.15 47.7849C83.0543 49.0899 83.8025 50.2992 85.1424 51.0387C89.4054 50.7342 92.4592 53.2486 94.3993 54.8581C94.6168 55.0321 94.8169 55.2061 95.0083 55.354C97.4357 57.3028 102.186 63.7497 102.386 64.0281C102.569 64.2804 102.517 64.6197 102.264 64.8024C102.169 64.872 102.047 64.9068 101.934 64.9068C101.76 64.9068 101.594 64.8285 101.481 64.6806C101.429 64.611 96.6179 58.0772 94.3036 56.2153C94.1122 56.0587 93.9034 55.8847 93.6772 55.702C91.4326 53.8489 88.0482 51.0387 83.1239 52.5178C81.9842 52.8571 80.4182 53.3095 79.061 53.6227C81.9581 54.3622 85.4817 54.8407 87.6393 55.1365L88.2222 55.2148C92.1982 55.7542 98.0795 64.4022 98.3318 64.7676C98.5058 65.0199 98.4362 65.3679 98.1839 65.5419C97.9229 65.7159 97.5836 65.6463 97.4096 65.394C95.7914 63.0014 90.9628 56.7112 88.0743 56.3197L87.4914 56.2414C83.4719 55.702 79.1828 55.0408 76.3552 53.9533C75.2242 53.5183 74.3194 53.0224 73.78 52.4308C72.9012 51.4824 71.9355 51.0561 71.1438 51.2649C70.5783 51.4128 70.152 51.8913 69.9867 52.5874C69.6474 53.9794 68.6295 58.2164 78.1561 61.0526C87.8133 63.9324 89.5011 68.6217 90.7105 74.4509C90.841 75.0773 90.9367 75.9647 90.3103 76.3736C89.3706 76.9826 87.8133 75.9299 84.8901 73.8505C82.0277 71.806 78.1126 69.022 76.7554 70.2835C75.5896 71.371 76.9555 73.2067 80.4356 77.6351C81.062 78.4355 81.758 79.3142 82.4975 80.28C84.3158 82.6377 89.1183 84.6822 93.7642 86.6572C98.5841 88.7104 103.143 90.6505 104.796 93.0344C105.092 93.4607 105.283 93.9827 105.379 94.5917C105.457 95.1224 105.91 96.6884 106.945 96.8538C109.529 97.2801 118.864 90.868 119.578 89.476C120.508 87.649 117.785 85.561 117.751 85.5436C117.733 85.5349 117.733 85.5175 117.716 85.5088C116.098 86.9269 110.877 91.3205 107.589 91.9208C107.563 91.9208 107.528 91.9208 107.502 91.9208C107.267 91.9208 107.058 91.7555 107.015 91.5119C106.962 91.2422 107.145 90.9812 107.415 90.929C110.669 90.3373 116.376 85.3608 117.376 84.4734C116.863 82.3071 115.236 75.7298 112.913 70.0225C111.687 67.221 110.312 64.6197 108.868 62.8187C105.91 59.1299 100.246 47.6022 97.8098 44.8964L97.8272 44.8877ZM109.973 83.2293C109.868 83.3163 109.746 83.3511 109.625 83.3511C109.468 83.3511 109.303 83.2815 109.19 83.1423C109.129 83.064 102.899 75.4601 98.5493 74.651C98.2448 74.5988 98.0447 74.3029 98.1056 73.9984C98.1665 73.6939 98.4536 73.4938 98.7581 73.5547C103.508 74.4422 109.79 82.1157 110.06 82.4376C110.251 82.6725 110.216 83.0292 109.981 83.2206L109.973 83.2293ZM111.895 82.0374C111.817 82.0722 111.739 82.0896 111.66 82.0896C111.452 82.0896 111.252 81.9678 111.156 81.7677C111.112 81.6807 107.023 73.0501 103.012 71.5102C102.725 71.3971 102.586 71.0752 102.691 70.7881C102.804 70.501 103.126 70.3618 103.413 70.4662C107.832 72.1627 111.991 80.9151 112.165 81.2892C112.296 81.5676 112.174 81.8982 111.895 82.0287V82.0374ZM113.775 81.0543C113.722 81.0717 113.661 81.0804 113.609 81.0804C113.374 81.0804 113.157 80.9238 113.079 80.6889C113.052 80.6019 110.39 72.2323 107.032 68.6566C106.823 68.4303 106.832 68.0823 107.058 67.8735C107.284 67.6647 107.632 67.6734 107.841 67.8996C111.382 71.6581 114.027 80.0103 114.14 80.3583C114.236 80.6541 114.07 80.9673 113.775 81.0543Z" fill="white"/>
<path d="M118.603 84.7779C118.168 82.8291 114.784 68.2215 109.973 62.2097C108.546 60.4262 106.423 56.7286 104.378 53.1529C101.325 47.8284 99.3932 44.5397 98.2535 43.8089C97.3313 43.2173 96.3916 43.2521 95.6695 43.9046C94.4515 45.0095 94.1818 47.5761 94.8865 49.8729C90.7626 48.1938 88.6137 46.8279 87.3087 45.9926C85.8471 45.053 85.1075 44.5832 83.7068 45.0878C82.7846 45.4184 82.1321 46.4363 82.0364 47.6805C81.932 49.0377 82.4975 50.3079 83.5589 51.2562C83.3153 51.3084 83.063 51.3693 82.8107 51.4476C77.695 52.9876 76.7119 52.8919 76.7641 52.9093C75.7984 52.5439 75.0328 52.135 74.5978 51.6651C73.4232 50.4036 72.066 49.8555 70.8567 50.1774C69.8823 50.4297 69.1689 51.2127 68.8992 52.309C67.8377 56.7199 70.8393 60.0173 77.8342 62.1053C86.9172 64.8198 88.4484 69.022 89.6229 74.6597C89.736 75.1904 89.6925 75.3905 89.7099 75.4166C89.1531 75.5036 87.0738 74.0158 85.5426 72.9196C82.019 70.4053 78.0256 67.5603 76.0072 69.4483C74.041 71.2753 75.8941 73.6243 79.5743 78.2963C80.2007 79.0967 80.888 79.9668 81.6275 80.9325C83.6198 83.5164 88.5615 85.6219 93.3379 87.6577C97.8011 89.563 102.421 91.5206 103.891 93.6434C104.091 93.9305 104.222 94.2872 104.283 94.7222C104.422 95.714 105.135 97.6629 106.78 97.9239C106.893 97.9413 107.006 97.95 107.128 97.95C110.556 97.95 119.708 91.6511 120.569 89.9545C121.761 87.6055 119.282 85.326 118.594 84.7605L118.603 84.7779ZM103.413 53.7097C105.483 57.3202 107.615 61.0526 109.103 62.9057C110.503 64.6632 111.8 67.2384 112.931 70.0138C115.245 75.7211 116.881 82.2984 117.394 84.4647C116.385 85.3608 110.686 90.3286 107.432 90.9202C107.162 90.9725 106.98 91.2335 107.032 91.5032C107.075 91.7468 107.284 91.9121 107.519 91.9121C107.545 91.9121 107.58 91.9121 107.606 91.9121C110.895 91.3118 116.115 86.9182 117.733 85.5C117.742 85.5088 117.751 85.5262 117.768 85.5349C117.794 85.5523 120.517 87.6403 119.595 89.4673C118.89 90.8593 109.555 97.2714 106.962 96.8451C105.918 96.6798 105.466 95.1224 105.396 94.583C105.309 93.974 105.109 93.452 104.813 93.0257C103.16 90.6418 98.6015 88.7017 93.7816 86.6485C89.1357 84.6735 84.3332 82.629 82.5149 80.2713C81.7754 79.3055 81.0794 78.4268 80.453 77.6264C76.9729 73.198 75.607 71.3623 76.7728 70.2748C78.13 69.0133 82.0451 71.7973 84.9074 73.8418C87.822 75.9212 89.388 76.9826 90.3276 76.3649C90.9628 75.9473 90.8584 75.0686 90.7278 74.4422C89.5185 68.613 87.822 63.9324 78.1735 61.0439C68.6469 58.199 69.6735 53.962 70.0041 52.5787C70.1694 51.8913 70.5957 51.4041 71.1612 51.2562C71.9529 51.0474 72.9186 51.4737 73.7973 52.4221C74.3455 53.0137 75.2416 53.5096 76.3726 53.9446C79.2001 55.0234 83.4806 55.6846 87.5088 56.2327L88.0917 56.311C90.9889 56.7025 95.8087 63.0014 97.427 65.3853C97.601 65.6376 97.9403 65.7072 98.2013 65.5332C98.4536 65.3592 98.5232 65.0199 98.3492 64.7589C98.0969 64.3935 92.2156 55.7455 88.2396 55.2061L87.6567 55.1278C85.4991 54.8407 81.9755 54.3535 79.0783 53.614C80.4356 53.3008 82.0016 52.8484 83.1413 52.5091C88.0656 51.03 91.45 53.8402 93.6946 55.6933C93.9121 55.876 94.1209 56.05 94.321 56.2066C96.6353 58.0598 101.446 64.6023 101.499 64.6719C101.612 64.8198 101.777 64.8981 101.951 64.8981C102.064 64.8981 102.177 64.8633 102.282 64.7937C102.525 64.611 102.586 64.263 102.403 64.0194C102.203 63.7497 97.4531 57.2941 95.0257 55.3453C94.8343 55.1887 94.6342 55.0234 94.4167 54.8494C92.4766 53.2399 89.4228 50.7255 85.1597 51.03C83.8199 50.2905 83.0717 49.0725 83.1674 47.7762C83.2283 46.9932 83.6111 46.3232 84.107 46.1492C84.9683 45.8447 85.299 46.0274 86.7345 46.941C88.1526 47.8458 90.519 49.3683 95.2519 51.2214C99.4628 52.8745 105.536 63.6801 105.596 63.7845C105.701 63.9672 105.884 64.0716 106.084 64.0716C106.171 64.0716 106.266 64.0455 106.353 64.002C106.623 63.8541 106.719 63.5148 106.571 63.2451C106.327 62.81 100.829 53.0311 96.3568 50.5167C95.2867 48.3156 95.5129 45.575 96.4438 44.7224C96.6614 44.531 97.0181 44.3222 97.6706 44.7398C97.7228 44.7746 97.7837 44.8181 97.8446 44.879C98.9321 45.8447 101.316 50.0034 103.43 53.701L103.413 53.7097Z" fill="#3E19A3"/>
<path d="M107.049 67.8822C106.823 68.091 106.814 68.4478 107.023 68.6653C110.382 72.241 113.044 80.6106 113.07 80.6976C113.148 80.9325 113.366 81.0891 113.601 81.0891C113.653 81.0891 113.714 81.0891 113.766 81.063C114.062 80.9673 114.218 80.6628 114.131 80.367C114.018 80.0103 111.373 71.6668 107.832 67.9083C107.624 67.6821 107.267 67.6734 107.049 67.8822Z" fill="#3E19A3"/>
<path d="M103.413 70.4749C103.126 70.3705 102.804 70.5097 102.691 70.7968C102.577 71.0839 102.725 71.4058 103.012 71.5189C107.015 73.0588 111.112 81.6894 111.156 81.7764C111.252 81.9765 111.452 82.0983 111.66 82.0983C111.739 82.0983 111.817 82.0809 111.895 82.0461C112.174 81.9156 112.296 81.585 112.165 81.3066C111.991 80.9325 107.832 72.1801 103.413 70.4836V70.4749Z" fill="#3E19A3"/>
<path d="M98.7494 73.5634C98.4536 73.5025 98.1578 73.7026 98.0969 74.0072C98.036 74.3117 98.2361 74.5988 98.5406 74.6597C102.891 75.4775 109.12 83.0727 109.181 83.151C109.294 83.2902 109.451 83.3598 109.616 83.3598C109.738 83.3598 109.868 83.3163 109.964 83.238C110.199 83.0466 110.234 82.6899 110.042 82.455C109.781 82.1331 103.491 74.4596 98.7407 73.5721L98.7494 73.5634Z" fill="#3E19A3"/>
</g>
<defs>
<clipPath id="clip0_520_6888">
<rect width="100.8" height="54.5761" fill="white" transform="translate(20.1 43.4)"/>
</clipPath>
</defs>
</svg>
