<svg width="24" height="24" viewBox="0 0 24 24" fill="none" xmlns="http://www.w3.org/2000/svg">
<path fill-rule="evenodd" clip-rule="evenodd" d="M2.13706 2.29289C2.52758 1.90237 3.16075 1.90237 3.55127 2.29289L7.19 5.93162C7.2483 5.97793 7.30212 6.03139 7.35012 6.09174L17.7411 16.4828C17.8089 16.5347 17.8709 16.5962 17.9251 16.6667L21.5513 20.2929C21.9418 20.6834 21.9418 21.3166 21.5513 21.7071C21.1607 22.0976 20.5276 22.0976 20.1371 21.7071L16.9833 18.5534C15.5385 19.3988 13.8158 20 11.8442 20C8.98249 20 6.64951 18.7353 4.92091 17.2926C3.19466 15.8518 2.01113 14.1857 1.41838 13.2472C1.41055 13.2348 1.40251 13.2221 1.3943 13.2092C1.27666 13.024 1.12393 12.7836 1.04673 12.4467C0.984404 12.1748 0.984424 11.825 1.04678 11.553C1.12403 11.2161 1.27719 10.9751 1.39514 10.7895C1.40342 10.7765 1.41152 10.7637 1.41942 10.7512C2.02179 9.79766 3.24507 8.07525 5.03951 6.60955L2.13706 3.70711C1.74653 3.31658 1.74653 2.68342 2.13706 2.29289ZM6.46203 8.03208C4.82286 9.32619 3.67781 10.921 3.11029 11.8194C3.0748 11.8755 3.04992 11.915 3.02912 11.9492C3.01524 11.9721 3.0061 11.9878 3 11.9988C3 11.9992 3 11.9996 3 12C3 12.0004 3 12.0008 3 12.0012C3.00602 12.012 3.01502 12.0276 3.02865 12.05C3.04931 12.084 3.07404 12.1232 3.10938 12.1792C3.64205 13.0226 4.69615 14.4999 6.20244 15.7571C7.70638 17.0123 9.60083 18 11.8442 18C13.1971 18 14.4216 17.6414 15.5112 17.0812L13.876 15.446C13.2805 15.7977 12.5856 16 11.8442 16C9.63503 16 7.84417 14.2091 7.84417 12C7.84417 11.2586 8.04646 10.5636 8.39813 9.96818L6.46203 8.03208ZM9.91175 11.4818C9.86763 11.647 9.84417 11.8207 9.84417 12C9.84417 13.1046 10.7396 14 11.8442 14C12.0235 14 12.1972 13.9765 12.3624 13.9324L9.91175 11.4818ZM11.8442 6C11.4623 6 11.0919 6.02849 10.733 6.08156C10.1866 6.16234 9.67823 5.78492 9.59745 5.23858C9.51667 4.69223 9.89409 4.18385 10.4404 4.10307C10.8943 4.03597 11.3624 4 11.8442 4C14.7058 4 17.0388 5.26472 18.7674 6.70743C20.4937 8.14818 21.6772 9.81429 22.2699 10.7528C22.2778 10.7652 22.2858 10.7779 22.294 10.7908C22.4117 10.976 22.5644 11.2164 22.6416 11.5533C22.7039 11.8253 22.7039 12.1751 22.6415 12.4471C22.5643 12.7841 22.4108 13.0254 22.2927 13.2113C22.2844 13.2243 22.2763 13.2371 22.2683 13.2497C21.95 13.7536 21.467 14.4581 20.827 15.2224C20.4724 15.6459 19.8417 15.7017 19.4183 15.3472C18.9948 14.9926 18.939 14.3619 19.2935 13.9385C19.8649 13.2561 20.2962 12.6267 20.5775 12.1814C20.6131 12.1251 20.6381 12.0855 20.659 12.0512C20.673 12.0281 20.6822 12.0122 20.6883 12.0012C20.6883 12.0008 20.6883 12.0004 20.6883 12C20.6883 11.9996 20.6883 11.9992 20.6883 11.9988C20.6823 11.988 20.6733 11.9725 20.6597 11.95C20.639 11.916 20.6143 11.8768 20.5789 11.8208C20.0463 10.9774 18.9922 9.50007 17.4859 8.24291C15.982 6.9877 14.0875 6 11.8442 6Z" fill="#222222"/>
</svg>
