<svg width="24" height="24" viewBox="0 0 24 24" fill="none" xmlns="http://www.w3.org/2000/svg">
<path fill-rule="evenodd" clip-rule="evenodd" d="M11.4774 1.33639C11.8197 1.24371 12.1805 1.24371 12.5228 1.33639C12.9202 1.44398 13.2548 1.70663 13.5218 1.91627C13.5473 1.93628 13.5721 1.95581 13.5964 1.97468L20.3787 7.2498C20.4048 7.27011 20.4307 7.29022 20.4564 7.31016C20.833 7.60244 21.1648 7.85994 21.4121 8.19424C21.6291 8.48762 21.7907 8.81813 21.8891 9.16953C22.0012 9.56995 22.0007 9.98996 22.0002 10.4667C22.0002 10.4992 22.0001 10.532 22.0001 10.5651V17.8386C22.0002 18.3657 22.0002 18.8205 21.9696 19.195C21.9373 19.5904 21.866 19.9836 21.6732 20.362C21.3855 20.9265 20.9266 21.3854 20.3621 21.673C19.9837 21.8658 19.5905 21.9371 19.1952 21.9694C18.8206 22.0001 18.3658 22 17.8387 22H6.16157C5.63443 22 5.17968 22.0001 4.80511 21.9694C4.40977 21.9371 4.01655 21.8658 3.63817 21.673C3.07368 21.3854 2.61474 20.9265 2.32712 20.362C2.13433 19.9836 2.06301 19.5904 2.03071 19.195C2.00011 18.8205 2.00012 18.3657 2.00014 17.8386L2.00014 10.5651C2.00014 10.532 2.0001 10.4992 2.00007 10.4667C1.99955 9.98996 1.9991 9.56995 2.11118 9.16953C2.20954 8.81813 2.37119 8.48762 2.58818 8.19424C2.83544 7.85994 3.16725 7.60243 3.54389 7.31015C3.56958 7.29021 3.59549 7.2701 3.62159 7.2498L10.4039 1.97468C10.4282 1.95581 10.453 1.93628 10.4785 1.91627C10.7455 1.70663 11.0801 1.44398 11.4774 1.33639ZM11.9928 3.28156C11.9177 3.33177 11.8187 3.40801 11.6318 3.55338L4.84947 8.82851C4.3514 9.2159 4.25864 9.29904 4.19615 9.38354C4.12382 9.48133 4.06994 9.5915 4.03715 9.70863C4.00883 9.80983 4.00014 9.93409 4.00014 10.5651V17.8C4.00014 18.3766 4.00092 18.7488 4.02407 19.0322C4.04626 19.3038 4.08394 19.4046 4.10913 19.454C4.20501 19.6422 4.35799 19.7952 4.54615 19.891C4.59559 19.9162 4.69631 19.9539 4.96798 19.9761C5.25131 19.9992 5.62359 20 6.20014 20H17.8001C18.3767 20 18.749 19.9992 19.0323 19.9761C19.304 19.9539 19.4047 19.9162 19.4541 19.891C19.6423 19.7952 19.7953 19.6422 19.8911 19.454C19.9163 19.4046 19.954 19.3038 19.9762 19.0322C19.9994 18.7488 20.0001 18.3766 20.0001 17.8V10.5651C20.0001 9.9341 19.9915 9.80983 19.9631 9.70863C19.9303 9.5915 19.8765 9.48133 19.8041 9.38354C19.7416 9.29905 19.6489 9.2159 19.1508 8.82851L12.3685 3.55338C12.1816 3.40801 12.0826 3.33177 12.0074 3.28156C12.0049 3.27986 12.0025 3.27825 12.0001 3.27672C11.9978 3.27825 11.9954 3.27986 11.9928 3.28156ZM7.00014 17C7.00014 16.4477 7.44785 16 8.00014 16H16.0001C16.5524 16 17.0001 16.4477 17.0001 17C17.0001 17.5523 16.5524 18 16.0001 18H8.00014C7.44785 18 7.00014 17.5523 7.00014 17Z" fill="#222222"/>
</svg>
