<svg xmlns="http://www.w3.org/2000/svg" width="20" height="20" viewBox="0 0 20 20" fill="none">
  <path fill-rule="evenodd" clip-rule="evenodd" d="M9.16675 3.33329C5.94509 3.33329 3.33341 5.94496 3.33341 9.16663C3.33341 12.3883 5.94509 15 9.16675 15C10.7384 15 12.1648 14.3784 13.2137 13.3678C13.2357 13.3393 13.2597 13.3118 13.2858 13.2857C13.312 13.2596 13.3394 13.2355 13.3679 13.2136C14.3786 12.1647 15.0001 10.7382 15.0001 9.16663C15.0001 5.94496 12.3884 3.33329 9.16675 3.33329ZM15.0267 13.848C16.053 12.565 16.6667 10.9375 16.6667 9.16663C16.6667 5.02449 13.3089 1.66663 9.16675 1.66663C5.02461 1.66663 1.66675 5.02449 1.66675 9.16663C1.66675 13.3088 5.02461 16.6666 9.16675 16.6666C10.9376 16.6666 12.5651 16.0529 13.8482 15.0265L16.9108 18.0892C17.2363 18.4147 17.7639 18.4147 18.0893 18.0892C18.4148 17.7638 18.4148 17.2361 18.0893 16.9107L15.0267 13.848ZM8.33341 4.99996C8.33341 4.53972 8.70651 4.16663 9.16675 4.16663C11.9282 4.16663 14.1667 6.4052 14.1667 9.16663C14.1667 9.62686 13.7937 9.99996 13.3334 9.99996C12.8732 9.99996 12.5001 9.62686 12.5001 9.16663C12.5001 7.32568 11.0077 5.83329 9.16675 5.83329C8.70651 5.83329 8.33341 5.4602 8.33341 4.99996Z" fill="#414141"/>
</svg>