<svg width="16" height="16" viewBox="0 0 16 16" fill="none" xmlns="http://www.w3.org/2000/svg">
<path fill-rule="evenodd" clip-rule="evenodd" d="M7.3335 2.66665C4.75617 2.66665 2.66683 4.75598 2.66683 7.33331C2.66683 9.91064 4.75617 12 7.3335 12C8.59079 12 9.73196 11.5028 10.5711 10.6942C10.5886 10.6714 10.6079 10.6495 10.6288 10.6286C10.6497 10.6077 10.6716 10.5885 10.6944 10.5709C11.5029 9.73178 12.0002 8.59061 12.0002 7.33331C12.0002 4.75598 9.91082 2.66665 7.3335 2.66665ZM12.0214 11.0784C12.8425 10.052 13.3335 8.74999 13.3335 7.33331C13.3335 4.0196 10.6472 1.33331 7.3335 1.33331C4.01979 1.33331 1.3335 4.0196 1.3335 7.33331C1.3335 10.647 4.01979 13.3333 7.3335 13.3333C8.75017 13.3333 10.0522 12.8423 11.0786 12.0212L13.5288 14.4714C13.7891 14.7317 14.2112 14.7317 14.4716 14.4714C14.7319 14.211 14.7319 13.7889 14.4716 13.5286L12.0214 11.0784ZM6.66683 3.99998C6.66683 3.63179 6.96531 3.33331 7.3335 3.33331C9.54263 3.33331 11.3335 5.12417 11.3335 7.33331C11.3335 7.7015 11.035 7.99998 10.6668 7.99998C10.2986 7.99998 10.0002 7.7015 10.0002 7.33331C10.0002 5.86055 8.80625 4.66665 7.3335 4.66665C6.96531 4.66665 6.66683 4.36817 6.66683 3.99998Z" fill="white"/>
</svg>
