<svg width="20" height="20" viewBox="0 0 20 20" fill="none" xmlns="http://www.w3.org/2000/svg">
<path d="M5 3H15V16L10 14.5L5 16V3Z" fill="#F20090"/>
<path fill-rule="evenodd" clip-rule="evenodd" d="M8.13241 1.66667H11.8679C12.5387 1.66666 13.0924 1.66665 13.5434 1.70349C14.0118 1.74177 14.4424 1.8239 14.8468 2.02998C15.474 2.34956 15.9839 2.85949 16.3035 3.4867C16.5096 3.89114 16.5917 4.32173 16.63 4.79015C16.6669 5.24115 16.6668 5.79479 16.6668 6.4656V17.5C16.6668 17.7971 16.5087 18.0717 16.2518 18.2208C15.9948 18.3699 15.678 18.3709 15.42 18.2235L10.0002 15.1265L4.58028 18.2235C4.32236 18.3709 4.00549 18.3699 3.74856 18.2208C3.49163 18.0717 3.3335 17.7971 3.3335 17.5L3.3335 6.46558C3.33349 5.79478 3.33348 5.24114 3.37032 4.79015C3.4086 4.32173 3.49073 3.89114 3.69681 3.4867C4.01639 2.85949 4.52632 2.34956 5.15353 2.02998C5.55797 1.8239 5.98856 1.74177 6.45698 1.70349C6.90797 1.66665 7.46161 1.66666 8.13241 1.66667ZM6.59269 3.36463C6.22735 3.39448 6.04051 3.44858 5.91018 3.51499C5.59658 3.67478 5.34161 3.92975 5.18182 4.24335C5.11541 4.37368 5.06131 4.56052 5.03146 4.92586C5.00081 5.30094 5.00016 5.78618 5.00016 6.5V16.064L9.58671 13.4431C9.84291 13.2967 10.1574 13.2967 10.4136 13.4431L15.0002 16.064V6.5C15.0002 5.78618 14.9995 5.30094 14.9689 4.92586C14.939 4.56052 14.8849 4.37368 14.8185 4.24335C14.6587 3.92975 14.4038 3.67478 14.0901 3.51499C13.9598 3.44858 13.773 3.39448 13.4076 3.36463C13.0326 3.33398 12.5473 3.33333 11.8335 3.33333H8.16683C7.45301 3.33333 6.96777 3.33398 6.59269 3.36463Z" fill="#F20090"/>
</svg>
