<svg width="24" height="24" viewBox="0 0 24 24" fill="none" xmlns="http://www.w3.org/2000/svg">
<path d="M11.315 3.7791C11.5351 3.33743 11.6452 3.1166 11.7945 3.04604C11.9245 2.98465 12.0755 2.98465 12.2055 3.04604C12.3548 3.1166 12.4649 3.33743 12.685 3.7791L14.7729 7.96929C14.8378 8.09968 14.8703 8.16488 14.9178 8.2155C14.9598 8.26031 15.0102 8.29663 15.0662 8.32242C15.1295 8.35156 15.2021 8.36207 15.3473 8.3831L20.0177 9.05934C20.5095 9.13055 20.7554 9.16616 20.8692 9.28515C20.9682 9.38868 21.0147 9.53095 20.9959 9.67233C20.9742 9.83484 20.7962 10.0066 20.4401 10.3502L17.0619 13.6097C16.9566 13.7113 16.904 13.7621 16.87 13.8225C16.8399 13.8761 16.8206 13.9349 16.8132 13.9957C16.8048 14.0644 16.8172 14.1361 16.842 14.2797L17.6391 18.8836C17.7232 19.3692 17.7653 19.612 17.6863 19.7561C17.6175 19.8814 17.4953 19.9693 17.3538 19.9953C17.191 20.0252 16.9709 19.9106 16.5307 19.6812L12.3555 17.5061C12.2255 17.4384 12.1604 17.4045 12.0919 17.3912C12.0312 17.3794 11.9688 17.3794 11.9081 17.3912C11.8396 17.4045 11.7746 17.4384 11.6445 17.5061L7.46926 19.6812C7.02908 19.9106 6.80899 20.0252 6.64625 19.9953C6.50465 19.9693 6.38248 19.8814 6.31374 19.7561C6.23474 19.612 6.27678 19.3692 6.36085 18.8836L7.15795 14.2797C7.1828 14.1361 7.19523 14.0644 7.18682 13.9957C7.17938 13.9349 7.16008 13.8761 7.12999 13.8225C7.09602 13.7621 7.04336 13.7113 6.93805 13.6097L3.55985 10.3502C3.2038 10.0066 3.02578 9.83484 3.00411 9.67233C2.98526 9.53095 3.03183 9.38868 3.13084 9.28515C3.24464 9.16616 3.49054 9.13055 3.98235 9.05934L8.65266 8.3831C8.7979 8.36207 8.87052 8.35156 8.93377 8.32242C8.98976 8.29663 9.04018 8.26031 9.08221 8.2155C9.12969 8.16488 9.16217 8.09968 9.22714 7.96929L11.315 3.7791Z" fill="#F6FA70"/>
</svg>
