<svg width="92" height="32" viewBox="0 0 92 32" fill="none" xmlns="http://www.w3.org/2000/svg">
<g clip-path="url(#clip0_520_6553)">
<rect width="92" height="32" fill="white"/>
<g clip-path="url(#clip1_520_6553)">
<path d="M82.9511 25.3098C80.8968 25.3098 79.7095 26.9987 79.7095 28.5855C79.7095 30.4897 81.0809 31.9178 82.9738 31.9178C84.2829 31.9178 85.1642 31.4475 85.8329 30.4982L85.8811 30.4274L84.4728 29.7615L84.4359 29.7955C84.0137 30.2063 83.5887 30.3735 82.971 30.3735C82.1265 30.3735 81.5117 29.889 81.3473 29.1041H86.1389C86.1389 29.1041 86.1616 28.9652 86.1616 28.6875C86.1616 26.6983 84.7958 25.3098 82.9483 25.3098H82.9511ZM81.4408 27.7553C81.7298 27.0979 82.2597 26.7493 82.9766 26.7493C83.736 26.7493 84.3311 27.1319 84.555 27.7553H81.4408Z" fill="#3E19A3"/>
<path d="M27.5682 28.3475L26.3809 29.5858V31.8243H24.5135V22.9749H26.3809V27.1092L30.2998 22.9749H32.5752L28.9085 26.9193L32.7905 31.8243H30.4018L27.571 28.3475H27.5682Z" fill="#3E19A3"/>
<path d="M41.6031 26.1854C41.6031 28.1576 40.1239 29.3846 37.7607 29.3846H35.9783V31.8243H34.1082V22.9749H37.7607C40.1239 22.9749 41.6031 24.2019 41.6031 26.1854ZM39.5289 26.1854C39.5289 25.2135 38.897 24.6439 37.6445 24.6439H35.9755V27.7156H37.6445C38.897 27.7156 39.5289 27.146 39.5289 26.1854Z" fill="#3E19A3"/>
<path d="M43.0737 22.9749H44.9439V31.8243H43.0737V22.9749Z" fill="#3E19A3"/>
<path d="M57.188 22.9778L54.0001 26.6161L50.8123 22.9778H49.1943V31.8187H51.0645V26.1684L54.0001 29.3874L56.9188 26.1684V31.8187H58.7918V22.9778H57.188Z" fill="#3E19A3"/>
<path d="M74.0338 25.5167H75.1531V23.808L76.8873 23.4878V25.5139H78.7405V26.9675H76.8986V29.3137C76.8986 29.7048 77.0148 29.974 77.2443 30.1213C77.4767 30.2687 77.7685 30.3423 78.1256 30.3423C78.1964 30.3423 78.2758 30.3367 78.3664 30.3282C78.4543 30.3197 78.5364 30.3055 78.6073 30.2885V31.8215C78.4826 31.8583 78.3409 31.881 78.1794 31.8952C78.0179 31.9093 77.8677 31.915 77.726 31.915C77.3435 31.915 76.9921 31.8668 76.6719 31.7676C76.3517 31.6685 76.0797 31.5211 75.853 31.3199C75.6263 31.1187 75.4506 30.8609 75.326 30.5464C75.2013 30.2318 75.1389 29.8606 75.1389 29.4327V26.9647H74.031V25.511L74.0338 25.5167Z" fill="#3E19A3"/>
<path d="M87.5444 31.8187V25.5224H89.1001V26.5368C89.2531 26.1458 89.6271 25.8426 89.9615 25.63C90.2959 25.4175 90.7011 25.3098 91.1828 25.3098C91.2706 25.3098 91.3528 25.3155 91.4293 25.324C91.5058 25.3325 91.5597 25.3467 91.5965 25.3637V26.9788C91.571 26.9703 91.5172 26.959 91.4435 26.9448C91.3698 26.9307 91.2933 26.925 91.2225 26.925C90.9193 26.925 90.6501 26.9732 90.4149 27.0724C90.1797 27.1715 89.9785 27.3075 89.8142 27.4861C89.5166 27.8063 89.3013 28.2171 89.3013 28.968V31.8243H87.5444V31.8187Z" fill="#3E19A3"/>
<path d="M73.042 28.8887C72.4611 28.0585 71.339 27.9564 70.7241 27.8091C70.4549 27.7439 69.9335 27.6391 69.9023 27.2367C69.8683 26.7947 70.418 26.619 70.7467 26.6332C71.2454 26.653 71.6733 26.8797 71.9709 27.2934L73.1043 26.2421L73.0675 26.1911C72.8039 25.8312 72.4837 25.5989 72.0615 25.4487C71.3305 25.1908 70.5626 25.1625 69.8371 25.3495C69.1401 25.5309 68.6754 25.9021 68.4033 26.3895C68.2532 26.6587 68.1766 26.976 68.1766 27.3387C68.1766 28.8462 69.5538 29.0899 69.9392 29.1664C70.231 29.2231 70.5087 29.2854 70.7581 29.3506C71.0358 29.4214 71.5855 29.5858 71.5855 30.025C71.5855 30.4642 71.0981 30.6059 70.9451 30.6399C70.8261 30.6654 70.7127 30.6767 70.6051 30.6767C69.8966 30.6767 69.4574 30.263 69.1599 29.9258L68.069 30.9374C68.9162 31.7847 69.704 32.0029 70.5144 32.0029C72.1607 32.0029 72.8124 31.2831 73.0533 30.8977C73.2233 30.6285 73.3083 30.2942 73.3083 29.906C73.3083 29.4809 73.2205 29.1409 73.0448 28.8915L73.042 28.8887Z" fill="#3E19A3"/>
<path d="M65.0173 25.5167V25.8709C64.4902 25.4459 63.8356 25.2305 63.0762 25.2305C61.3506 25.2305 60.0499 26.6841 60.0499 28.6138C60.0499 30.5435 61.3959 31.9858 63.1102 31.9858C63.9291 31.9858 64.5837 31.7761 65.0173 31.3823V31.8187H66.7854V25.5139H65.0173V25.5167ZM65.0881 28.5912C65.0881 29.6793 64.3939 30.4387 63.3964 30.4387C62.399 30.4387 61.7416 29.6679 61.7416 28.6053C61.7416 27.5427 62.4217 26.7833 63.3964 26.7833C64.3712 26.7833 65.0881 27.5286 65.0881 28.594V28.5912Z" fill="#3E19A3"/>
<path d="M4.95316 24.5306C4.82281 24.2246 4.63863 23.9469 4.4006 23.7117C4.16541 23.4765 3.88772 23.2895 3.58169 23.1591C3.57319 23.1563 3.56469 23.1535 3.55902 23.1506V17.5769C3.55902 17.5769 3.53918 17.5854 3.52785 17.5911C3.23315 17.7073 2.91579 17.7724 2.57859 17.7724C2.24139 17.7724 1.90419 17.7044 1.60383 17.5826H1.59816V23.1563C1.59816 23.1563 1.58116 23.162 1.57549 23.1648C1.26946 23.2951 0.991765 23.4793 0.756575 23.7173C0.521385 23.9525 0.334366 24.2302 0.20402 24.5363C0.0680067 24.8536 0 25.1937 0 25.5394C0 25.8851 0.0680067 26.2251 0.20402 26.5425C0.334366 26.8485 0.518551 27.1262 0.756575 27.3614C0.991765 27.5966 1.26946 27.7836 1.57549 27.9139C1.89285 28.0499 2.23289 28.1179 2.57859 28.1179C2.92429 28.1179 3.26432 28.0499 3.58169 27.9139C3.88772 27.7836 4.16541 27.5994 4.4006 27.3614C4.63579 27.1233 4.82281 26.8485 4.95316 26.5425C5.08917 26.2251 5.15718 25.8851 5.15718 25.5394C5.15718 25.1937 5.08917 24.8536 4.95316 24.5363V24.5306ZM2.57859 26.5283C2.0317 26.5283 1.58682 26.0834 1.58682 25.5365C1.58682 24.9896 2.0317 24.5448 2.57859 24.5448C3.12548 24.5448 3.57035 24.9896 3.57035 25.5365C3.57035 26.0834 3.12548 26.5283 2.57859 26.5283Z" fill="#3E19A3"/>
<path d="M4.95316 3.8424C4.82281 3.53637 4.63863 3.25867 4.4006 3.02348C4.16258 2.78829 3.88772 2.60127 3.58169 2.47093C3.26432 2.33491 2.92429 2.26691 2.57859 2.26691C2.23289 2.26691 1.89285 2.33491 1.57549 2.47093C1.26946 2.60127 0.991765 2.78546 0.756575 3.02348C0.521385 3.25867 0.334366 3.53637 0.20402 3.8424C0.0680067 4.15976 0 4.49979 0 4.8455C0 5.1912 0.0680067 5.53123 0.20402 5.84859C0.334366 6.15462 0.518551 6.43232 0.756575 6.66751C0.991765 6.9027 1.26946 7.08972 1.57549 7.22006C1.58399 7.2229 1.59249 7.22573 1.59816 7.22856V12.8051H1.60383C1.87302 12.6946 2.16771 12.6266 2.47374 12.6153C2.84495 12.6011 3.20198 12.6663 3.52502 12.7938C3.53635 12.7994 3.54485 12.8023 3.55619 12.808V7.2314C3.55619 7.2314 3.57319 7.22573 3.57885 7.2229C3.88488 7.09255 4.16258 6.90837 4.39777 6.67034C4.63296 6.43232 4.81998 6.15746 4.95032 5.85143C5.08634 5.53406 5.15434 5.19403 5.15434 4.84833C5.15434 4.50263 5.08634 4.16259 4.95032 3.84523L4.95316 3.8424ZM2.57859 5.84009C2.0317 5.84009 1.58682 5.39522 1.58682 4.84833C1.58682 4.30144 2.0317 3.85656 2.57859 3.85656C3.12548 3.85656 3.57035 4.30144 3.57035 4.84833C3.57035 5.39522 3.12548 5.84009 2.57859 5.84009Z" fill="#3E19A3"/>
<path d="M24.4767 2.47659C24.4257 1.14479 23.3489 0.0623519 22.0171 0.00284602C20.8327 -0.048159 19.8098 0.702749 19.4555 1.75969C18.1181 1.81919 16.8685 2.36608 15.9135 3.32101C14.9048 4.32977 14.3494 5.67291 14.3494 7.10105V10.8272C14.3494 11.8133 13.9612 12.6606 13.2273 13.2755C11.989 14.3126 10.7564 14.2134 10.2463 14.2304H4.97011C4.70942 13.5872 4.19937 13.0715 3.55897 12.8079C3.54764 12.8023 3.53914 12.7994 3.5278 12.7938C3.20477 12.6663 2.84774 12.6011 2.47653 12.6153C2.1705 12.6266 1.87581 12.6946 1.60661 12.8051H1.60095C0.691357 13.182 0.0424598 14.0604 -4.44126e-05 15.089C-0.0425486 16.2083 0.629018 17.1774 1.59528 17.5769H1.60095C1.90131 17.6988 2.23001 17.7668 2.57571 17.7668C2.92141 17.7668 3.23028 17.7016 3.52497 17.5854C3.53631 17.5798 3.54481 17.5769 3.55614 17.5713C4.19654 17.3077 4.70942 16.792 4.96728 16.1488H10.2435C10.7734 16.1686 11.9918 16.0723 13.2244 17.1037C13.9583 17.7186 14.3465 18.563 14.3465 19.5519V23.128C14.3465 24.5561 14.9019 25.8964 15.9107 26.908C16.9195 27.9168 18.2626 28.4722 19.6907 28.4722C20.232 28.4722 20.6712 28.033 20.6712 27.4917C20.6712 26.9505 20.3736 26.5056 19.6794 26.5113C17.8121 26.5255 16.3074 24.984 16.3074 23.1195V19.5519C16.3074 17.9878 15.6613 16.5852 14.4854 15.6019C14.3125 15.4574 14.1312 15.3214 13.9385 15.1995C13.93 15.1938 13.93 15.1825 13.9385 15.1768C14.1284 15.055 14.3125 14.919 14.4854 14.7745C15.6613 13.7912 16.3074 12.3886 16.3074 10.8244V7.09821C16.3074 5.2677 17.7695 3.77155 19.5859 3.71488C20.0081 4.5678 20.8865 5.15436 21.8981 5.15436C23.3546 5.15436 24.5306 3.94157 24.4739 2.47376L24.4767 2.47659ZM2.57854 16.1828C2.03166 16.1828 1.58678 15.7379 1.58678 15.191C1.58678 14.6441 2.03166 14.1993 2.57854 14.1993C3.12543 14.1993 3.57031 14.6441 3.57031 15.191C3.57031 15.7379 3.12543 16.1828 2.57854 16.1828ZM21.901 3.57037C21.3541 3.57037 20.9092 3.12549 20.9092 2.5786C20.9092 2.03171 21.3541 1.58684 21.901 1.58684C22.4478 1.58684 22.8927 2.03171 22.8927 2.5786C22.8927 3.12549 22.4478 3.57037 21.901 3.57037Z" fill="#F20090"/>
</g>
</g>
<defs>
<clipPath id="clip0_520_6553">
<rect width="92" height="32" fill="white"/>
</clipPath>
<clipPath id="clip1_520_6553">
<rect width="91.5937" height="32" fill="white"/>
</clipPath>
</defs>
</svg>
