<svg width="48" height="48" viewBox="0 0 48 48" fill="none" xmlns="http://www.w3.org/2000/svg">
<path d="M10.2374 0H37.7626C43.4186 0 48 4.58141 48 10.2374V37.7626C48 43.4133 43.4186 48 37.7626 48H10.2374C4.58141 48 0 43.4186 0 37.7626V10.2374C0 4.58141 4.58141 0 10.2374 0Z" fill="white"/>
<g clip-path="url(#clip0_304_6259)">
<path d="M15.5663 35.5673C15.4198 35.2234 15.2129 34.9113 14.9454 34.647C14.6811 34.3827 14.369 34.1726 14.0251 34.0261C14.0155 34.0229 14.006 34.0197 13.9996 34.0165V27.7528C13.9996 27.7528 13.9773 27.7624 13.9646 27.7687C13.6334 27.8993 13.2767 27.9725 12.8978 27.9725C12.5189 27.9725 12.1399 27.8961 11.8024 27.7592H11.796V34.0229C11.796 34.0229 11.7769 34.0293 11.7705 34.0324C11.4266 34.1789 11.1145 34.3859 10.8502 34.6534C10.5859 34.9177 10.3758 35.2298 10.2293 35.5737C10.0764 35.9303 10 36.3125 10 36.701C10 37.0895 10.0764 37.4716 10.2293 37.8282C10.3758 38.1722 10.5827 38.4842 10.8502 38.7485C11.1145 39.0128 11.4266 39.223 11.7705 39.3695C12.1272 39.5223 12.5093 39.5988 12.8978 39.5988C13.2863 39.5988 13.6684 39.5223 14.0251 39.3695C14.369 39.223 14.6811 39.016 14.9454 38.7485C15.2097 38.481 15.4198 38.1722 15.5663 37.8282C15.7192 37.4716 15.7956 37.0895 15.7956 36.701C15.7956 36.3125 15.7192 35.9303 15.5663 35.5737V35.5673ZM12.8978 37.8123C12.2832 37.8123 11.7833 37.3124 11.7833 36.6978C11.7833 36.0832 12.2832 35.5832 12.8978 35.5832C13.5124 35.5832 14.0123 36.0832 14.0123 36.6978C14.0123 37.3124 13.5124 37.8123 12.8978 37.8123Z" fill="#3E19A3"/>
<path d="M15.5663 12.318C15.4198 11.9741 15.2129 11.6621 14.9454 11.3977C14.6779 11.1334 14.369 10.9233 14.0251 10.7768C13.6684 10.6239 13.2863 10.5475 12.8978 10.5475C12.5093 10.5475 12.1272 10.6239 11.7705 10.7768C11.4266 10.9233 11.1145 11.1303 10.8502 11.3977C10.5859 11.6621 10.3758 11.9741 10.2293 12.318C10.0764 12.6747 10 13.0568 10 13.4453C10 13.8338 10.0764 14.2159 10.2293 14.5726C10.3758 14.9165 10.5827 15.2286 10.8502 15.4929C11.1145 15.7572 11.4266 15.9674 11.7705 16.1138C11.7801 16.117 11.7896 16.1202 11.796 16.1234V22.3903H11.8024C12.1049 22.2661 12.4361 22.1897 12.78 22.1769C13.1971 22.161 13.5984 22.2343 13.9614 22.3775C13.9741 22.3839 13.9837 22.3871 13.9964 22.3935V16.1266C13.9964 16.1266 14.0155 16.1202 14.0219 16.117C14.3658 15.9705 14.6779 15.7636 14.9422 15.4961C15.2065 15.2286 15.4167 14.9197 15.5631 14.5758C15.716 14.2191 15.7924 13.837 15.7924 13.4485C15.7924 13.06 15.716 12.6779 15.5631 12.3212L15.5663 12.318ZM12.8978 14.563C12.2832 14.563 11.7833 14.0631 11.7833 13.4485C11.7833 12.8339 12.2832 12.334 12.8978 12.334C13.5124 12.334 14.0123 12.8339 14.0123 13.4485C14.0123 14.0631 13.5124 14.563 12.8978 14.563Z" fill="#3E19A3"/>
<path d="M37.5068 10.7832C37.4495 9.28649 36.2394 8.07005 34.7428 8.00318C33.4117 7.94586 32.2621 8.78973 31.8641 9.97751C30.361 10.0444 28.9567 10.659 27.8836 11.7321C26.7499 12.8658 26.1258 14.3752 26.1258 15.9801V20.1676C26.1258 21.2757 25.6895 22.2279 24.8648 22.9189C23.4732 24.0844 22.088 23.9729 21.5148 23.992H15.5854C15.2925 23.2692 14.7193 22.6896 13.9996 22.3935C13.9869 22.3871 13.9773 22.3839 13.9646 22.3775C13.6016 22.2342 13.2003 22.161 12.7832 22.1769C12.4393 22.1897 12.1081 22.2661 11.8056 22.3903H11.7992C10.777 22.8138 10.0478 23.801 10 24.9569C9.95224 26.2147 10.7069 27.3038 11.7928 27.7528H11.7992C12.1367 27.8897 12.5061 27.9662 12.8946 27.9662C13.2831 27.9662 13.6302 27.8929 13.9614 27.7624C13.9741 27.756 13.9837 27.7528 13.9964 27.7464C14.7161 27.4503 15.2925 26.8707 15.5823 26.1479H21.5116C22.1071 26.1702 23.4764 26.0619 24.8616 27.221C25.6863 27.912 26.1226 28.861 26.1226 29.9723V33.991C26.1226 35.596 26.7467 37.1022 27.8804 38.239C29.014 39.3727 30.5234 39.9968 32.1284 39.9968C32.7366 39.9968 33.2302 39.5032 33.2302 38.895C33.2302 38.2868 32.8958 37.7868 32.1156 37.7932C30.0171 37.8091 28.3262 36.0768 28.3262 33.9815V29.9723C28.3262 28.2145 27.6002 26.6383 26.2786 25.5333C26.0844 25.3709 25.8806 25.218 25.6641 25.0811C25.6545 25.0747 25.6545 25.062 25.6641 25.0556C25.8774 24.9187 26.0844 24.7658 26.2786 24.6034C27.6002 23.4985 28.3262 21.9222 28.3262 20.1644V15.9769C28.3262 13.9198 29.9694 12.2384 32.0106 12.1747C32.485 13.1332 33.4722 13.7924 34.609 13.7924C36.2458 13.7924 37.5673 12.4295 37.5036 10.78L37.5068 10.7832ZM12.8978 26.1861C12.2832 26.1861 11.7833 25.6861 11.7833 25.0715C11.7833 24.457 12.2832 23.957 12.8978 23.957C13.5124 23.957 14.0123 24.457 14.0123 25.0715C14.0123 25.6861 13.5124 26.1861 12.8978 26.1861ZM34.6122 12.0123C33.9976 12.0123 33.4977 11.5124 33.4977 10.8978C33.4977 10.2832 33.9976 9.78326 34.6122 9.78326C35.2268 9.78326 35.7267 10.2832 35.7267 10.8978C35.7267 11.5124 35.2268 12.0123 34.6122 12.0123Z" fill="#F20090"/>
</g>
<defs>
<clipPath id="clip0_304_6259">
<rect width="27.5068" height="32" fill="white" transform="translate(10 8)"/>
</clipPath>
</defs>
</svg>
