<svg width="25" height="24" viewBox="0 0 25 24" fill="none" xmlns="http://www.w3.org/2000/svg">
<path fill-rule="evenodd" clip-rule="evenodd" d="M4.24677 3.76054L10.4847 19.7452L12.9267 13.4657C12.9294 13.4589 12.9324 13.4509 12.9358 13.442C12.9689 13.355 13.0373 13.1753 13.1514 13.0153C13.2479 12.88 13.3662 12.7617 13.5015 12.6652C13.6615 12.5511 13.8413 12.4827 13.9282 12.4496C13.9371 12.4462 13.9451 12.4432 13.9519 12.4405L20.2315 9.99846L4.24677 3.76054ZM1.96044 3.35244C1.90723 3.16926 1.81162 2.8008 1.94383 2.40503C2.09321 1.95788 2.44411 1.60698 2.89126 1.4576C3.28703 1.32538 3.65549 1.421 3.83868 1.47421C4.03831 1.53219 4.27623 1.62509 4.51493 1.71828L21.4721 8.3357C21.7389 8.43979 21.9973 8.5406 22.1968 8.63923C22.3691 8.72445 22.7355 8.91414 22.94 9.30775C23.1655 9.74181 23.1652 10.2586 22.9392 10.6924C22.7342 11.0857 22.3676 11.275 22.1952 11.36C21.9956 11.4584 21.7371 11.5589 21.4701 11.6627L14.7588 14.2726L12.1626 20.9486C12.1581 20.9604 12.1535 20.9721 12.1489 20.9839C12.0451 21.2508 11.9446 21.5094 11.8462 21.709C11.7612 21.8814 11.572 22.248 11.1786 22.4529C10.7448 22.6789 10.228 22.6792 9.79398 22.4537C9.40037 22.2493 9.21069 21.8829 9.12547 21.7106C9.02683 21.5111 8.92602 21.2527 8.82193 20.9858C8.81735 20.9741 8.81277 20.9623 8.80818 20.9506L2.20452 4.02872C2.11132 3.79 2.01843 3.55208 1.96044 3.35244Z" fill="#222222"/>
</svg>
