<svg width="40" height="40" viewBox="0 0 40 40" fill="none" xmlns="http://www.w3.org/2000/svg">
<rect width="40" height="40"/>
<path fill-rule="evenodd" clip-rule="evenodd" d="M11.7468 11.7605L17.9847 27.7452L20.4267 21.4657C20.4294 21.4589 20.4324 21.4509 20.4358 21.442C20.4689 21.355 20.5373 21.1753 20.6514 21.0153C20.7479 20.88 20.8662 20.7617 21.0015 20.6652C21.1615 20.5511 21.3413 20.4827 21.4282 20.4496C21.4371 20.4462 21.4451 20.4432 21.4519 20.4405L27.7315 17.9985L11.7468 11.7605ZM9.46044 11.3524C9.40723 11.1693 9.31162 10.8008 9.44383 10.405C9.59321 9.95788 9.94411 9.60698 10.3913 9.4576C10.787 9.32538 11.1555 9.421 11.3387 9.47421C11.5383 9.53219 11.7762 9.62509 12.0149 9.71828L28.9721 16.3357C29.2389 16.4398 29.4973 16.5406 29.6968 16.6392C29.8691 16.7245 30.2355 16.9141 30.44 17.3077C30.6655 17.7418 30.6652 18.2586 30.4392 18.6924C30.2342 19.0857 29.8676 19.275 29.6952 19.36C29.4956 19.4584 29.2371 19.5589 28.9701 19.6627L22.2588 22.2726L19.6626 28.9486C19.6581 28.9604 19.6535 28.9721 19.6489 28.9839C19.5451 29.2508 19.4446 29.5094 19.3462 29.709C19.2612 29.8814 19.072 30.248 18.6786 30.4529C18.2448 30.6789 17.728 30.6792 17.294 30.4537C16.9004 30.2493 16.7107 29.8829 16.6255 29.7106C16.5268 29.5111 16.426 29.2527 16.3219 28.9858C16.3174 28.9741 16.3128 28.9623 16.3082 28.9506L9.70452 12.0287C9.61132 11.79 9.51843 11.5521 9.46044 11.3524Z" fill="#222222"/>
</svg>
