<svg width="20" height="20" viewBox="0 0 20 20" fill="none" xmlns="http://www.w3.org/2000/svg">
<g clip-path="url(#clip0_357_6074)">
<path fill-rule="evenodd" clip-rule="evenodd" d="M10.0002 2.50001C5.85803 2.50001 2.50016 5.85787 2.50016 10C2.50016 14.1421 5.85803 17.5 10.0002 17.5C14.1423 17.5 17.5002 14.1421 17.5002 10C17.5002 5.85787 14.1423 2.50001 10.0002 2.50001ZM0.833496 10C0.833496 4.9374 4.93755 0.833344 10.0002 0.833344C15.0628 0.833344 19.1668 4.9374 19.1668 10C19.1668 15.0626 15.0628 19.1667 10.0002 19.1667C4.93755 19.1667 0.833496 15.0626 0.833496 10ZM10.0002 5.83334C10.4604 5.83334 10.8335 6.20644 10.8335 6.66668V9.16668H13.3335C13.7937 9.16668 14.1668 9.53977 14.1668 10C14.1668 10.4602 13.7937 10.8333 13.3335 10.8333H10.8335V13.3333C10.8335 13.7936 10.4604 14.1667 10.0002 14.1667C9.53993 14.1667 9.16683 13.7936 9.16683 13.3333V10.8333H6.66683C6.20659 10.8333 5.8335 10.4602 5.8335 10C5.8335 9.53977 6.20659 9.16668 6.66683 9.16668H9.16683V6.66668C9.16683 6.20644 9.53993 5.83334 10.0002 5.83334Z" fill="white"/>
</g>
<defs>
<clipPath id="clip0_357_6074">
<rect width="20" height="20" fill="white"/>
</clipPath>
</defs>
</svg>
