<svg width="20" height="20" viewBox="0 0 20 20" fill="none" xmlns="http://www.w3.org/2000/svg">
<path fill-rule="evenodd" clip-rule="evenodd" d="M7.29892 0.833313H12.7011C13.3719 0.833303 13.9255 0.833294 14.3765 0.870142C14.8449 0.908413 15.2755 0.99055 15.68 1.19663C16.3072 1.5162 16.8171 2.02614 17.1367 2.65335C17.3428 3.05779 17.4249 3.48838 17.4632 3.95679C17.5 4.40778 17.5 4.96141 17.5 5.63221V8.33331C17.5 8.79355 17.1269 9.16665 16.6667 9.16665C16.2064 9.16665 15.8333 8.79355 15.8333 8.33331V5.66665C15.8333 4.95283 15.8327 4.46759 15.802 4.09251C15.7722 3.72717 15.7181 3.54033 15.6517 3.41C15.4919 3.09639 15.2369 2.84143 14.9233 2.68164C14.793 2.61523 14.6061 2.56112 14.2408 2.53127C13.8657 2.50063 13.3805 2.49998 12.6667 2.49998H7.33333C6.61952 2.49998 6.13427 2.50063 5.7592 2.53127C5.39385 2.56112 5.20702 2.61523 5.07668 2.68164C4.76308 2.84143 4.50811 3.09639 4.34832 3.41C4.28192 3.54033 4.22781 3.72717 4.19796 4.09251C4.16732 4.46759 4.16667 4.95283 4.16667 5.66665V14.3333C4.16667 15.0471 4.16732 15.5324 4.19796 15.9074C4.22781 16.2728 4.28192 16.4596 4.34832 16.59C4.50811 16.9036 4.76308 17.1585 5.07668 17.3183C5.20702 17.3847 5.39385 17.4388 5.7592 17.4687C6.13427 17.4993 6.61952 17.5 7.33333 17.5H8.75C9.21024 17.5 9.58333 17.8731 9.58333 18.3333C9.58333 18.7936 9.21024 19.1666 8.75 19.1666H7.2989C6.6281 19.1667 6.07447 19.1667 5.62348 19.1298C5.15506 19.0915 4.72448 19.0094 4.32003 18.8033C3.69283 18.4838 3.18289 17.9738 2.86331 17.3466C2.65724 16.9422 2.5751 16.5116 2.53683 16.0432C2.49998 15.5922 2.49999 15.0385 2.5 14.3677V5.63223C2.49999 4.96142 2.49998 4.40779 2.53683 3.95679C2.5751 3.48838 2.65724 3.05779 2.86331 2.65335C3.18289 2.02614 3.69283 1.5162 4.32003 1.19663C4.72448 0.99055 5.15506 0.908413 5.62348 0.870142C6.07448 0.833294 6.62811 0.833303 7.29892 0.833313ZM5.83333 5.83331C5.83333 5.37308 6.20643 4.99998 6.66667 4.99998H13.3333C13.7936 4.99998 14.1667 5.37308 14.1667 5.83331C14.1667 6.29355 13.7936 6.66665 13.3333 6.66665H6.66667C6.20643 6.66665 5.83333 6.29355 5.83333 5.83331ZM5.83333 9.16665C5.83333 8.70641 6.20643 8.33331 6.66667 8.33331H10.8333C11.2936 8.33331 11.6667 8.70641 11.6667 9.16665C11.6667 9.62689 11.2936 9.99998 10.8333 9.99998H6.66667C6.20643 9.99998 5.83333 9.62689 5.83333 9.16665ZM12.2917 12.7083C12.2917 11.4427 13.3177 10.4166 14.5833 10.4166C15.849 10.4166 16.875 11.4427 16.875 12.7083V13.3567C17.0437 13.3766 17.233 13.418 17.4233 13.515C17.7369 13.6748 17.9919 13.9297 18.1517 14.2433C18.2669 14.4695 18.3036 14.6943 18.3192 14.8848C18.3334 15.0583 18.3334 15.2631 18.3333 15.4734V16.1932C18.3334 16.4036 18.3334 16.6084 18.3192 16.7818C18.3036 16.9723 18.2669 17.1971 18.1517 17.4233C17.9919 17.7369 17.7369 17.9919 17.4233 18.1517C17.1971 18.2669 16.9724 18.3036 16.7819 18.3192C16.6084 18.3334 16.4036 18.3333 16.1933 18.3333H12.9734C12.7631 18.3333 12.5583 18.3334 12.3848 18.3192C12.1943 18.3036 11.9695 18.2669 11.7433 18.1517C11.4297 17.9919 11.1748 17.7369 11.015 17.4233C10.8997 17.1971 10.863 16.9723 10.8475 16.7818C10.8333 16.6084 10.8333 16.4035 10.8333 16.1932V15.4734C10.8333 15.2631 10.8333 15.0583 10.8475 14.8848C10.863 14.6943 10.8997 14.4695 11.015 14.2433C11.1748 13.9297 11.4297 13.6748 11.7433 13.515C11.9336 13.418 12.1229 13.3766 12.2917 13.3567V12.7083ZM13 15C12.7529 15 12.6177 15.0006 12.5205 15.0086C12.5167 15.0089 12.513 15.0092 12.5095 15.0095C12.5092 15.013 12.5089 15.0166 12.5086 15.0205C12.5006 15.1177 12.5 15.2529 12.5 15.5V16.1666C12.5 16.4138 12.5006 16.549 12.5086 16.6461C12.5089 16.65 12.5092 16.6536 12.5095 16.6571C12.513 16.6574 12.5167 16.6577 12.5205 16.6581C12.6177 16.666 12.7529 16.6666 13 16.6666H16.1667C16.4138 16.6666 16.549 16.666 16.6461 16.6581C16.65 16.6577 16.6537 16.6574 16.6571 16.6571C16.6574 16.6536 16.6578 16.65 16.6581 16.6461C16.666 16.549 16.6667 16.4138 16.6667 16.1666V15.5C16.6667 15.2529 16.666 15.1177 16.6581 15.0205C16.6578 15.0166 16.6574 15.013 16.6571 15.0095C16.6537 15.0092 16.65 15.0089 16.6461 15.0086C16.549 15.0006 16.4138 15 16.1667 15H13ZM15.2083 13.3333H13.9583V12.7083C13.9583 12.3631 14.2382 12.0833 14.5833 12.0833C14.9285 12.0833 15.2083 12.3631 15.2083 12.7083V13.3333ZM5.83333 12.5C5.83333 12.0397 6.20643 11.6666 6.66667 11.6666H9.16667C9.6269 11.6666 10 12.0397 10 12.5C10 12.9602 9.6269 13.3333 9.16667 13.3333H6.66667C6.20643 13.3333 5.83333 12.9602 5.83333 12.5Z" fill="#222222"/>
</svg>
