<svg width="20" height="20" viewBox="0 0 20 20" fill="none" xmlns="http://www.w3.org/2000/svg">
<g clip-path="url(#clip0_564_2411)">
<path fill-rule="evenodd" clip-rule="evenodd" d="M9.99992 2.49998C5.85778 2.49998 2.49992 5.85784 2.49992 9.99998C2.49992 11.8509 3.17043 13.5453 4.28181 14.8534C5.0455 13.9258 6.20298 13.3333 7.49992 13.3333H12.4999C13.7969 13.3333 14.9543 13.9258 15.718 14.8534C16.8294 13.5453 17.4999 11.8509 17.4999 9.99998C17.4999 5.85784 14.1421 2.49998 9.99992 2.49998ZM16.1418 16.8049C17.9993 15.1273 19.1666 12.7 19.1666 9.99998C19.1666 4.93737 15.0625 0.833313 9.99992 0.833313C4.93731 0.833313 0.833252 4.93737 0.833252 9.99998C0.833252 12.7 2.00058 15.1273 3.85808 16.8049C3.86774 16.814 3.87765 16.8229 3.88779 16.8316C5.50967 18.2837 7.65168 19.1666 9.99992 19.1666C12.3482 19.1666 14.4902 18.2837 16.112 16.8316C16.1222 16.8229 16.1321 16.814 16.1418 16.8049ZM14.5004 16.0001C14.0438 15.3921 13.3171 15 12.4999 15H7.49992C6.68278 15 5.95603 15.3921 5.4994 16.0001C6.75298 16.9419 8.31128 17.5 9.99992 17.5C11.6886 17.5 13.2469 16.9419 14.5004 16.0001ZM9.99992 5.41665C8.61921 5.41665 7.49992 6.53593 7.49992 7.91665C7.49992 9.29736 8.61921 10.4166 9.99992 10.4166C11.3806 10.4166 12.4999 9.29736 12.4999 7.91665C12.4999 6.53593 11.3806 5.41665 9.99992 5.41665ZM5.83325 7.91665C5.83325 5.61546 7.69873 3.74998 9.99992 3.74998C12.3011 3.74998 14.1666 5.61546 14.1666 7.91665C14.1666 10.2178 12.3011 12.0833 9.99992 12.0833C7.69873 12.0833 5.83325 10.2178 5.83325 7.91665Z" fill="#222222"/>
</g>
<defs>
<clipPath id="clip0_564_2411">
<rect width="20" height="20" fill="white"/>
</clipPath>
</defs>
</svg>
