<svg width="24" height="24" viewBox="0 0 24 24" fill="none" xmlns="http://www.w3.org/2000/svg">
<path fill-rule="evenodd" clip-rule="evenodd" d="M15.7929 2.29289C16.1834 1.90237 16.8166 1.90237 17.2071 2.29289L21.2071 6.29289C21.5976 6.68342 21.5976 7.31658 21.2071 7.70711L17.2071 11.7071C16.8166 12.0976 16.1834 12.0976 15.7929 11.7071C15.4024 11.3166 15.4024 10.6834 15.7929 10.2929L18.0858 8H10.5C7.73858 8 5.5 10.2386 5.5 13C5.5 15.7614 7.73858 18 10.5 18H20.5C21.0523 18 21.5 18.4477 21.5 19C21.5 19.5523 21.0523 20 20.5 20H10.5C6.63401 20 3.5 16.866 3.5 13C3.5 9.13401 6.63401 6 10.5 6H18.0858L15.7929 3.70711C15.4024 3.31658 15.4024 2.68342 15.7929 2.29289Z" fill="#222222"/>
</svg>
