<svg width="20" height="20" viewBox="0 0 20 20" fill="none" xmlns="http://www.w3.org/2000/svg">
<path fill-rule="evenodd" clip-rule="evenodd" d="M9.16699 3.33366C5.94533 3.33366 3.33366 5.94533 3.33366 9.16699C3.33366 12.3887 5.94533 15.0003 9.16699 15.0003C10.7386 15.0003 12.1651 14.3788 13.214 13.3681C13.2359 13.3396 13.2599 13.3122 13.2861 13.2861C13.3122 13.2599 13.3396 13.2359 13.3681 13.214C14.3788 12.1651 15.0003 10.7386 15.0003 9.16699C15.0003 5.94533 12.3887 3.33366 9.16699 3.33366ZM15.0269 13.8484C16.0533 12.5653 16.667 10.9378 16.667 9.16699C16.667 5.02486 13.3091 1.66699 9.16699 1.66699C5.02486 1.66699 1.66699 5.02486 1.66699 9.16699C1.66699 13.3091 5.02486 16.667 9.16699 16.667C10.9378 16.667 12.5653 16.0533 13.8484 15.0269L16.9111 18.0896C17.2365 18.415 17.7641 18.415 18.0896 18.0896C18.415 17.7641 18.415 17.2365 18.0896 16.9111L15.0269 13.8484ZM8.33366 5.00033C8.33366 4.54009 8.70675 4.16699 9.16699 4.16699C11.9284 4.16699 14.167 6.40557 14.167 9.16699C14.167 9.62723 13.7939 10.0003 13.3337 10.0003C12.8734 10.0003 12.5003 9.62723 12.5003 9.16699C12.5003 7.32604 11.0079 5.83366 9.16699 5.83366C8.70675 5.83366 8.33366 5.46056 8.33366 5.00033Z" fill="#A0A0A0"/>
</svg>
