<svg xmlns="http://www.w3.org/2000/svg" width="20" height="20" viewBox="0 0 20 20" fill="none">
<path fill-rule="evenodd" clip-rule="evenodd" d="M9.44272 1.12429C9.79523 0.958569 10.2048 0.958569 10.5573 1.12429C10.862 1.26756 11.03 1.5163 11.1148 1.65276C11.2024 1.79383 11.2923 1.97354 11.3799 2.14871C11.3844 2.15765 11.3889 2.16659 11.3933 2.1755L13.2408 5.86596L17.4034 6.46587C17.5994 6.49407 17.8004 6.52301 17.9635 6.56167C18.1213 6.59908 18.413 6.67998 18.6451 6.92158C18.9137 7.20107 19.04 7.58513 18.9888 7.96682C18.9447 8.29676 18.7566 8.53104 18.6511 8.65261C18.5421 8.77827 18.3965 8.91802 18.2546 9.05421L15.2438 11.9457L15.9542 16.0298C15.9877 16.2224 16.0221 16.42 16.0354 16.5849C16.0482 16.7444 16.0606 17.0431 15.8994 17.3357C15.713 17.6741 15.3816 17.9114 14.9976 17.9816C14.6656 18.0423 14.3813 17.9384 14.2314 17.877C14.0764 17.8136 13.8965 17.7203 13.7211 17.6293L10 15.6998L6.27885 17.6293C6.10348 17.7203 5.92356 17.8136 5.76857 17.877C5.61867 17.9384 5.33442 18.0423 5.00242 17.9816C4.61838 17.9114 4.287 17.6741 4.10058 17.3357C3.93942 17.0431 3.9518 16.7444 3.96461 16.5849C3.97785 16.42 4.01226 16.2224 4.0458 16.0298L4.75621 11.9457L1.76709 9.07507C1.75987 9.06814 1.75264 9.0612 1.7454 9.05425C1.60352 8.91804 1.45793 8.77828 1.34889 8.65261C1.2434 8.53104 1.05535 8.29676 1.01116 7.96682C0.960034 7.58513 1.08633 7.20107 1.35488 6.92158C1.58701 6.67998 1.87871 6.59908 2.03648 6.56167C2.19956 6.52301 2.40062 6.49407 2.59657 6.46587C2.60657 6.46443 2.61656 6.46299 2.62653 6.46156L6.75916 5.86596L8.60666 2.1755C8.61113 2.16659 8.6156 2.15765 8.62007 2.14871C8.70772 1.97354 8.79764 1.79383 8.88524 1.65276C8.96997 1.5163 9.13798 1.26756 9.44272 1.12429ZM6.66989 6.0422C6.66977 6.04241 6.66977 6.04241 6.66989 6.0422V6.0422ZM6.95671 5.83656C6.95694 5.83651 6.95694 5.83651 6.95671 5.83656V5.83656ZM15.2109 11.7511C15.2109 11.7509 15.2109 11.7509 15.2109 11.7511V11.7511ZM10 3.23824L8.26718 6.69962C8.26387 6.70624 8.26009 6.71394 8.25585 6.72261C8.21472 6.80658 8.12955 6.98044 7.99449 7.12378C7.88048 7.24477 7.74375 7.3428 7.59187 7.41244C7.41194 7.49494 7.21794 7.52122 7.12425 7.53392C7.11458 7.53523 7.10598 7.53639 7.09857 7.53746L3.22217 8.09613L6.02589 10.7887C6.03126 10.7939 6.03754 10.7998 6.0446 10.8065C6.11301 10.8711 6.25466 11.0048 6.35132 11.176C6.43291 11.3204 6.48526 11.4792 6.50545 11.6434C6.52937 11.8379 6.49456 12.0282 6.47775 12.12C6.47601 12.1295 6.47447 12.138 6.4732 12.1453L5.8117 15.9482L9.27677 14.1514C9.2834 14.148 9.29106 14.1439 9.29967 14.1394C9.3831 14.0952 9.55585 14.0038 9.7508 13.9661C9.91537 13.9342 10.0846 13.9342 10.2492 13.9661C10.4442 14.0038 10.6169 14.0952 10.7003 14.1394C10.7089 14.1439 10.7166 14.148 10.7232 14.1514L14.1883 15.9482L13.5268 12.1453C13.5255 12.138 13.524 12.1295 13.5223 12.12C13.5054 12.0281 13.4706 11.8379 13.4946 11.6434C13.5147 11.4792 13.5671 11.3204 13.6487 11.176C13.7453 11.0048 13.887 10.8711 13.9554 10.8065C13.9625 10.7998 13.9687 10.7939 13.9741 10.7887L16.7778 8.09613L12.9014 7.53746C12.894 7.53639 12.8854 7.53523 12.8757 7.53392C12.7821 7.52122 12.5881 7.49494 12.4081 7.41244C12.2563 7.3428 12.1195 7.24477 12.0055 7.12378C11.8705 6.98044 11.7853 6.80658 11.7442 6.72261C11.7399 6.71394 11.7361 6.70624 11.7328 6.69962L10 3.23824Z" fill="#222222"/>
</svg>