<svg width="20" height="20" viewBox="0 0 20 20" fill="none" xmlns="http://www.w3.org/2000/svg">
<g clip-path="url(#clip0_609_2198)">
<path fill-rule="evenodd" clip-rule="evenodd" d="M9.99992 2.50004C5.85778 2.50004 2.49992 5.85791 2.49992 10C2.49992 14.1422 5.85778 17.5 9.99992 17.5C14.1421 17.5 17.4999 14.1422 17.4999 10C17.4999 5.85791 14.1421 2.50004 9.99992 2.50004ZM0.833252 10C0.833252 4.93743 4.93731 0.833374 9.99992 0.833374C15.0625 0.833374 19.1666 4.93743 19.1666 10C19.1666 15.0627 15.0625 19.1667 9.99992 19.1667C4.93731 19.1667 0.833252 15.0627 0.833252 10ZM14.3392 6.91079C14.6646 7.23622 14.6646 7.76386 14.3392 8.0893L9.33917 13.0893C9.01374 13.4147 8.4861 13.4147 8.16066 13.0893L5.66066 10.5893C5.33523 10.2639 5.33523 9.73622 5.66066 9.41079C5.9861 9.08535 6.51374 9.08535 6.83917 9.41079L8.74992 11.3215L13.1607 6.91079C13.4861 6.58535 14.0137 6.58535 14.3392 6.91079Z" fill="#20B369"/>
</g>
<defs>
<clipPath id="clip0_609_2198">
<rect width="20" height="20" fill="white"/>
</clipPath>
</defs>
</svg>
