<svg width="46" height="46" viewBox="0 0 46 46" fill="none" xmlns="http://www.w3.org/2000/svg">
<rect x="3" y="3" width="40" height="40" rx="20" fill="#F2F4F7"/>
<path fill-rule="evenodd" clip-rule="evenodd" d="M20.9649 13.8333C20.9714 13.8333 20.9779 13.8333 20.9845 13.8333L25.0354 13.8333C25.1272 13.8332 25.2071 13.8332 25.2834 13.8378C26.2474 13.8962 27.0916 14.5047 27.4518 15.4008C27.4803 15.4716 27.5056 15.5474 27.5346 15.6346L27.5407 15.6531C27.5794 15.769 27.5878 15.793 27.5949 15.8108C27.715 16.1095 27.9964 16.3123 28.3177 16.3317C28.3366 16.3329 28.3648 16.3333 28.4955 16.3333C28.5113 16.3333 28.5268 16.3333 28.5421 16.3333C28.8044 16.3332 28.9972 16.3332 29.1622 16.3495C30.7432 16.5061 31.9939 17.7569 32.1506 19.3379C32.1669 19.5028 32.1669 19.6879 32.1668 19.9377C32.1668 19.9519 32.1668 19.9663 32.1668 19.9809V26.5344C32.1669 27.2052 32.1669 27.7588 32.13 28.2098C32.0917 28.6782 32.0096 29.1088 31.8035 29.5132C31.4839 30.1404 30.974 30.6504 30.3468 30.9699C29.9424 31.176 29.5118 31.2582 29.0434 31.2964C28.5924 31.3333 28.0387 31.3333 27.3679 31.3333H18.6324C17.9616 31.3333 17.408 31.3333 16.957 31.2964C16.4886 31.2582 16.058 31.176 15.6535 30.9699C15.0263 30.6504 14.5164 30.1404 14.1968 29.5132C13.9907 29.1088 13.9086 28.6782 13.8703 28.2098C13.8335 27.7588 13.8335 27.2051 13.8335 26.5343L13.8335 19.9809C13.8335 19.9663 13.8335 19.9519 13.8335 19.9377C13.8335 19.6879 13.8334 19.5028 13.8497 19.3379C14.0064 17.7569 15.2571 16.5061 16.8382 16.3495C17.0031 16.3332 17.1959 16.3332 17.4583 16.3333C17.4736 16.3333 17.4891 16.3333 17.5048 16.3333C17.6355 16.3333 17.6638 16.3329 17.6826 16.3317C18.004 16.3123 18.2854 16.1095 18.4054 15.8108C18.4126 15.793 18.4209 15.769 18.4596 15.6531C18.4617 15.6468 18.4637 15.6407 18.4658 15.6345C18.4948 15.5474 18.52 15.4716 18.5485 15.4008C18.9088 14.5047 19.7529 13.8962 20.717 13.8378C20.7932 13.8332 20.8731 13.8332 20.9649 13.8333ZM20.9845 15.4999C20.8622 15.4999 20.8368 15.5003 20.8177 15.5014C20.4964 15.5209 20.215 15.7237 20.0949 16.0224C20.0878 16.0402 20.0794 16.0641 20.0407 16.1801C20.0387 16.1864 20.0366 16.1925 20.0346 16.1987C20.0056 16.2858 19.9803 16.3616 19.9518 16.4324C19.5916 17.3285 18.7474 17.937 17.7834 17.9954C17.7071 18 17.6234 18 17.5262 17.9999C17.5191 17.9999 17.512 17.9999 17.5048 17.9999C17.1758 17.9999 17.0739 18.001 17.0025 18.008C16.212 18.0864 15.5866 18.7117 15.5083 19.5023C15.5012 19.5739 15.5002 19.6691 15.5002 19.9809V26.4999C15.5002 27.2137 15.5008 27.699 15.5315 28.0741C15.5613 28.4394 15.6154 28.6262 15.6818 28.7566C15.8416 29.0702 16.0966 29.3251 16.4102 29.4849C16.5405 29.5513 16.7274 29.6054 17.0927 29.6353C17.4678 29.6659 17.953 29.6666 18.6668 29.6666H27.3335C28.0473 29.6666 28.5326 29.6659 28.9076 29.6353C29.273 29.6054 29.4598 29.5513 29.5902 29.4849C29.9038 29.3251 30.1587 29.0702 30.3185 28.7566C30.3849 28.6262 30.439 28.4394 30.4689 28.0741C30.4995 27.699 30.5002 27.2137 30.5002 26.4999V19.9809C30.5002 19.6691 30.4991 19.5739 30.4921 19.5023C30.4137 18.7117 29.7884 18.0864 28.9978 18.008C28.9265 18.001 28.8245 17.9999 28.4955 17.9999L28.4741 17.9999C28.3769 18 28.2933 18 28.217 17.9954C27.2529 17.937 26.4088 17.3285 26.0485 16.4324C26.02 16.3615 25.9948 16.2857 25.9658 16.1986L25.9596 16.1801C25.9209 16.0641 25.9126 16.0402 25.9054 16.0224C25.7854 15.7237 25.504 15.5209 25.1826 15.5014C25.1635 15.5003 25.1381 15.4999 25.0159 15.4999H20.9845ZM23.0002 20.9166C21.6195 20.9166 20.5002 22.0359 20.5002 23.4166C20.5002 24.7973 21.6195 25.9166 23.0002 25.9166C24.3809 25.9166 25.5002 24.7973 25.5002 23.4166C25.5002 22.0359 24.3809 20.9166 23.0002 20.9166ZM18.8335 23.4166C18.8335 21.1154 20.699 19.2499 23.0002 19.2499C25.3014 19.2499 27.1668 21.1154 27.1668 23.4166C27.1668 25.7178 25.3014 27.5833 23.0002 27.5833C20.699 27.5833 18.8335 25.7178 18.8335 23.4166Z" fill="#222222"/>
<rect x="3" y="3" width="40" height="40" rx="20" stroke="#F9FAFB" stroke-width="6"/>
</svg>
