<svg width="20" height="20" viewBox="0 0 20 20" fill="none" xmlns="http://www.w3.org/2000/svg">
<path fill-rule="evenodd" clip-rule="evenodd" d="M8.13225 1.66675H11.8678C12.5386 1.66674 13.0922 1.66673 13.5432 1.70358C14.0116 1.74185 14.4422 1.82398 14.8466 2.03006C15.4738 2.34964 15.9838 2.85957 16.3034 3.48678C16.5094 3.89123 16.5916 4.32181 16.6298 4.79023C16.6667 5.24123 16.6667 5.79487 16.6667 6.46569V17.5001C16.6667 17.7971 16.5085 18.0717 16.2516 18.2208C15.9947 18.3699 15.6778 18.371 15.4199 18.2236L10 15.1265L4.58012 18.2236C4.3222 18.371 4.00533 18.3699 3.7484 18.2208C3.49147 18.0717 3.33334 17.7971 3.33334 17.5001L3.33334 6.46567C3.33333 5.79486 3.33332 5.24122 3.37016 4.79023C3.40844 4.32181 3.49057 3.89123 3.69665 3.48678C4.01623 2.85957 4.52616 2.34964 5.15337 2.03006C5.55781 1.82398 5.9884 1.74185 6.45682 1.70358C6.90781 1.66673 7.46145 1.66674 8.13225 1.66675ZM6.59253 3.36471C6.22719 3.39456 6.04035 3.44866 5.91002 3.51507C5.59642 3.67486 5.34145 3.92983 5.18166 4.24343C5.11525 4.37376 5.06115 4.5606 5.0313 4.92595C5.00065 5.30102 5 5.78627 5 6.50008V16.0641L9.58655 13.4432C9.84275 13.2968 10.1573 13.2968 10.4135 13.4432L15 16.0641V6.50008C15 5.78627 14.9994 5.30102 14.9687 4.92595C14.9389 4.5606 14.8848 4.37376 14.8183 4.24343C14.6586 3.92983 14.4036 3.67486 14.09 3.51507C13.9597 3.44866 13.7728 3.39456 13.4075 3.36471C13.0324 3.33406 12.5472 3.33342 11.8333 3.33342H8.16667C7.45285 3.33342 6.96761 3.33406 6.59253 3.36471Z" fill="#222222"/>
</svg>
