<svg width="24" height="24" viewBox="0 0 24 24" fill="none" xmlns="http://www.w3.org/2000/svg">
<path fill-rule="evenodd" clip-rule="evenodd" d="M9.20711 2.29289C9.59763 2.68342 9.59763 3.31658 9.20711 3.70711L6.91421 6H14.5C18.366 6 21.5 9.13401 21.5 13C21.5 16.866 18.366 20 14.5 20H4.5C3.94772 20 3.5 19.5523 3.5 19C3.5 18.4477 3.94772 18 4.5 18H14.5C17.2614 18 19.5 15.7614 19.5 13C19.5 10.2386 17.2614 8 14.5 8H6.91421L9.20711 10.2929C9.59763 10.6834 9.59763 11.3166 9.20711 11.7071C8.81658 12.0976 8.18342 12.0976 7.79289 11.7071L3.79289 7.70711C3.40237 7.31658 3.40237 6.68342 3.79289 6.29289L7.79289 2.29289C8.18342 1.90237 8.81658 1.90237 9.20711 2.29289Z" fill="#A0A0A0"/>
</svg>
