<svg width="101" height="100" viewBox="0 0 101 100" fill="none" xmlns="http://www.w3.org/2000/svg">
<g clip-path="url(#clip0_1087_9113)">
<path d="M100.5 50C100.5 22.3858 78.1142 0 50.5 0C22.8858 0 0.5 22.3858 0.5 50C0.5 77.6142 22.8858 100 50.5 100C78.1142 100 100.5 77.6142 100.5 50Z" fill="#875CFF"/>
<path d="M83.3125 45.7637V77.0137C83.3125 80.8965 80.1641 84.0449 76.2813 84.0449H24.7188C20.8359 84.0449 17.6875 80.8965 17.6875 77.0137V45.7637L45.5371 18.0059C48.2813 15.2715 52.7207 15.2715 55.4648 18.0059L83.3145 45.7637H83.3125Z" fill="#FF9D00"/>
<path d="M70.8398 23.7832H30.2148C26.3316 23.7832 23.1836 26.9312 23.1836 30.8145V71.4395C23.1836 75.3227 26.3316 78.4707 30.2148 78.4707H70.8398C74.7231 78.4707 77.8711 75.3227 77.8711 71.4395V30.8145C77.8711 26.9312 74.7231 23.7832 70.8398 23.7832Z" fill="#F4EEE6"/>
<path d="M83.3125 45.7637V77.0137C83.3125 80.8965 80.1641 84.0449 76.2812 84.0449H24.7188C20.8359 84.0449 17.6875 80.8965 17.6875 77.0137V45.8516L50.457 78.6211L83.3125 45.7656V45.7637Z" fill="#FFBE1D"/>
<path d="M81.2754 81.9648C80.166 83.084 78.6855 83.8301 77.0312 84.0078L24.4687 84.043C22.6152 83.9785 20.9453 83.1953 19.7246 81.9668L45.5273 56.1641C48.2734 53.418 52.7246 53.418 55.4707 56.1641L81.2734 81.9668L81.2754 81.9648Z" fill="#FFE000"/>
<g clip-path="url(#clip1_1087_9113)">
<path d="M50.5 28.5156C44.567 28.5156 39.7578 33.3248 39.7578 39.2578C39.7578 45.1909 44.567 50 50.5 50C56.433 50 61.2422 45.1909 61.2422 39.2578C61.2247 33.3322 56.4257 28.5331 50.5 28.5156ZM55.6744 36.3755L48.9605 43.0894C48.8296 43.2203 48.6577 43.2861 48.4858 43.2861C48.314 43.2861 48.1421 43.2203 48.0112 43.0894L45.3256 40.4039C45.0631 40.1414 45.0631 39.717 45.3256 39.4545C45.5881 39.192 46.0125 39.192 46.275 39.4545L48.4858 41.6654L54.725 35.4262C54.9875 35.1637 55.4119 35.1637 55.6744 35.4262C55.9369 35.6887 55.9369 36.113 55.6744 36.3755Z" fill="#20B369"/>
</g>
</g>
<defs>
<clipPath id="clip0_1087_9113">
<rect width="100" height="100" fill="white" transform="translate(0.5)"/>
</clipPath>
<clipPath id="clip1_1087_9113">
<rect width="21.4844" height="21.4844" fill="white" transform="translate(39.7578 28.5156)"/>
</clipPath>
</defs>
</svg>
