<svg width="101" height="100" viewBox="0 0 101 100" fill="none" xmlns="http://www.w3.org/2000/svg">
<g clip-path="url(#clip0_1087_9125)">
<path d="M100.5 50C100.5 22.3858 78.1142 0 50.5 0C22.8858 0 0.5 22.3858 0.5 50C0.5 77.6142 22.8858 100 50.5 100C78.1142 100 100.5 77.6142 100.5 50Z" fill="#875CFF"/>
<path d="M83.3125 45.7637V77.0137C83.3125 80.8965 80.1641 84.0449 76.2812 84.0449H24.7188C20.8359 84.0449 17.6875 80.8965 17.6875 77.0137V45.7637L45.5371 18.0059C48.2812 15.2715 52.7207 15.2715 55.4648 18.0059L83.3145 45.7637H83.3125Z" fill="#FF9D00"/>
<path d="M70.8398 23.7832H30.2148C26.3316 23.7832 23.1836 26.9312 23.1836 30.8145V71.4395C23.1836 75.3227 26.3316 78.4707 30.2148 78.4707H70.8398C74.7231 78.4707 77.8711 75.3227 77.8711 71.4395V30.8145C77.8711 26.9312 74.7231 23.7832 70.8398 23.7832Z" fill="#F4EEE6"/>
<path d="M83.3125 45.7637V77.0137C83.3125 80.8965 80.1641 84.0449 76.2812 84.0449H24.7188C20.8359 84.0449 17.6875 80.8965 17.6875 77.0137V45.8516L50.457 78.6211L83.3125 45.7656V45.7637Z" fill="#FFBE1D"/>
<path d="M81.2754 81.9648C80.166 83.084 78.6855 83.8301 77.0313 84.0078L24.4688 84.043C22.6152 83.9785 20.9453 83.1953 19.7246 81.9668L45.5273 56.1641C48.2734 53.418 52.7246 53.418 55.4707 56.1641L81.2734 81.9668L81.2754 81.9648Z" fill="#FFE000"/>
<path d="M60.0098 45.316L52.0479 30.7822C51.8972 30.5029 51.6738 30.2695 51.4013 30.1069C51.1288 29.9443 50.8173 29.8584 50.5 29.8584C50.1826 29.8584 49.8712 29.9443 49.5987 30.1069C49.3262 30.2695 49.1027 30.5029 48.9521 30.7822L40.9901 45.316C40.8369 45.5921 40.7591 45.9037 40.7644 46.2194C40.7697 46.5351 40.858 46.8439 41.0203 47.1147C41.1747 47.3802 41.3961 47.6005 41.6625 47.7534C41.9289 47.9063 42.2308 47.9865 42.538 47.9858H58.4619C58.7691 47.9865 59.071 47.9063 59.3374 47.7534C59.6038 47.6005 59.8253 47.3802 59.9796 47.1147C60.142 46.8439 60.2302 46.5351 60.2355 46.2194C60.2408 45.9037 60.163 45.5921 60.0098 45.316ZM51.459 35.5651L50.9793 42.5187H50.0203L49.5409 35.5651H51.459ZM50.5 45.9716C50.3008 45.9716 50.1061 45.9126 49.9405 45.8019C49.7749 45.6913 49.6458 45.534 49.5695 45.3499C49.4933 45.1659 49.4734 44.9634 49.5122 44.7681C49.5511 44.5727 49.647 44.3933 49.7879 44.2524C49.9287 44.1116 50.1081 44.0157 50.3035 43.9768C50.4989 43.938 50.7013 43.9579 50.8854 44.0341C51.0694 44.1104 51.2267 44.2394 51.3373 44.4051C51.448 44.5707 51.5071 44.7654 51.5071 44.9646C51.5071 45.2317 51.4009 45.4878 51.2121 45.6767C51.0232 45.8655 50.7671 45.9716 50.5 45.9716Z" fill="#FA421A"/>
</g>
<defs>
<clipPath id="clip0_1087_9125">
<rect width="100" height="100" fill="white" transform="translate(0.5)"/>
</clipPath>
</defs>
</svg>
