<svg width="21" height="20" viewBox="0 0 21 20" fill="none" xmlns="http://www.w3.org/2000/svg">
<path fill-rule="evenodd" clip-rule="evenodd" d="M10.4997 3.33331C10.9599 3.33331 11.333 3.70641 11.333 4.16665V9.16665H16.333C16.7932 9.16665 17.1663 9.53974 17.1663 9.99998C17.1663 10.4602 16.7932 10.8333 16.333 10.8333H11.333V15.8333C11.333 16.2936 10.9599 16.6666 10.4997 16.6666C10.0394 16.6666 9.66634 16.2936 9.66634 15.8333V10.8333H4.66634C4.2061 10.8333 3.83301 10.4602 3.83301 9.99998C3.83301 9.53974 4.2061 9.16665 4.66634 9.16665H9.66634V4.16665C9.66634 3.70641 10.0394 3.33331 10.4997 3.33331Z" fill="#222222"/>
</svg>
